<ttFont>
    <TTGlyph name=".notdef" xMin="113" yMin="0" xMax="671" yMax="531">
      <contour>
        <pt x="657" y="506" on="1"/>
        <pt x="405" y="266" on="1"/>
        <pt x="657" y="25" on="1"/>
      </contour>
      <contour>
        <pt x="140" y="13" on="1"/>
        <pt x="647" y="13" on="1"/>
        <pt x="394" y="256" on="1"/>
      </contour>
      <contour>
        <pt x="127" y="22" on="1"/>
        <pt x="383" y="266" on="1"/>
        <pt x="127" y="507" on="1"/>
      </contour>
      <contour>
        <pt x="648" y="518" on="1"/>
        <pt x="137" y="518" on="1"/>
        <pt x="394" y="276" on="1"/>
      </contour>
      <contour>
        <pt x="113" y="0" on="1"/>
        <pt x="113" y="531" on="1"/>
        <pt x="671" y="531" on="1"/>
        <pt x="671" y="0" on="1"/>
      </contour>
    </TTGlyph>
    <TTGlyph name="A" xMin="56" yMin="0" xMax="636" yMax="732">
      <contour>
        <pt x="56" y="0" on="1"/>
        <pt x="328" y="732" on="1"/>
        <pt x="375" y="732" on="1"/>
        <pt x="636" y="0" on="1"/>
        <pt x="589" y="0" on="1"/>
        <pt x="507" y="236" on="1"/>
        <pt x="188" y="236" on="1"/>
        <pt x="104" y="0" on="1"/>
      </contour>
      <contour>
        <pt x="203" y="277" on="1"/>
        <pt x="492" y="277" on="1"/>
        <pt x="351" y="678" on="1"/>
      </contour>
    </TTGlyph>
    <TTGlyph name="AE" xMin="37" yMin="-5" xMax="880" yMax="733">
      <contour>
        <pt x="584" y="732" on="1"/>
        <pt x="589" y="732" on="0"/>
        <pt x="594" y="732" on="1"/>
        <pt x="880" y="720" on="1"/>
        <pt x="880" y="691" on="1"/>
        <pt x="594" y="691" on="1"/>
        <pt x="540" y="691" on="0"/>
        <pt x="527" y="676" on="1"/>
        <pt x="521" y="669" on="0"/>
        <pt x="514" y="663" on="0"/>
        <pt x="511" y="640" on="0"/>
        <pt x="510" y="633" on="0"/>
        <pt x="510" y="616" on="1"/>
        <pt x="510" y="382" on="1"/>
        <pt x="840" y="376" on="1"/>
        <pt x="840" y="346" on="1"/>
        <pt x="510" y="340" on="1"/>
        <pt x="510" y="122" on="1"/>
        <pt x="510" y="65" on="0"/>
        <pt x="541" y="50" on="1"/>
        <pt x="566" y="39" on="0"/>
        <pt x="605" y="39" on="1"/>
        <pt x="880" y="39" on="1"/>
        <pt x="880" y="9" on="1"/>
        <pt x="605" y="-4" on="1"/>
        <pt x="599" y="-4" on="0"/>
        <pt x="593" y="-4" on="1"/>
        <pt x="541" y="-4" on="0"/>
        <pt x="469" y="45" on="0"/>
        <pt x="469" y="121" on="1"/>
        <pt x="469" y="244" on="1"/>
        <pt x="227" y="244" on="1"/>
        <pt x="84" y="0" on="1"/>
        <pt x="37" y="0" on="1"/>
        <pt x="386" y="595" on="1"/>
        <pt x="435" y="680" on="0"/>
        <pt x="515" y="732" on="0"/>
      </contour>
      <contour>
        <pt x="469" y="284" on="1"/>
        <pt x="469" y="655" on="1"/>
        <pt x="250" y="284" on="1"/>
      </contour>
    </TTGlyph>
    <TTGlyph name="Aacute" xMin="56" yMin="0" xMax="636" yMax="930">
      <contour>
        <pt x="336" y="797" on="1"/>
        <pt x="452" y="930" on="1"/>
        <pt x="501" y="930" on="1"/>
        <pt x="368" y="797" on="1"/>
      </contour>
      <contour>
        <pt x="56" y="0" on="1"/>
        <pt x="328" y="732" on="1"/>
        <pt x="375" y="732" on="1"/>
        <pt x="636" y="0" on="1"/>
        <pt x="589" y="0" on="1"/>
        <pt x="507" y="236" on="1"/>
        <pt x="188" y="236" on="1"/>
        <pt x="104" y="0" on="1"/>
      </contour>
      <contour>
        <pt x="203" y="277" on="1"/>
        <pt x="492" y="277" on="1"/>
        <pt x="351" y="678" on="1"/>
      </contour>
    </TTGlyph>
    <TTGlyph name="Abreve" xMin="56" yMin="0" xMax="636" yMax="911">
      <contour>
        <pt x="242" y="911" on="1"/>
        <pt x="267" y="911" on="1"/>
        <pt x="267" y="873" on="0"/>
        <pt x="319" y="822" on="0"/>
        <pt x="353" y="822" on="1"/>
        <pt x="395" y="822" on="0"/>
        <pt x="447" y="872" on="0"/>
        <pt x="447" y="911" on="1"/>
        <pt x="472" y="911" on="1"/>
        <pt x="472" y="858" on="0"/>
        <pt x="401" y="797" on="0"/>
        <pt x="312" y="797" on="0"/>
        <pt x="242" y="860" on="0"/>
      </contour>
      <contour>
        <pt x="56" y="0" on="1"/>
        <pt x="328" y="732" on="1"/>
        <pt x="375" y="732" on="1"/>
        <pt x="636" y="0" on="1"/>
        <pt x="589" y="0" on="1"/>
        <pt x="507" y="236" on="1"/>
        <pt x="188" y="236" on="1"/>
        <pt x="104" y="0" on="1"/>
      </contour>
      <contour>
        <pt x="203" y="277" on="1"/>
        <pt x="492" y="277" on="1"/>
        <pt x="351" y="678" on="1"/>
      </contour>
    </TTGlyph>
    <TTGlyph name="Acircumflex" xMin="56" yMin="0" xMax="636" yMax="927">
      <contour>
        <pt x="212" y="797" on="1"/>
        <pt x="339" y="927" on="1"/>
        <pt x="376" y="927" on="1"/>
        <pt x="491" y="797" on="1"/>
        <pt x="455" y="797" on="1"/>
        <pt x="357" y="897" on="1"/>
        <pt x="248" y="797" on="1"/>
      </contour>
      <contour>
        <pt x="56" y="0" on="1"/>
        <pt x="328" y="732" on="1"/>
        <pt x="375" y="732" on="1"/>
        <pt x="636" y="0" on="1"/>
        <pt x="589" y="0" on="1"/>
        <pt x="507" y="236" on="1"/>
        <pt x="188" y="236" on="1"/>
        <pt x="104" y="0" on="1"/>
      </contour>
      <contour>
        <pt x="203" y="277" on="1"/>
        <pt x="492" y="277" on="1"/>
        <pt x="351" y="678" on="1"/>
      </contour>
    </TTGlyph>
    <TTGlyph name="Adieresis" xMin="56" yMin="0" xMax="636" yMax="854">
      <contour>
        <pt x="196" y="814" on="0"/>
        <pt x="196" y="838" on="0"/>
        <pt x="212" y="854" on="0"/>
        <pt x="236" y="854" on="0"/>
        <pt x="253" y="838" on="0"/>
        <pt x="253" y="814" on="0"/>
        <pt x="236" y="797" on="0"/>
        <pt x="212" y="797" on="0"/>
      </contour>
      <contour>
        <pt x="450" y="814" on="0"/>
        <pt x="450" y="838" on="0"/>
        <pt x="467" y="854" on="0"/>
        <pt x="491" y="854" on="0"/>
        <pt x="508" y="838" on="0"/>
        <pt x="508" y="814" on="0"/>
        <pt x="491" y="797" on="0"/>
        <pt x="467" y="797" on="0"/>
      </contour>
      <contour>
        <pt x="56" y="0" on="1"/>
        <pt x="328" y="732" on="1"/>
        <pt x="375" y="732" on="1"/>
        <pt x="636" y="0" on="1"/>
        <pt x="589" y="0" on="1"/>
        <pt x="507" y="236" on="1"/>
        <pt x="188" y="236" on="1"/>
        <pt x="104" y="0" on="1"/>
      </contour>
      <contour>
        <pt x="203" y="277" on="1"/>
        <pt x="492" y="277" on="1"/>
        <pt x="351" y="678" on="1"/>
      </contour>
    </TTGlyph>
    <TTGlyph name="Agrave" xMin="56" yMin="0" xMax="636" yMax="930">
      <contour>
        <pt x="203" y="930" on="1"/>
        <pt x="252" y="930" on="1"/>
        <pt x="368" y="797" on="1"/>
        <pt x="336" y="797" on="1"/>
      </contour>
      <contour>
        <pt x="56" y="0" on="1"/>
        <pt x="328" y="732" on="1"/>
        <pt x="375" y="732" on="1"/>
        <pt x="636" y="0" on="1"/>
        <pt x="589" y="0" on="1"/>
        <pt x="507" y="236" on="1"/>
        <pt x="188" y="236" on="1"/>
        <pt x="104" y="0" on="1"/>
      </contour>
      <contour>
        <pt x="203" y="277" on="1"/>
        <pt x="492" y="277" on="1"/>
        <pt x="351" y="678" on="1"/>
      </contour>
    </TTGlyph>
    <TTGlyph name="Amacron" xMin="56" yMin="0" xMax="636" yMax="828">
      <contour>
        <pt x="219" y="797" on="1"/>
        <pt x="219" y="828" on="1"/>
        <pt x="484" y="828" on="1"/>
        <pt x="484" y="797" on="1"/>
      </contour>
      <contour>
        <pt x="56" y="0" on="1"/>
        <pt x="328" y="732" on="1"/>
        <pt x="375" y="732" on="1"/>
        <pt x="636" y="0" on="1"/>
        <pt x="589" y="0" on="1"/>
        <pt x="507" y="236" on="1"/>
        <pt x="188" y="236" on="1"/>
        <pt x="104" y="0" on="1"/>
      </contour>
      <contour>
        <pt x="203" y="277" on="1"/>
        <pt x="492" y="277" on="1"/>
        <pt x="351" y="678" on="1"/>
      </contour>
    </TTGlyph>
    <TTGlyph name="Aogonek" xMin="56" yMin="-183" xMax="646" yMax="732">
      <contour>
        <pt x="624" y="0" on="1"/>
        <pt x="553" y="-37" on="0"/>
        <pt x="553" y="-92" on="1"/>
        <pt x="553" y="-108" on="0"/>
        <pt x="568" y="-124" on="1"/>
        <pt x="592" y="-151" on="0"/>
        <pt x="646" y="-151" on="1"/>
        <pt x="646" y="-181" on="1"/>
        <pt x="636" y="-182" on="0"/>
        <pt x="596" y="-182" on="0"/>
        <pt x="537" y="-150" on="0"/>
        <pt x="525" y="-121" on="1"/>
        <pt x="520" y="-110" on="0"/>
        <pt x="520" y="-78" on="0"/>
        <pt x="532" y="-58" on="1"/>
        <pt x="550" y="-23" on="0"/>
        <pt x="603" y="0" on="1"/>
      </contour>
      <contour>
        <pt x="56" y="0" on="1"/>
        <pt x="328" y="732" on="1"/>
        <pt x="375" y="732" on="1"/>
        <pt x="636" y="0" on="1"/>
        <pt x="589" y="0" on="1"/>
        <pt x="507" y="236" on="1"/>
        <pt x="188" y="236" on="1"/>
        <pt x="104" y="0" on="1"/>
      </contour>
      <contour>
        <pt x="203" y="277" on="1"/>
        <pt x="492" y="277" on="1"/>
        <pt x="351" y="678" on="1"/>
      </contour>
    </TTGlyph>
    <TTGlyph name="Aring" xMin="56" yMin="0" xMax="636" yMax="935">
      <contour>
        <pt x="251" y="875" on="0"/>
        <pt x="251" y="789" on="0"/>
        <pt x="311" y="730" on="0"/>
        <pt x="395" y="730" on="0"/>
        <pt x="453" y="789" on="0"/>
        <pt x="453" y="875" on="0"/>
        <pt x="395" y="935" on="0"/>
        <pt x="311" y="935" on="0"/>
      </contour>
      <contour>
        <pt x="276" y="864" on="0"/>
        <pt x="322" y="909" on="0"/>
        <pt x="384" y="909" on="0"/>
        <pt x="428" y="864" on="0"/>
        <pt x="428" y="800" on="0"/>
        <pt x="384" y="756" on="0"/>
        <pt x="321" y="756" on="0"/>
        <pt x="276" y="801" on="0"/>
      </contour>
      <contour>
        <pt x="56" y="0" on="1"/>
        <pt x="328" y="732" on="1"/>
        <pt x="375" y="732" on="1"/>
        <pt x="636" y="0" on="1"/>
        <pt x="589" y="0" on="1"/>
        <pt x="507" y="236" on="1"/>
        <pt x="188" y="236" on="1"/>
        <pt x="104" y="0" on="1"/>
      </contour>
      <contour>
        <pt x="203" y="277" on="1"/>
        <pt x="492" y="277" on="1"/>
        <pt x="351" y="678" on="1"/>
      </contour>
    </TTGlyph>
    <TTGlyph name="Atilde" xMin="56" yMin="0" xMax="636" yMax="891">
      <contour>
        <pt x="316" y="890" on="0"/>
        <pt x="399" y="831" on="0"/>
        <pt x="421" y="831" on="0"/>
        <pt x="440" y="836" on="0"/>
        <pt x="454" y="842" on="0"/>
        <pt x="475" y="854" on="0"/>
        <pt x="480" y="858" on="1"/>
        <pt x="500" y="874" on="0"/>
        <pt x="509" y="878" on="1"/>
        <pt x="521" y="859" on="1"/>
        <pt x="497" y="837" on="0"/>
        <pt x="475" y="819" on="0"/>
        <pt x="431" y="797" on="0"/>
        <pt x="387" y="798" on="0"/>
        <pt x="308" y="857" on="0"/>
        <pt x="278" y="857" on="0"/>
        <pt x="250" y="848" on="0"/>
        <pt x="234" y="839" on="0"/>
        <pt x="201" y="817" on="0"/>
        <pt x="193" y="812" on="1"/>
        <pt x="183" y="831" on="1"/>
        <pt x="207" y="851" on="0"/>
        <pt x="220" y="862" on="1"/>
        <pt x="257" y="891" on="0"/>
        <pt x="293" y="891" on="1"/>
      </contour>
      <contour>
        <pt x="56" y="0" on="1"/>
        <pt x="328" y="732" on="1"/>
        <pt x="375" y="732" on="1"/>
        <pt x="636" y="0" on="1"/>
        <pt x="589" y="0" on="1"/>
        <pt x="507" y="236" on="1"/>
        <pt x="188" y="236" on="1"/>
        <pt x="104" y="0" on="1"/>
      </contour>
      <contour>
        <pt x="203" y="277" on="1"/>
        <pt x="492" y="277" on="1"/>
        <pt x="351" y="678" on="1"/>
      </contour>
    </TTGlyph>
    <TTGlyph name="B" xMin="98" yMin="0" xMax="555" yMax="732">
      <contour>
        <pt x="98" y="0" on="1"/>
        <pt x="98" y="732" on="1"/>
        <pt x="361" y="732" on="1"/>
        <pt x="463" y="732" on="0"/>
        <pt x="551" y="630" on="0"/>
        <pt x="551" y="482" on="0"/>
        <pt x="486" y="392" on="0"/>
        <pt x="435" y="383" on="1"/>
        <pt x="477" y="373" on="0"/>
        <pt x="555" y="281" on="0"/>
        <pt x="555" y="204" on="1"/>
        <pt x="555" y="120" on="0"/>
        <pt x="516" y="64" on="1"/>
        <pt x="471" y="0" on="0"/>
        <pt x="361" y="0" on="1"/>
      </contour>
      <contour>
        <pt x="140" y="42" on="1"/>
        <pt x="361" y="42" on="1"/>
        <pt x="514" y="42" on="0"/>
        <pt x="514" y="206" on="1"/>
        <pt x="514" y="272" on="0"/>
        <pt x="428" y="362" on="0"/>
        <pt x="364" y="362" on="1"/>
        <pt x="362" y="362" on="0"/>
        <pt x="361" y="362" on="1"/>
        <pt x="140" y="362" on="1"/>
      </contour>
      <contour>
        <pt x="140" y="404" on="1"/>
        <pt x="361" y="404" on="1"/>
        <pt x="428" y="404" on="0"/>
        <pt x="468" y="442" on="1"/>
        <pt x="510" y="480" on="0"/>
        <pt x="510" y="554" on="1"/>
        <pt x="510" y="691" on="0"/>
        <pt x="361" y="691" on="1"/>
        <pt x="140" y="691" on="1"/>
      </contour>
    </TTGlyph>
    <TTGlyph name="C" xMin="68" yMin="-6" xMax="535" yMax="740">
      <contour>
        <pt x="68" y="368" on="1"/>
        <pt x="68" y="598" on="0"/>
        <pt x="138" y="676" on="1"/>
        <pt x="196" y="740" on="0"/>
        <pt x="311" y="740" on="1"/>
        <pt x="406" y="740" on="0"/>
        <pt x="535" y="716" on="1"/>
        <pt x="535" y="686" on="1"/>
        <pt x="519" y="687" on="0"/>
        <pt x="493" y="690" on="0"/>
        <pt x="458" y="692" on="0"/>
        <pt x="417" y="695" on="0"/>
        <pt x="396" y="696" on="1"/>
        <pt x="361" y="699" on="0"/>
        <pt x="237" y="699" on="0"/>
        <pt x="195" y="672" on="1"/>
        <pt x="109" y="615" on="0"/>
        <pt x="109" y="366" on="1"/>
        <pt x="109" y="35" on="0"/>
        <pt x="312" y="35" on="1"/>
        <pt x="405" y="35" on="0"/>
        <pt x="502" y="42" on="1"/>
        <pt x="535" y="45" on="1"/>
        <pt x="535" y="16" on="1"/>
        <pt x="417" y="-6" on="0"/>
        <pt x="311" y="-6" on="1"/>
        <pt x="68" y="-6" on="0"/>
      </contour>
    </TTGlyph>
    <TTGlyph name="Cacute" xMin="68" yMin="-6" xMax="535" yMax="933">
      <contour>
        <pt x="310" y="800" on="1"/>
        <pt x="426" y="933" on="1"/>
        <pt x="475" y="933" on="1"/>
        <pt x="342" y="800" on="1"/>
      </contour>
      <contour>
        <pt x="68" y="368" on="1"/>
        <pt x="68" y="598" on="0"/>
        <pt x="138" y="676" on="1"/>
        <pt x="196" y="740" on="0"/>
        <pt x="311" y="740" on="1"/>
        <pt x="406" y="740" on="0"/>
        <pt x="535" y="716" on="1"/>
        <pt x="535" y="686" on="1"/>
        <pt x="519" y="687" on="0"/>
        <pt x="493" y="690" on="0"/>
        <pt x="458" y="692" on="0"/>
        <pt x="417" y="695" on="0"/>
        <pt x="396" y="696" on="1"/>
        <pt x="361" y="699" on="0"/>
        <pt x="237" y="699" on="0"/>
        <pt x="195" y="672" on="1"/>
        <pt x="109" y="615" on="0"/>
        <pt x="109" y="366" on="1"/>
        <pt x="109" y="35" on="0"/>
        <pt x="312" y="35" on="1"/>
        <pt x="405" y="35" on="0"/>
        <pt x="502" y="42" on="1"/>
        <pt x="535" y="45" on="1"/>
        <pt x="535" y="16" on="1"/>
        <pt x="417" y="-6" on="0"/>
        <pt x="311" y="-6" on="1"/>
        <pt x="68" y="-6" on="0"/>
      </contour>
    </TTGlyph>
    <TTGlyph name="Ccaron" xMin="68" yMin="-6" xMax="535" yMax="930">
      <contour>
        <pt x="198" y="930" on="1"/>
        <pt x="233" y="930" on="1"/>
        <pt x="335" y="830" on="1"/>
        <pt x="441" y="930" on="1"/>
        <pt x="477" y="930" on="1"/>
        <pt x="354" y="800" on="1"/>
        <pt x="316" y="800" on="1"/>
      </contour>
      <contour>
        <pt x="68" y="368" on="1"/>
        <pt x="68" y="598" on="0"/>
        <pt x="138" y="676" on="1"/>
        <pt x="196" y="740" on="0"/>
        <pt x="311" y="740" on="1"/>
        <pt x="406" y="740" on="0"/>
        <pt x="535" y="716" on="1"/>
        <pt x="535" y="686" on="1"/>
        <pt x="519" y="687" on="0"/>
        <pt x="493" y="690" on="0"/>
        <pt x="458" y="692" on="0"/>
        <pt x="417" y="695" on="0"/>
        <pt x="396" y="696" on="1"/>
        <pt x="361" y="699" on="0"/>
        <pt x="237" y="699" on="0"/>
        <pt x="195" y="672" on="1"/>
        <pt x="109" y="615" on="0"/>
        <pt x="109" y="366" on="1"/>
        <pt x="109" y="35" on="0"/>
        <pt x="312" y="35" on="1"/>
        <pt x="405" y="35" on="0"/>
        <pt x="502" y="42" on="1"/>
        <pt x="535" y="45" on="1"/>
        <pt x="535" y="16" on="1"/>
        <pt x="417" y="-6" on="0"/>
        <pt x="311" y="-6" on="1"/>
        <pt x="68" y="-6" on="0"/>
      </contour>
    </TTGlyph>
    <TTGlyph name="Ccedilla" xMin="68" yMin="-172" xMax="535" yMax="740">
      <contour>
        <pt x="319" y="-43" on="1"/>
        <pt x="319" y="-40" on="0"/>
        <pt x="319" y="-36" on="1"/>
        <pt x="353" y="-36" on="1"/>
        <pt x="353" y="-114" on="0"/>
        <pt x="312" y="-172" on="0"/>
        <pt x="252" y="-172" on="1"/>
        <pt x="215" y="-172" on="1"/>
        <pt x="215" y="-155" on="1"/>
        <pt x="254" y="-146" on="1"/>
        <pt x="290" y="-139" on="0"/>
        <pt x="319" y="-97" on="0"/>
      </contour>
      <contour>
        <pt x="68" y="368" on="1"/>
        <pt x="68" y="598" on="0"/>
        <pt x="138" y="676" on="1"/>
        <pt x="196" y="740" on="0"/>
        <pt x="311" y="740" on="1"/>
        <pt x="406" y="740" on="0"/>
        <pt x="535" y="716" on="1"/>
        <pt x="535" y="686" on="1"/>
        <pt x="519" y="687" on="0"/>
        <pt x="493" y="690" on="0"/>
        <pt x="458" y="692" on="0"/>
        <pt x="417" y="695" on="0"/>
        <pt x="396" y="696" on="1"/>
        <pt x="361" y="699" on="0"/>
        <pt x="237" y="699" on="0"/>
        <pt x="195" y="672" on="1"/>
        <pt x="109" y="615" on="0"/>
        <pt x="109" y="366" on="1"/>
        <pt x="109" y="35" on="0"/>
        <pt x="312" y="35" on="1"/>
        <pt x="405" y="35" on="0"/>
        <pt x="502" y="42" on="1"/>
        <pt x="535" y="45" on="1"/>
        <pt x="535" y="16" on="1"/>
        <pt x="417" y="-6" on="0"/>
        <pt x="311" y="-6" on="1"/>
        <pt x="68" y="-6" on="0"/>
      </contour>
    </TTGlyph>
    <TTGlyph name="Ccircumflex" xMin="68" yMin="-6" xMax="535" yMax="930">
      <contour>
        <pt x="193" y="800" on="1"/>
        <pt x="320" y="930" on="1"/>
        <pt x="357" y="930" on="1"/>
        <pt x="472" y="800" on="1"/>
        <pt x="436" y="800" on="1"/>
        <pt x="338" y="900" on="1"/>
        <pt x="229" y="800" on="1"/>
      </contour>
      <contour>
        <pt x="68" y="368" on="1"/>
        <pt x="68" y="598" on="0"/>
        <pt x="138" y="676" on="1"/>
        <pt x="196" y="740" on="0"/>
        <pt x="311" y="740" on="1"/>
        <pt x="406" y="740" on="0"/>
        <pt x="535" y="716" on="1"/>
        <pt x="535" y="686" on="1"/>
        <pt x="519" y="687" on="0"/>
        <pt x="493" y="690" on="0"/>
        <pt x="458" y="692" on="0"/>
        <pt x="417" y="695" on="0"/>
        <pt x="396" y="696" on="1"/>
        <pt x="361" y="699" on="0"/>
        <pt x="237" y="699" on="0"/>
        <pt x="195" y="672" on="1"/>
        <pt x="109" y="615" on="0"/>
        <pt x="109" y="366" on="1"/>
        <pt x="109" y="35" on="0"/>
        <pt x="312" y="35" on="1"/>
        <pt x="405" y="35" on="0"/>
        <pt x="502" y="42" on="1"/>
        <pt x="535" y="45" on="1"/>
        <pt x="535" y="16" on="1"/>
        <pt x="417" y="-6" on="0"/>
        <pt x="311" y="-6" on="1"/>
        <pt x="68" y="-6" on="0"/>
      </contour>
    </TTGlyph>
    <TTGlyph name="Cdotaccent" xMin="68" yMin="-6" xMax="535" yMax="892">
      <contour>
        <pt x="316" y="817" on="1"/>
        <pt x="316" y="876" on="1"/>
        <pt x="316" y="892" on="0"/>
        <pt x="332" y="892" on="1"/>
        <pt x="356" y="892" on="1"/>
        <pt x="372" y="892" on="0"/>
        <pt x="372" y="876" on="1"/>
        <pt x="372" y="817" on="1"/>
        <pt x="372" y="801" on="0"/>
        <pt x="356" y="801" on="1"/>
        <pt x="332" y="801" on="1"/>
        <pt x="316" y="801" on="0"/>
      </contour>
      <contour>
        <pt x="68" y="368" on="1"/>
        <pt x="68" y="598" on="0"/>
        <pt x="138" y="676" on="1"/>
        <pt x="196" y="740" on="0"/>
        <pt x="311" y="740" on="1"/>
        <pt x="406" y="740" on="0"/>
        <pt x="535" y="716" on="1"/>
        <pt x="535" y="686" on="1"/>
        <pt x="519" y="687" on="0"/>
        <pt x="493" y="690" on="0"/>
        <pt x="458" y="692" on="0"/>
        <pt x="417" y="695" on="0"/>
        <pt x="396" y="696" on="1"/>
        <pt x="361" y="699" on="0"/>
        <pt x="237" y="699" on="0"/>
        <pt x="195" y="672" on="1"/>
        <pt x="109" y="615" on="0"/>
        <pt x="109" y="366" on="1"/>
        <pt x="109" y="35" on="0"/>
        <pt x="312" y="35" on="1"/>
        <pt x="405" y="35" on="0"/>
        <pt x="502" y="42" on="1"/>
        <pt x="535" y="45" on="1"/>
        <pt x="535" y="16" on="1"/>
        <pt x="417" y="-6" on="0"/>
        <pt x="311" y="-6" on="1"/>
        <pt x="68" y="-6" on="0"/>
      </contour>
    </TTGlyph>
    <TTGlyph name="D" xMin="98" yMin="0" xMax="617" yMax="732">
      <contour>
        <pt x="98" y="0" on="1"/>
        <pt x="98" y="732" on="1"/>
        <pt x="358" y="732" on="1"/>
        <pt x="423" y="732" on="0"/>
        <pt x="520" y="683" on="0"/>
        <pt x="574" y="609" on="0"/>
        <pt x="590" y="557" on="1"/>
        <pt x="617" y="473" on="0"/>
        <pt x="617" y="297" on="0"/>
        <pt x="588" y="174" on="0"/>
        <pt x="529" y="66" on="0"/>
        <pt x="425" y="0" on="0"/>
        <pt x="358" y="0" on="1"/>
      </contour>
      <contour>
        <pt x="139" y="42" on="1"/>
        <pt x="358" y="42" on="1"/>
        <pt x="431" y="42" on="0"/>
        <pt x="482" y="92" on="1"/>
        <pt x="576" y="184" on="0"/>
        <pt x="576" y="364" on="1"/>
        <pt x="576" y="691" on="0"/>
        <pt x="358" y="691" on="1"/>
        <pt x="139" y="691" on="1"/>
      </contour>
    </TTGlyph>
    <TTGlyph name="Dcaron" xMin="98" yMin="0" xMax="617" yMax="922">
      <contour>
        <pt x="204" y="922" on="1"/>
        <pt x="239" y="922" on="1"/>
        <pt x="341" y="822" on="1"/>
        <pt x="447" y="922" on="1"/>
        <pt x="483" y="922" on="1"/>
        <pt x="360" y="792" on="1"/>
        <pt x="322" y="792" on="1"/>
      </contour>
      <contour>
        <pt x="98" y="0" on="1"/>
        <pt x="98" y="732" on="1"/>
        <pt x="358" y="732" on="1"/>
        <pt x="423" y="732" on="0"/>
        <pt x="520" y="683" on="0"/>
        <pt x="574" y="609" on="0"/>
        <pt x="590" y="557" on="1"/>
        <pt x="617" y="473" on="0"/>
        <pt x="617" y="297" on="0"/>
        <pt x="588" y="174" on="0"/>
        <pt x="529" y="66" on="0"/>
        <pt x="425" y="0" on="0"/>
        <pt x="358" y="0" on="1"/>
      </contour>
      <contour>
        <pt x="139" y="42" on="1"/>
        <pt x="358" y="42" on="1"/>
        <pt x="431" y="42" on="0"/>
        <pt x="482" y="92" on="1"/>
        <pt x="576" y="184" on="0"/>
        <pt x="576" y="364" on="1"/>
        <pt x="576" y="691" on="0"/>
        <pt x="358" y="691" on="1"/>
        <pt x="139" y="691" on="1"/>
      </contour>
    </TTGlyph>
    <TTGlyph name="Dcroat" xMin="33" yMin="0" xMax="611" yMax="732">
      <contour>
        <pt x="33" y="359" on="1"/>
        <pt x="33" y="387" on="1"/>
        <pt x="98" y="387" on="1"/>
        <pt x="98" y="732" on="1"/>
        <pt x="352" y="732" on="1"/>
        <pt x="417" y="732" on="0"/>
        <pt x="514" y="683" on="0"/>
        <pt x="568" y="609" on="0"/>
        <pt x="584" y="557" on="1"/>
        <pt x="611" y="473" on="0"/>
        <pt x="611" y="297" on="0"/>
        <pt x="582" y="174" on="0"/>
        <pt x="523" y="66" on="0"/>
        <pt x="419" y="0" on="0"/>
        <pt x="352" y="0" on="1"/>
        <pt x="98" y="0" on="1"/>
        <pt x="98" y="359" on="1"/>
      </contour>
      <contour>
        <pt x="139" y="42" on="1"/>
        <pt x="352" y="42" on="1"/>
        <pt x="408" y="42" on="0"/>
        <pt x="494" y="100" on="0"/>
        <pt x="519" y="148" on="1"/>
        <pt x="569" y="242" on="0"/>
        <pt x="569" y="364" on="1"/>
        <pt x="569" y="529" on="0"/>
        <pt x="456" y="689" on="0"/>
        <pt x="352" y="689" on="1"/>
        <pt x="139" y="689" on="1"/>
        <pt x="139" y="387" on="1"/>
        <pt x="292" y="387" on="1"/>
        <pt x="292" y="359" on="1"/>
        <pt x="139" y="359" on="1"/>
      </contour>
    </TTGlyph>
    <TTGlyph name="E" xMin="98" yMin="-4" xMax="528" yMax="733">
      <contour>
        <pt x="98" y="123" on="1"/>
        <pt x="98" y="602" on="1"/>
        <pt x="98" y="671" on="0"/>
        <pt x="168" y="732" on="0"/>
        <pt x="218" y="732" on="1"/>
        <pt x="221" y="732" on="0"/>
        <pt x="224" y="732" on="1"/>
        <pt x="528" y="720" on="1"/>
        <pt x="528" y="691" on="1"/>
        <pt x="224" y="691" on="1"/>
        <pt x="139" y="691" on="0"/>
        <pt x="139" y="602" on="1"/>
        <pt x="139" y="384" on="1"/>
        <pt x="488" y="377" on="1"/>
        <pt x="488" y="348" on="1"/>
        <pt x="139" y="341" on="1"/>
        <pt x="139" y="123" on="1"/>
        <pt x="139" y="66" on="0"/>
        <pt x="170" y="50" on="1"/>
        <pt x="195" y="38" on="0"/>
        <pt x="234" y="38" on="1"/>
        <pt x="528" y="38" on="1"/>
        <pt x="528" y="9" on="1"/>
        <pt x="234" y="-3" on="1"/>
        <pt x="228" y="-3" on="0"/>
        <pt x="202" y="-3" on="0"/>
        <pt x="163" y="4" on="0"/>
        <pt x="142" y="16" on="1"/>
        <pt x="98" y="41" on="0"/>
      </contour>
    </TTGlyph>
    <TTGlyph name="Eacute" xMin="98" yMin="-4" xMax="528" yMax="925">
      <contour>
        <pt x="317" y="792" on="1"/>
        <pt x="433" y="925" on="1"/>
        <pt x="482" y="925" on="1"/>
        <pt x="349" y="792" on="1"/>
      </contour>
      <contour>
        <pt x="98" y="123" on="1"/>
        <pt x="98" y="602" on="1"/>
        <pt x="98" y="671" on="0"/>
        <pt x="168" y="732" on="0"/>
        <pt x="218" y="732" on="1"/>
        <pt x="221" y="732" on="0"/>
        <pt x="224" y="732" on="1"/>
        <pt x="528" y="720" on="1"/>
        <pt x="528" y="691" on="1"/>
        <pt x="224" y="691" on="1"/>
        <pt x="139" y="691" on="0"/>
        <pt x="139" y="602" on="1"/>
        <pt x="139" y="384" on="1"/>
        <pt x="488" y="377" on="1"/>
        <pt x="488" y="348" on="1"/>
        <pt x="139" y="341" on="1"/>
        <pt x="139" y="123" on="1"/>
        <pt x="139" y="66" on="0"/>
        <pt x="170" y="50" on="1"/>
        <pt x="195" y="38" on="0"/>
        <pt x="234" y="38" on="1"/>
        <pt x="528" y="38" on="1"/>
        <pt x="528" y="9" on="1"/>
        <pt x="234" y="-3" on="1"/>
        <pt x="228" y="-3" on="0"/>
        <pt x="202" y="-3" on="0"/>
        <pt x="163" y="4" on="0"/>
        <pt x="142" y="16" on="1"/>
        <pt x="98" y="41" on="0"/>
      </contour>
    </TTGlyph>
    <TTGlyph name="Ecaron" xMin="98" yMin="-4" xMax="528" yMax="922">
      <contour>
        <pt x="193" y="922" on="1"/>
        <pt x="228" y="922" on="1"/>
        <pt x="330" y="822" on="1"/>
        <pt x="436" y="922" on="1"/>
        <pt x="472" y="922" on="1"/>
        <pt x="349" y="792" on="1"/>
        <pt x="311" y="792" on="1"/>
      </contour>
      <contour>
        <pt x="98" y="123" on="1"/>
        <pt x="98" y="602" on="1"/>
        <pt x="98" y="671" on="0"/>
        <pt x="168" y="732" on="0"/>
        <pt x="218" y="732" on="1"/>
        <pt x="221" y="732" on="0"/>
        <pt x="224" y="732" on="1"/>
        <pt x="528" y="720" on="1"/>
        <pt x="528" y="691" on="1"/>
        <pt x="224" y="691" on="1"/>
        <pt x="139" y="691" on="0"/>
        <pt x="139" y="602" on="1"/>
        <pt x="139" y="384" on="1"/>
        <pt x="488" y="377" on="1"/>
        <pt x="488" y="348" on="1"/>
        <pt x="139" y="341" on="1"/>
        <pt x="139" y="123" on="1"/>
        <pt x="139" y="66" on="0"/>
        <pt x="170" y="50" on="1"/>
        <pt x="195" y="38" on="0"/>
        <pt x="234" y="38" on="1"/>
        <pt x="528" y="38" on="1"/>
        <pt x="528" y="9" on="1"/>
        <pt x="234" y="-3" on="1"/>
        <pt x="228" y="-3" on="0"/>
        <pt x="202" y="-3" on="0"/>
        <pt x="163" y="4" on="0"/>
        <pt x="142" y="16" on="1"/>
        <pt x="98" y="41" on="0"/>
      </contour>
    </TTGlyph>
    <TTGlyph name="Ecircumflex" xMin="98" yMin="-4" xMax="528" yMax="927">
      <contour>
        <pt x="190" y="797" on="1"/>
        <pt x="317" y="927" on="1"/>
        <pt x="354" y="927" on="1"/>
        <pt x="469" y="797" on="1"/>
        <pt x="433" y="797" on="1"/>
        <pt x="335" y="897" on="1"/>
        <pt x="226" y="797" on="1"/>
      </contour>
      <contour>
        <pt x="98" y="123" on="1"/>
        <pt x="98" y="602" on="1"/>
        <pt x="98" y="671" on="0"/>
        <pt x="168" y="732" on="0"/>
        <pt x="218" y="732" on="1"/>
        <pt x="221" y="732" on="0"/>
        <pt x="224" y="732" on="1"/>
        <pt x="528" y="720" on="1"/>
        <pt x="528" y="691" on="1"/>
        <pt x="224" y="691" on="1"/>
        <pt x="139" y="691" on="0"/>
        <pt x="139" y="602" on="1"/>
        <pt x="139" y="384" on="1"/>
        <pt x="488" y="377" on="1"/>
        <pt x="488" y="348" on="1"/>
        <pt x="139" y="341" on="1"/>
        <pt x="139" y="123" on="1"/>
        <pt x="139" y="66" on="0"/>
        <pt x="170" y="50" on="1"/>
        <pt x="195" y="38" on="0"/>
        <pt x="234" y="38" on="1"/>
        <pt x="528" y="38" on="1"/>
        <pt x="528" y="9" on="1"/>
        <pt x="234" y="-3" on="1"/>
        <pt x="228" y="-3" on="0"/>
        <pt x="202" y="-3" on="0"/>
        <pt x="163" y="4" on="0"/>
        <pt x="142" y="16" on="1"/>
        <pt x="98" y="41" on="0"/>
      </contour>
    </TTGlyph>
    <TTGlyph name="Edieresis" xMin="98" yMin="-4" xMax="528" yMax="871">
      <contour>
        <pt x="166" y="831" on="0"/>
        <pt x="166" y="855" on="0"/>
        <pt x="182" y="871" on="0"/>
        <pt x="206" y="871" on="0"/>
        <pt x="223" y="855" on="0"/>
        <pt x="223" y="831" on="0"/>
        <pt x="206" y="814" on="0"/>
        <pt x="182" y="814" on="0"/>
      </contour>
      <contour>
        <pt x="420" y="831" on="0"/>
        <pt x="420" y="855" on="0"/>
        <pt x="437" y="871" on="0"/>
        <pt x="461" y="871" on="0"/>
        <pt x="478" y="855" on="0"/>
        <pt x="478" y="831" on="0"/>
        <pt x="461" y="814" on="0"/>
        <pt x="437" y="814" on="0"/>
      </contour>
      <contour>
        <pt x="98" y="123" on="1"/>
        <pt x="98" y="602" on="1"/>
        <pt x="98" y="671" on="0"/>
        <pt x="168" y="732" on="0"/>
        <pt x="218" y="732" on="1"/>
        <pt x="221" y="732" on="0"/>
        <pt x="224" y="732" on="1"/>
        <pt x="528" y="720" on="1"/>
        <pt x="528" y="691" on="1"/>
        <pt x="224" y="691" on="1"/>
        <pt x="139" y="691" on="0"/>
        <pt x="139" y="602" on="1"/>
        <pt x="139" y="384" on="1"/>
        <pt x="488" y="377" on="1"/>
        <pt x="488" y="348" on="1"/>
        <pt x="139" y="341" on="1"/>
        <pt x="139" y="123" on="1"/>
        <pt x="139" y="66" on="0"/>
        <pt x="170" y="50" on="1"/>
        <pt x="195" y="38" on="0"/>
        <pt x="234" y="38" on="1"/>
        <pt x="528" y="38" on="1"/>
        <pt x="528" y="9" on="1"/>
        <pt x="234" y="-3" on="1"/>
        <pt x="228" y="-3" on="0"/>
        <pt x="202" y="-3" on="0"/>
        <pt x="163" y="4" on="0"/>
        <pt x="142" y="16" on="1"/>
        <pt x="98" y="41" on="0"/>
      </contour>
    </TTGlyph>
    <TTGlyph name="Edotaccent" xMin="98" yMin="-4" xMax="528" yMax="887">
      <contour>
        <pt x="302" y="812" on="1"/>
        <pt x="302" y="871" on="1"/>
        <pt x="302" y="887" on="0"/>
        <pt x="318" y="887" on="1"/>
        <pt x="342" y="887" on="1"/>
        <pt x="358" y="887" on="0"/>
        <pt x="358" y="871" on="1"/>
        <pt x="358" y="812" on="1"/>
        <pt x="358" y="796" on="0"/>
        <pt x="342" y="796" on="1"/>
        <pt x="318" y="796" on="1"/>
        <pt x="302" y="796" on="0"/>
      </contour>
      <contour>
        <pt x="98" y="123" on="1"/>
        <pt x="98" y="602" on="1"/>
        <pt x="98" y="671" on="0"/>
        <pt x="168" y="732" on="0"/>
        <pt x="218" y="732" on="1"/>
        <pt x="221" y="732" on="0"/>
        <pt x="224" y="732" on="1"/>
        <pt x="528" y="720" on="1"/>
        <pt x="528" y="691" on="1"/>
        <pt x="224" y="691" on="1"/>
        <pt x="139" y="691" on="0"/>
        <pt x="139" y="602" on="1"/>
        <pt x="139" y="384" on="1"/>
        <pt x="488" y="377" on="1"/>
        <pt x="488" y="348" on="1"/>
        <pt x="139" y="341" on="1"/>
        <pt x="139" y="123" on="1"/>
        <pt x="139" y="66" on="0"/>
        <pt x="170" y="50" on="1"/>
        <pt x="195" y="38" on="0"/>
        <pt x="234" y="38" on="1"/>
        <pt x="528" y="38" on="1"/>
        <pt x="528" y="9" on="1"/>
        <pt x="234" y="-3" on="1"/>
        <pt x="228" y="-3" on="0"/>
        <pt x="202" y="-3" on="0"/>
        <pt x="163" y="4" on="0"/>
        <pt x="142" y="16" on="1"/>
        <pt x="98" y="41" on="0"/>
      </contour>
    </TTGlyph>
    <TTGlyph name="Egrave" xMin="98" yMin="-4" xMax="528" yMax="925">
      <contour>
        <pt x="192" y="925" on="1"/>
        <pt x="241" y="925" on="1"/>
        <pt x="357" y="792" on="1"/>
        <pt x="325" y="792" on="1"/>
      </contour>
      <contour>
        <pt x="98" y="123" on="1"/>
        <pt x="98" y="602" on="1"/>
        <pt x="98" y="671" on="0"/>
        <pt x="168" y="732" on="0"/>
        <pt x="218" y="732" on="1"/>
        <pt x="221" y="732" on="0"/>
        <pt x="224" y="732" on="1"/>
        <pt x="528" y="720" on="1"/>
        <pt x="528" y="691" on="1"/>
        <pt x="224" y="691" on="1"/>
        <pt x="139" y="691" on="0"/>
        <pt x="139" y="602" on="1"/>
        <pt x="139" y="384" on="1"/>
        <pt x="488" y="377" on="1"/>
        <pt x="488" y="348" on="1"/>
        <pt x="139" y="341" on="1"/>
        <pt x="139" y="123" on="1"/>
        <pt x="139" y="66" on="0"/>
        <pt x="170" y="50" on="1"/>
        <pt x="195" y="38" on="0"/>
        <pt x="234" y="38" on="1"/>
        <pt x="528" y="38" on="1"/>
        <pt x="528" y="9" on="1"/>
        <pt x="234" y="-3" on="1"/>
        <pt x="228" y="-3" on="0"/>
        <pt x="202" y="-3" on="0"/>
        <pt x="163" y="4" on="0"/>
        <pt x="142" y="16" on="1"/>
        <pt x="98" y="41" on="0"/>
      </contour>
    </TTGlyph>
    <TTGlyph name="Emacron" xMin="98" yMin="-4" xMax="528" yMax="826">
      <contour>
        <pt x="196" y="795" on="1"/>
        <pt x="196" y="826" on="1"/>
        <pt x="461" y="826" on="1"/>
        <pt x="461" y="795" on="1"/>
      </contour>
      <contour>
        <pt x="98" y="123" on="1"/>
        <pt x="98" y="602" on="1"/>
        <pt x="98" y="671" on="0"/>
        <pt x="168" y="732" on="0"/>
        <pt x="218" y="732" on="1"/>
        <pt x="221" y="732" on="0"/>
        <pt x="224" y="732" on="1"/>
        <pt x="528" y="720" on="1"/>
        <pt x="528" y="691" on="1"/>
        <pt x="224" y="691" on="1"/>
        <pt x="139" y="691" on="0"/>
        <pt x="139" y="602" on="1"/>
        <pt x="139" y="384" on="1"/>
        <pt x="488" y="377" on="1"/>
        <pt x="488" y="348" on="1"/>
        <pt x="139" y="341" on="1"/>
        <pt x="139" y="123" on="1"/>
        <pt x="139" y="66" on="0"/>
        <pt x="170" y="50" on="1"/>
        <pt x="195" y="38" on="0"/>
        <pt x="234" y="38" on="1"/>
        <pt x="528" y="38" on="1"/>
        <pt x="528" y="9" on="1"/>
        <pt x="234" y="-3" on="1"/>
        <pt x="228" y="-3" on="0"/>
        <pt x="202" y="-3" on="0"/>
        <pt x="163" y="4" on="0"/>
        <pt x="142" y="16" on="1"/>
        <pt x="98" y="41" on="0"/>
      </contour>
    </TTGlyph>
    <TTGlyph name="Eng" xMin="98" yMin="-257" xMax="604" yMax="732">
      <contour>
        <pt x="98" y="0" on="1"/>
        <pt x="98" y="732" on="1"/>
        <pt x="141" y="732" on="1"/>
        <pt x="563" y="82" on="1"/>
        <pt x="563" y="732" on="1"/>
        <pt x="604" y="732" on="1"/>
        <pt x="604" y="-84" on="1"/>
        <pt x="604" y="-191" on="0"/>
        <pt x="521" y="-257" on="0"/>
        <pt x="423" y="-257" on="1"/>
        <pt x="423" y="-226" on="1"/>
        <pt x="448" y="-222" on="1"/>
        <pt x="465" y="-220" on="0"/>
        <pt x="478" y="-217" on="0"/>
        <pt x="507" y="-211" on="0"/>
        <pt x="519" y="-202" on="0"/>
        <pt x="540" y="-187" on="0"/>
        <pt x="548" y="-167" on="0"/>
        <pt x="554" y="-154" on="1"/>
        <pt x="563" y="-130" on="0"/>
        <pt x="563" y="-80" on="1"/>
        <pt x="563" y="0" on="1"/>
        <pt x="141" y="653" on="1"/>
        <pt x="140" y="0" on="1"/>
      </contour>
    </TTGlyph>
    <TTGlyph name="Eogonek" xMin="98" yMin="-173" xMax="550" yMax="733">
      <contour>
        <pt x="528" y="10" on="1"/>
        <pt x="457" y="-27" on="0"/>
        <pt x="457" y="-82" on="1"/>
        <pt x="457" y="-98" on="0"/>
        <pt x="472" y="-114" on="1"/>
        <pt x="496" y="-141" on="0"/>
        <pt x="550" y="-141" on="1"/>
        <pt x="550" y="-171" on="1"/>
        <pt x="540" y="-172" on="0"/>
        <pt x="500" y="-172" on="0"/>
        <pt x="441" y="-140" on="0"/>
        <pt x="429" y="-111" on="1"/>
        <pt x="424" y="-100" on="0"/>
        <pt x="424" y="-68" on="0"/>
        <pt x="436" y="-48" on="1"/>
        <pt x="454" y="-13" on="0"/>
        <pt x="507" y="10" on="1"/>
      </contour>
      <contour>
        <pt x="98" y="123" on="1"/>
        <pt x="98" y="602" on="1"/>
        <pt x="98" y="671" on="0"/>
        <pt x="168" y="732" on="0"/>
        <pt x="218" y="732" on="1"/>
        <pt x="221" y="732" on="0"/>
        <pt x="224" y="732" on="1"/>
        <pt x="528" y="720" on="1"/>
        <pt x="528" y="691" on="1"/>
        <pt x="224" y="691" on="1"/>
        <pt x="139" y="691" on="0"/>
        <pt x="139" y="602" on="1"/>
        <pt x="139" y="384" on="1"/>
        <pt x="488" y="377" on="1"/>
        <pt x="488" y="348" on="1"/>
        <pt x="139" y="341" on="1"/>
        <pt x="139" y="123" on="1"/>
        <pt x="139" y="66" on="0"/>
        <pt x="170" y="50" on="1"/>
        <pt x="195" y="38" on="0"/>
        <pt x="234" y="38" on="1"/>
        <pt x="528" y="38" on="1"/>
        <pt x="528" y="9" on="1"/>
        <pt x="234" y="-3" on="1"/>
        <pt x="228" y="-3" on="0"/>
        <pt x="202" y="-3" on="0"/>
        <pt x="163" y="4" on="0"/>
        <pt x="142" y="16" on="1"/>
        <pt x="98" y="41" on="0"/>
      </contour>
    </TTGlyph>
    <TTGlyph name="Eth" xMin="33" yMin="0" xMax="611" yMax="732">
      <contour>
        <pt x="33" y="359" on="1"/>
        <pt x="33" y="387" on="1"/>
        <pt x="98" y="387" on="1"/>
        <pt x="98" y="732" on="1"/>
        <pt x="352" y="732" on="1"/>
        <pt x="417" y="732" on="0"/>
        <pt x="514" y="683" on="0"/>
        <pt x="568" y="609" on="0"/>
        <pt x="584" y="557" on="1"/>
        <pt x="611" y="473" on="0"/>
        <pt x="611" y="297" on="0"/>
        <pt x="582" y="174" on="0"/>
        <pt x="523" y="66" on="0"/>
        <pt x="419" y="0" on="0"/>
        <pt x="352" y="0" on="1"/>
        <pt x="98" y="0" on="1"/>
        <pt x="98" y="359" on="1"/>
      </contour>
      <contour>
        <pt x="139" y="42" on="1"/>
        <pt x="352" y="42" on="1"/>
        <pt x="408" y="42" on="0"/>
        <pt x="494" y="100" on="0"/>
        <pt x="519" y="148" on="1"/>
        <pt x="569" y="242" on="0"/>
        <pt x="569" y="364" on="1"/>
        <pt x="569" y="529" on="0"/>
        <pt x="456" y="689" on="0"/>
        <pt x="352" y="689" on="1"/>
        <pt x="139" y="689" on="1"/>
        <pt x="139" y="387" on="1"/>
        <pt x="292" y="387" on="1"/>
        <pt x="292" y="359" on="1"/>
        <pt x="139" y="359" on="1"/>
      </contour>
    </TTGlyph>
    <TTGlyph name="Euro" xMin="25" yMin="-6" xMax="576" yMax="740">
      <contour>
        <pt x="222" y="717" on="0"/>
        <pt x="299" y="740" on="0"/>
        <pt x="448" y="740" on="0"/>
        <pt x="572" y="717" on="1"/>
        <pt x="572" y="687" on="1"/>
        <pt x="556" y="688" on="0"/>
        <pt x="530" y="690" on="1"/>
        <pt x="442" y="699" on="0"/>
        <pt x="296" y="699" on="0"/>
        <pt x="224" y="672" on="0"/>
        <pt x="183" y="631" on="0"/>
        <pt x="172" y="598" on="1"/>
        <pt x="154" y="547" on="0"/>
        <pt x="154" y="457" on="1"/>
        <pt x="421" y="452" on="1"/>
        <pt x="421" y="428" on="1"/>
        <pt x="154" y="423" on="1"/>
        <pt x="154" y="296" on="1"/>
        <pt x="421" y="291" on="1"/>
        <pt x="421" y="266" on="1"/>
        <pt x="404" y="266" on="0"/>
        <pt x="348" y="265" on="0"/>
        <pt x="230" y="263" on="0"/>
        <pt x="153" y="262" on="0"/>
        <pt x="154" y="257" on="0"/>
        <pt x="154" y="254" on="1"/>
        <pt x="154" y="157" on="0"/>
        <pt x="257" y="36" on="0"/>
        <pt x="347" y="35" on="1"/>
        <pt x="357" y="35" on="0"/>
        <pt x="382" y="35" on="1"/>
        <pt x="455" y="35" on="0"/>
        <pt x="542" y="45" on="1"/>
        <pt x="576" y="49" on="1"/>
        <pt x="576" y="20" on="1"/>
        <pt x="471" y="-6" on="0"/>
        <pt x="347" y="-6" on="1"/>
        <pt x="285" y="-6" on="0"/>
        <pt x="198" y="41" on="0"/>
        <pt x="148" y="97" on="0"/>
        <pt x="113" y="197" on="0"/>
        <pt x="113" y="261" on="1"/>
        <pt x="25" y="266" on="1"/>
        <pt x="25" y="291" on="1"/>
        <pt x="113" y="296" on="1"/>
        <pt x="113" y="423" on="1"/>
        <pt x="25" y="428" on="1"/>
        <pt x="25" y="451" on="1"/>
        <pt x="113" y="457" on="1"/>
        <pt x="113" y="460" on="0"/>
        <pt x="113" y="490" on="0"/>
        <pt x="114" y="522" on="0"/>
        <pt x="123" y="585" on="0"/>
        <pt x="139" y="629" on="0"/>
        <pt x="173" y="683" on="0"/>
      </contour>
    </TTGlyph>
    <TTGlyph name="Euro.smcp" xMin="20" yMin="-5" xMax="472" yMax="577">
      <contour>
        <pt x="281" y="577" on="1"/>
        <pt x="343" y="577" on="0"/>
        <pt x="469" y="554" on="1"/>
        <pt x="469" y="525" on="1"/>
        <pt x="345" y="536" on="0"/>
        <pt x="233" y="536" on="0"/>
        <pt x="169" y="505" on="0"/>
        <pt x="154" y="476" on="1"/>
        <pt x="129" y="426" on="0"/>
        <pt x="129" y="355" on="1"/>
        <pt x="315" y="349" on="1"/>
        <pt x="315" y="326" on="1"/>
        <pt x="129" y="321" on="1"/>
        <pt x="129" y="239" on="1"/>
        <pt x="315" y="234" on="1"/>
        <pt x="315" y="210" on="1"/>
        <pt x="303" y="210" on="0"/>
        <pt x="264" y="209" on="0"/>
        <pt x="223" y="208" on="1"/>
        <pt x="127" y="206" on="0"/>
        <pt x="129" y="204" on="1"/>
        <pt x="129" y="124" on="0"/>
        <pt x="211" y="37" on="0"/>
        <pt x="281" y="37" on="1"/>
        <pt x="360" y="37" on="0"/>
        <pt x="442" y="48" on="1"/>
        <pt x="472" y="52" on="1"/>
        <pt x="472" y="23" on="1"/>
        <pt x="374" y="-5" on="0"/>
        <pt x="281" y="-5" on="1"/>
        <pt x="211" y="-5" on="0"/>
        <pt x="152" y="40" on="1"/>
        <pt x="123" y="62" on="0"/>
        <pt x="88" y="147" on="0"/>
        <pt x="88" y="204" on="1"/>
        <pt x="20" y="210" on="1"/>
        <pt x="20" y="233" on="1"/>
        <pt x="88" y="239" on="1"/>
        <pt x="88" y="321" on="1"/>
        <pt x="20" y="327" on="1"/>
        <pt x="20" y="348" on="1"/>
        <pt x="88" y="355" on="1"/>
        <pt x="88" y="577" on="0"/>
      </contour>
    </TTGlyph>
    <TTGlyph name="F" xMin="98" yMin="0" xMax="528" yMax="733">
      <contour>
        <pt x="98" y="0" on="1"/>
        <pt x="98" y="602" on="1"/>
        <pt x="98" y="671" on="0"/>
        <pt x="168" y="732" on="0"/>
        <pt x="218" y="732" on="1"/>
        <pt x="221" y="732" on="0"/>
        <pt x="224" y="732" on="1"/>
        <pt x="528" y="720" on="1"/>
        <pt x="528" y="691" on="1"/>
        <pt x="224" y="691" on="1"/>
        <pt x="139" y="691" on="0"/>
        <pt x="139" y="602" on="1"/>
        <pt x="139" y="384" on="1"/>
        <pt x="488" y="377" on="1"/>
        <pt x="488" y="348" on="1"/>
        <pt x="139" y="341" on="1"/>
        <pt x="139" y="0" on="1"/>
      </contour>
    </TTGlyph>
    <TTGlyph name="G" xMin="68" yMin="-6" xMax="558" yMax="740">
      <contour>
        <pt x="75" y="201" on="0"/>
        <pt x="68" y="299" on="0"/>
        <pt x="68" y="438" on="0"/>
        <pt x="76" y="535" on="0"/>
        <pt x="103" y="637" on="0"/>
        <pt x="150" y="700" on="0"/>
        <pt x="233" y="740" on="0"/>
        <pt x="330" y="740" on="0"/>
        <pt x="489" y="723" on="0"/>
        <pt x="542" y="713" on="1"/>
        <pt x="542" y="680" on="1"/>
        <pt x="541" y="680" on="0"/>
        <pt x="506" y="684" on="0"/>
        <pt x="451" y="690" on="0"/>
        <pt x="420" y="692" on="1"/>
        <pt x="338" y="699" on="0"/>
        <pt x="245" y="699" on="0"/>
        <pt x="180" y="670" on="0"/>
        <pt x="140" y="618" on="0"/>
        <pt x="128" y="576" on="1"/>
        <pt x="109" y="503" on="0"/>
        <pt x="109" y="368" on="1"/>
        <pt x="109" y="184" on="0"/>
        <pt x="188" y="37" on="0"/>
        <pt x="296" y="36" on="1"/>
        <pt x="330" y="36" on="0"/>
        <pt x="441" y="60" on="0"/>
        <pt x="479" y="72" on="1"/>
        <pt x="517" y="84" on="1"/>
        <pt x="517" y="347" on="1"/>
        <pt x="319" y="347" on="1"/>
        <pt x="319" y="373" on="1"/>
        <pt x="377" y="389" on="0"/>
        <pt x="490" y="389" on="1"/>
        <pt x="522" y="389" on="0"/>
        <pt x="558" y="386" on="1"/>
        <pt x="558" y="0" on="1"/>
        <pt x="530" y="0" on="1"/>
        <pt x="519" y="52" on="1"/>
        <pt x="485" y="33" on="0"/>
        <pt x="356" y="-5" on="0"/>
        <pt x="296" y="-5" on="1"/>
        <pt x="293" y="-5" on="0"/>
        <pt x="290" y="-5" on="1"/>
        <pt x="234" y="-5" on="0"/>
        <pt x="150" y="34" on="0"/>
        <pt x="102" y="96" on="0"/>
      </contour>
    </TTGlyph>
    <TTGlyph name="Gbreve" xMin="68" yMin="-6" xMax="558" yMax="914">
      <contour>
        <pt x="225" y="914" on="1"/>
        <pt x="250" y="914" on="1"/>
        <pt x="250" y="876" on="0"/>
        <pt x="302" y="825" on="0"/>
        <pt x="336" y="825" on="1"/>
        <pt x="378" y="825" on="0"/>
        <pt x="430" y="875" on="0"/>
        <pt x="430" y="914" on="1"/>
        <pt x="455" y="914" on="1"/>
        <pt x="455" y="861" on="0"/>
        <pt x="384" y="800" on="0"/>
        <pt x="295" y="800" on="0"/>
        <pt x="225" y="863" on="0"/>
      </contour>
      <contour>
        <pt x="75" y="201" on="0"/>
        <pt x="68" y="299" on="0"/>
        <pt x="68" y="438" on="0"/>
        <pt x="76" y="535" on="0"/>
        <pt x="103" y="637" on="0"/>
        <pt x="150" y="700" on="0"/>
        <pt x="233" y="740" on="0"/>
        <pt x="330" y="740" on="0"/>
        <pt x="489" y="723" on="0"/>
        <pt x="542" y="713" on="1"/>
        <pt x="542" y="680" on="1"/>
        <pt x="541" y="680" on="0"/>
        <pt x="506" y="684" on="0"/>
        <pt x="451" y="690" on="0"/>
        <pt x="420" y="692" on="1"/>
        <pt x="338" y="699" on="0"/>
        <pt x="245" y="699" on="0"/>
        <pt x="180" y="670" on="0"/>
        <pt x="140" y="618" on="0"/>
        <pt x="128" y="576" on="1"/>
        <pt x="109" y="503" on="0"/>
        <pt x="109" y="368" on="1"/>
        <pt x="109" y="184" on="0"/>
        <pt x="188" y="37" on="0"/>
        <pt x="296" y="36" on="1"/>
        <pt x="330" y="36" on="0"/>
        <pt x="441" y="60" on="0"/>
        <pt x="479" y="72" on="1"/>
        <pt x="517" y="84" on="1"/>
        <pt x="517" y="347" on="1"/>
        <pt x="319" y="347" on="1"/>
        <pt x="319" y="373" on="1"/>
        <pt x="377" y="389" on="0"/>
        <pt x="490" y="389" on="1"/>
        <pt x="522" y="389" on="0"/>
        <pt x="558" y="386" on="1"/>
        <pt x="558" y="0" on="1"/>
        <pt x="530" y="0" on="1"/>
        <pt x="519" y="52" on="1"/>
        <pt x="485" y="33" on="0"/>
        <pt x="356" y="-5" on="0"/>
        <pt x="296" y="-5" on="1"/>
        <pt x="293" y="-5" on="0"/>
        <pt x="290" y="-5" on="1"/>
        <pt x="234" y="-5" on="0"/>
        <pt x="150" y="34" on="0"/>
        <pt x="102" y="96" on="0"/>
      </contour>
    </TTGlyph>
    <TTGlyph name="Gcircumflex" xMin="68" yMin="-6" xMax="558" yMax="930">
      <contour>
        <pt x="191" y="800" on="1"/>
        <pt x="318" y="930" on="1"/>
        <pt x="355" y="930" on="1"/>
        <pt x="470" y="800" on="1"/>
        <pt x="434" y="800" on="1"/>
        <pt x="336" y="900" on="1"/>
        <pt x="227" y="800" on="1"/>
      </contour>
      <contour>
        <pt x="75" y="201" on="0"/>
        <pt x="68" y="299" on="0"/>
        <pt x="68" y="438" on="0"/>
        <pt x="76" y="535" on="0"/>
        <pt x="103" y="637" on="0"/>
        <pt x="150" y="700" on="0"/>
        <pt x="233" y="740" on="0"/>
        <pt x="330" y="740" on="0"/>
        <pt x="489" y="723" on="0"/>
        <pt x="542" y="713" on="1"/>
        <pt x="542" y="680" on="1"/>
        <pt x="541" y="680" on="0"/>
        <pt x="506" y="684" on="0"/>
        <pt x="451" y="690" on="0"/>
        <pt x="420" y="692" on="1"/>
        <pt x="338" y="699" on="0"/>
        <pt x="245" y="699" on="0"/>
        <pt x="180" y="670" on="0"/>
        <pt x="140" y="618" on="0"/>
        <pt x="128" y="576" on="1"/>
        <pt x="109" y="503" on="0"/>
        <pt x="109" y="368" on="1"/>
        <pt x="109" y="184" on="0"/>
        <pt x="188" y="37" on="0"/>
        <pt x="296" y="36" on="1"/>
        <pt x="330" y="36" on="0"/>
        <pt x="441" y="60" on="0"/>
        <pt x="479" y="72" on="1"/>
        <pt x="517" y="84" on="1"/>
        <pt x="517" y="347" on="1"/>
        <pt x="319" y="347" on="1"/>
        <pt x="319" y="373" on="1"/>
        <pt x="377" y="389" on="0"/>
        <pt x="490" y="389" on="1"/>
        <pt x="522" y="389" on="0"/>
        <pt x="558" y="386" on="1"/>
        <pt x="558" y="0" on="1"/>
        <pt x="530" y="0" on="1"/>
        <pt x="519" y="52" on="1"/>
        <pt x="485" y="33" on="0"/>
        <pt x="356" y="-5" on="0"/>
        <pt x="296" y="-5" on="1"/>
        <pt x="293" y="-5" on="0"/>
        <pt x="290" y="-5" on="1"/>
        <pt x="234" y="-5" on="0"/>
        <pt x="150" y="34" on="0"/>
        <pt x="102" y="96" on="0"/>
      </contour>
    </TTGlyph>
    <TTGlyph name="Gcommaaccent" xMin="68" yMin="-219" xMax="558" yMax="740">
      <contour>
        <pt x="302" y="-135" on="1"/>
        <pt x="302" y="-82" on="1"/>
        <pt x="302" y="-65" on="0"/>
        <pt x="317" y="-65" on="1"/>
        <pt x="338" y="-65" on="1"/>
        <pt x="353" y="-65" on="0"/>
        <pt x="353" y="-82" on="1"/>
        <pt x="353" y="-175" on="1"/>
        <pt x="353" y="-199" on="0"/>
        <pt x="330" y="-219" on="0"/>
        <pt x="319" y="-219" on="1"/>
        <pt x="316" y="-219" on="1"/>
        <pt x="304" y="-218" on="1"/>
        <pt x="304" y="-204" on="1"/>
        <pt x="324" y="-204" on="0"/>
        <pt x="324" y="-186" on="1"/>
        <pt x="324" y="-150" on="1"/>
        <pt x="317" y="-150" on="1"/>
        <pt x="302" y="-150" on="0"/>
      </contour>
      <contour>
        <pt x="75" y="201" on="0"/>
        <pt x="68" y="299" on="0"/>
        <pt x="68" y="438" on="0"/>
        <pt x="76" y="535" on="0"/>
        <pt x="103" y="637" on="0"/>
        <pt x="150" y="700" on="0"/>
        <pt x="233" y="740" on="0"/>
        <pt x="330" y="740" on="0"/>
        <pt x="489" y="723" on="0"/>
        <pt x="542" y="713" on="1"/>
        <pt x="542" y="680" on="1"/>
        <pt x="541" y="680" on="0"/>
        <pt x="506" y="684" on="0"/>
        <pt x="451" y="690" on="0"/>
        <pt x="420" y="692" on="1"/>
        <pt x="338" y="699" on="0"/>
        <pt x="245" y="699" on="0"/>
        <pt x="180" y="670" on="0"/>
        <pt x="140" y="618" on="0"/>
        <pt x="128" y="576" on="1"/>
        <pt x="109" y="503" on="0"/>
        <pt x="109" y="368" on="1"/>
        <pt x="109" y="184" on="0"/>
        <pt x="188" y="37" on="0"/>
        <pt x="296" y="36" on="1"/>
        <pt x="330" y="36" on="0"/>
        <pt x="441" y="60" on="0"/>
        <pt x="479" y="72" on="1"/>
        <pt x="517" y="84" on="1"/>
        <pt x="517" y="347" on="1"/>
        <pt x="319" y="347" on="1"/>
        <pt x="319" y="373" on="1"/>
        <pt x="377" y="389" on="0"/>
        <pt x="490" y="389" on="1"/>
        <pt x="522" y="389" on="0"/>
        <pt x="558" y="386" on="1"/>
        <pt x="558" y="0" on="1"/>
        <pt x="530" y="0" on="1"/>
        <pt x="519" y="52" on="1"/>
        <pt x="485" y="33" on="0"/>
        <pt x="356" y="-5" on="0"/>
        <pt x="296" y="-5" on="1"/>
        <pt x="293" y="-5" on="0"/>
        <pt x="290" y="-5" on="1"/>
        <pt x="234" y="-5" on="0"/>
        <pt x="150" y="34" on="0"/>
        <pt x="102" y="96" on="0"/>
      </contour>
    </TTGlyph>
    <TTGlyph name="Gdotaccent" xMin="68" yMin="-6" xMax="558" yMax="891">
      <contour>
        <pt x="309" y="816" on="1"/>
        <pt x="309" y="875" on="1"/>
        <pt x="309" y="891" on="0"/>
        <pt x="325" y="891" on="1"/>
        <pt x="349" y="891" on="1"/>
        <pt x="365" y="891" on="0"/>
        <pt x="365" y="875" on="1"/>
        <pt x="365" y="816" on="1"/>
        <pt x="365" y="800" on="0"/>
        <pt x="349" y="800" on="1"/>
        <pt x="325" y="800" on="1"/>
        <pt x="309" y="800" on="0"/>
      </contour>
      <contour>
        <pt x="75" y="201" on="0"/>
        <pt x="68" y="299" on="0"/>
        <pt x="68" y="438" on="0"/>
        <pt x="76" y="535" on="0"/>
        <pt x="103" y="637" on="0"/>
        <pt x="150" y="700" on="0"/>
        <pt x="233" y="740" on="0"/>
        <pt x="330" y="740" on="0"/>
        <pt x="489" y="723" on="0"/>
        <pt x="542" y="713" on="1"/>
        <pt x="542" y="680" on="1"/>
        <pt x="541" y="680" on="0"/>
        <pt x="506" y="684" on="0"/>
        <pt x="451" y="690" on="0"/>
        <pt x="420" y="692" on="1"/>
        <pt x="338" y="699" on="0"/>
        <pt x="245" y="699" on="0"/>
        <pt x="180" y="670" on="0"/>
        <pt x="140" y="618" on="0"/>
        <pt x="128" y="576" on="1"/>
        <pt x="109" y="503" on="0"/>
        <pt x="109" y="368" on="1"/>
        <pt x="109" y="184" on="0"/>
        <pt x="188" y="37" on="0"/>
        <pt x="296" y="36" on="1"/>
        <pt x="330" y="36" on="0"/>
        <pt x="441" y="60" on="0"/>
        <pt x="479" y="72" on="1"/>
        <pt x="517" y="84" on="1"/>
        <pt x="517" y="347" on="1"/>
        <pt x="319" y="347" on="1"/>
        <pt x="319" y="373" on="1"/>
        <pt x="377" y="389" on="0"/>
        <pt x="490" y="389" on="1"/>
        <pt x="522" y="389" on="0"/>
        <pt x="558" y="386" on="1"/>
        <pt x="558" y="0" on="1"/>
        <pt x="530" y="0" on="1"/>
        <pt x="519" y="52" on="1"/>
        <pt x="485" y="33" on="0"/>
        <pt x="356" y="-5" on="0"/>
        <pt x="296" y="-5" on="1"/>
        <pt x="293" y="-5" on="0"/>
        <pt x="290" y="-5" on="1"/>
        <pt x="234" y="-5" on="0"/>
        <pt x="150" y="34" on="0"/>
        <pt x="102" y="96" on="0"/>
      </contour>
    </TTGlyph>
    <TTGlyph name="H" xMin="98" yMin="0" xMax="590" yMax="732">
      <contour>
        <pt x="98" y="0" on="1"/>
        <pt x="98" y="732" on="1"/>
        <pt x="139" y="732" on="1"/>
        <pt x="139" y="374" on="1"/>
        <pt x="549" y="374" on="1"/>
        <pt x="549" y="732" on="1"/>
        <pt x="590" y="732" on="1"/>
        <pt x="590" y="0" on="1"/>
        <pt x="549" y="0" on="1"/>
        <pt x="549" y="334" on="1"/>
        <pt x="139" y="334" on="1"/>
        <pt x="139" y="0" on="1"/>
      </contour>
    </TTGlyph>
    <TTGlyph name="Hbar" xMin="35" yMin="0" xMax="653" yMax="732">
      <contour>
        <pt x="35" y="530" on="1"/>
        <pt x="35" y="558" on="1"/>
        <pt x="98" y="558" on="1"/>
        <pt x="98" y="732" on="1"/>
        <pt x="139" y="732" on="1"/>
        <pt x="139" y="558" on="1"/>
        <pt x="549" y="558" on="1"/>
        <pt x="549" y="732" on="1"/>
        <pt x="590" y="732" on="1"/>
        <pt x="590" y="558" on="1"/>
        <pt x="653" y="558" on="1"/>
        <pt x="653" y="530" on="1"/>
        <pt x="590" y="530" on="1"/>
        <pt x="590" y="0" on="1"/>
        <pt x="549" y="0" on="1"/>
        <pt x="549" y="334" on="1"/>
        <pt x="139" y="334" on="1"/>
        <pt x="139" y="0" on="1"/>
        <pt x="98" y="0" on="1"/>
        <pt x="98" y="530" on="1"/>
      </contour>
      <contour>
        <pt x="139" y="374" on="1"/>
        <pt x="549" y="374" on="1"/>
        <pt x="549" y="530" on="1"/>
        <pt x="139" y="530" on="1"/>
      </contour>
    </TTGlyph>
    <TTGlyph name="Hcircumflex" xMin="98" yMin="0" xMax="590" yMax="927">
      <contour>
        <pt x="205" y="797" on="1"/>
        <pt x="332" y="927" on="1"/>
        <pt x="369" y="927" on="1"/>
        <pt x="484" y="797" on="1"/>
        <pt x="448" y="797" on="1"/>
        <pt x="350" y="897" on="1"/>
        <pt x="241" y="797" on="1"/>
      </contour>
      <contour>
        <pt x="98" y="0" on="1"/>
        <pt x="98" y="732" on="1"/>
        <pt x="139" y="732" on="1"/>
        <pt x="139" y="374" on="1"/>
        <pt x="549" y="374" on="1"/>
        <pt x="549" y="732" on="1"/>
        <pt x="590" y="732" on="1"/>
        <pt x="590" y="0" on="1"/>
        <pt x="549" y="0" on="1"/>
        <pt x="549" y="334" on="1"/>
        <pt x="139" y="334" on="1"/>
        <pt x="139" y="0" on="1"/>
      </contour>
    </TTGlyph>
    <TTGlyph name="I" xMin="98" yMin="0" xMax="139" yMax="732">
      <contour>
        <pt x="98" y="0" on="1"/>
        <pt x="98" y="732" on="1"/>
        <pt x="139" y="732" on="1"/>
        <pt x="139" y="0" on="1"/>
      </contour>
    </TTGlyph>
    <TTGlyph name="Iacute" xMin="98" yMin="0" xMax="268" yMax="930">
      <contour>
        <pt x="103" y="797" on="1"/>
        <pt x="219" y="930" on="1"/>
        <pt x="268" y="930" on="1"/>
        <pt x="135" y="797" on="1"/>
      </contour>
      <contour>
        <pt x="98" y="0" on="1"/>
        <pt x="98" y="732" on="1"/>
        <pt x="139" y="732" on="1"/>
        <pt x="139" y="0" on="1"/>
      </contour>
    </TTGlyph>
    <TTGlyph name="Icircumflex" xMin="-20" yMin="0" xMax="259" yMax="927">
      <contour>
        <pt x="-20" y="797" on="1"/>
        <pt x="107" y="927" on="1"/>
        <pt x="144" y="927" on="1"/>
        <pt x="259" y="797" on="1"/>
        <pt x="223" y="797" on="1"/>
        <pt x="125" y="897" on="1"/>
        <pt x="16" y="797" on="1"/>
      </contour>
      <contour>
        <pt x="98" y="0" on="1"/>
        <pt x="98" y="732" on="1"/>
        <pt x="139" y="732" on="1"/>
        <pt x="139" y="0" on="1"/>
      </contour>
    </TTGlyph>
    <TTGlyph name="Idieresis" xMin="-37" yMin="0" xMax="275" yMax="854">
      <contour>
        <pt x="-37" y="814" on="0"/>
        <pt x="-37" y="838" on="0"/>
        <pt x="-21" y="854" on="0"/>
        <pt x="3" y="854" on="0"/>
        <pt x="20" y="838" on="0"/>
        <pt x="20" y="814" on="0"/>
        <pt x="3" y="797" on="0"/>
        <pt x="-21" y="797" on="0"/>
      </contour>
      <contour>
        <pt x="217" y="814" on="0"/>
        <pt x="217" y="838" on="0"/>
        <pt x="234" y="854" on="0"/>
        <pt x="258" y="854" on="0"/>
        <pt x="275" y="838" on="0"/>
        <pt x="275" y="814" on="0"/>
        <pt x="258" y="797" on="0"/>
        <pt x="234" y="797" on="0"/>
      </contour>
      <contour>
        <pt x="98" y="0" on="1"/>
        <pt x="98" y="732" on="1"/>
        <pt x="139" y="732" on="1"/>
        <pt x="139" y="0" on="1"/>
      </contour>
    </TTGlyph>
    <TTGlyph name="Idotaccent" xMin="91" yMin="0" xMax="147" yMax="888">
      <contour>
        <pt x="91" y="813" on="1"/>
        <pt x="91" y="872" on="1"/>
        <pt x="91" y="888" on="0"/>
        <pt x="107" y="888" on="1"/>
        <pt x="131" y="888" on="1"/>
        <pt x="147" y="888" on="0"/>
        <pt x="147" y="872" on="1"/>
        <pt x="147" y="813" on="1"/>
        <pt x="147" y="797" on="0"/>
        <pt x="131" y="797" on="1"/>
        <pt x="107" y="797" on="1"/>
        <pt x="91" y="797" on="0"/>
      </contour>
      <contour>
        <pt x="98" y="0" on="1"/>
        <pt x="98" y="732" on="1"/>
        <pt x="139" y="732" on="1"/>
        <pt x="139" y="0" on="1"/>
      </contour>
    </TTGlyph>
    <TTGlyph name="Idotaccent.smcp" xMin="88" yMin="0" xMax="144" yMax="752">
      <contour>
        <pt x="95" y="0" on="1"/>
        <pt x="95" y="570" on="1"/>
        <pt x="136" y="570" on="1"/>
        <pt x="136" y="0" on="1"/>
      </contour>
      <contour>
        <pt x="88" y="677" on="1"/>
        <pt x="88" y="736" on="1"/>
        <pt x="88" y="752" on="0"/>
        <pt x="104" y="752" on="1"/>
        <pt x="128" y="752" on="1"/>
        <pt x="144" y="752" on="0"/>
        <pt x="144" y="736" on="1"/>
        <pt x="144" y="677" on="1"/>
        <pt x="144" y="661" on="0"/>
        <pt x="128" y="661" on="1"/>
        <pt x="104" y="661" on="1"/>
        <pt x="88" y="661" on="0"/>
      </contour>
    </TTGlyph>
    <TTGlyph name="Igrave" xMin="-30" yMin="0" xMax="139" yMax="930">
      <contour>
        <pt x="-30" y="930" on="1"/>
        <pt x="19" y="930" on="1"/>
        <pt x="135" y="797" on="1"/>
        <pt x="103" y="797" on="1"/>
      </contour>
      <contour>
        <pt x="98" y="0" on="1"/>
        <pt x="98" y="732" on="1"/>
        <pt x="139" y="732" on="1"/>
        <pt x="139" y="0" on="1"/>
      </contour>
    </TTGlyph>
    <TTGlyph name="Imacron" xMin="-14" yMin="0" xMax="251" yMax="828">
      <contour>
        <pt x="-14" y="797" on="1"/>
        <pt x="-14" y="828" on="1"/>
        <pt x="251" y="828" on="1"/>
        <pt x="251" y="797" on="1"/>
      </contour>
      <contour>
        <pt x="98" y="0" on="1"/>
        <pt x="98" y="732" on="1"/>
        <pt x="139" y="732" on="1"/>
        <pt x="139" y="0" on="1"/>
      </contour>
    </TTGlyph>
    <TTGlyph name="Iogonek" xMin="27" yMin="-183" xMax="153" yMax="732">
      <contour>
        <pt x="131" y="0" on="1"/>
        <pt x="60" y="-37" on="0"/>
        <pt x="60" y="-92" on="1"/>
        <pt x="60" y="-108" on="0"/>
        <pt x="75" y="-124" on="1"/>
        <pt x="99" y="-151" on="0"/>
        <pt x="153" y="-151" on="1"/>
        <pt x="153" y="-181" on="1"/>
        <pt x="143" y="-182" on="0"/>
        <pt x="103" y="-182" on="0"/>
        <pt x="44" y="-150" on="0"/>
        <pt x="32" y="-121" on="1"/>
        <pt x="27" y="-110" on="0"/>
        <pt x="27" y="-78" on="0"/>
        <pt x="38" y="-58" on="1"/>
        <pt x="57" y="-23" on="0"/>
        <pt x="110" y="0" on="1"/>
      </contour>
      <contour>
        <pt x="98" y="0" on="1"/>
        <pt x="98" y="732" on="1"/>
        <pt x="139" y="732" on="1"/>
        <pt x="139" y="0" on="1"/>
      </contour>
    </TTGlyph>
    <TTGlyph name="Itilde" xMin="-50" yMin="0" xMax="288" yMax="891">
      <contour>
        <pt x="83" y="890" on="0"/>
        <pt x="166" y="831" on="0"/>
        <pt x="188" y="831" on="0"/>
        <pt x="207" y="836" on="0"/>
        <pt x="221" y="842" on="0"/>
        <pt x="242" y="854" on="0"/>
        <pt x="246" y="858" on="1"/>
        <pt x="267" y="874" on="0"/>
        <pt x="276" y="878" on="1"/>
        <pt x="288" y="859" on="1"/>
        <pt x="264" y="837" on="0"/>
        <pt x="242" y="819" on="0"/>
        <pt x="198" y="797" on="0"/>
        <pt x="154" y="798" on="0"/>
        <pt x="75" y="857" on="0"/>
        <pt x="45" y="857" on="0"/>
        <pt x="17" y="848" on="0"/>
        <pt x="1" y="839" on="0"/>
        <pt x="-32" y="817" on="0"/>
        <pt x="-40" y="812" on="1"/>
        <pt x="-50" y="831" on="1"/>
        <pt x="-26" y="851" on="0"/>
        <pt x="-13" y="862" on="1"/>
        <pt x="24" y="891" on="0"/>
        <pt x="60" y="891" on="1"/>
      </contour>
      <contour>
        <pt x="98" y="0" on="1"/>
        <pt x="98" y="732" on="1"/>
        <pt x="139" y="732" on="1"/>
        <pt x="139" y="0" on="1"/>
      </contour>
    </TTGlyph>
    <TTGlyph name="J" xMin="43" yMin="-7" xMax="287" yMax="732">
      <contour>
        <pt x="47" y="49" on="1"/>
        <pt x="100" y="33" on="0"/>
        <pt x="144" y="33" on="0"/>
        <pt x="182" y="35" on="0"/>
        <pt x="219" y="59" on="0"/>
        <pt x="246" y="119" on="0"/>
        <pt x="246" y="165" on="1"/>
        <pt x="246" y="732" on="1"/>
        <pt x="287" y="732" on="1"/>
        <pt x="287" y="165" on="1"/>
        <pt x="287" y="55" on="0"/>
        <pt x="235" y="18" on="1"/>
        <pt x="201" y="-6" on="0"/>
        <pt x="146" y="-6" on="1"/>
        <pt x="84" y="-6" on="0"/>
        <pt x="43" y="21" on="1"/>
      </contour>
    </TTGlyph>
    <TTGlyph name="Jcircumflex" xMin="43" yMin="-7" xMax="406" yMax="927">
      <contour>
        <pt x="127" y="797" on="1"/>
        <pt x="254" y="927" on="1"/>
        <pt x="291" y="927" on="1"/>
        <pt x="406" y="797" on="1"/>
        <pt x="370" y="797" on="1"/>
        <pt x="272" y="897" on="1"/>
        <pt x="163" y="797" on="1"/>
      </contour>
      <contour>
        <pt x="47" y="49" on="1"/>
        <pt x="100" y="33" on="0"/>
        <pt x="144" y="33" on="0"/>
        <pt x="182" y="35" on="0"/>
        <pt x="219" y="59" on="0"/>
        <pt x="246" y="119" on="0"/>
        <pt x="246" y="165" on="1"/>
        <pt x="246" y="732" on="1"/>
        <pt x="287" y="732" on="1"/>
        <pt x="287" y="165" on="1"/>
        <pt x="287" y="55" on="0"/>
        <pt x="235" y="18" on="1"/>
        <pt x="201" y="-6" on="0"/>
        <pt x="146" y="-6" on="1"/>
        <pt x="84" y="-6" on="0"/>
        <pt x="43" y="21" on="1"/>
      </contour>
    </TTGlyph>
    <TTGlyph name="K" xMin="98" yMin="0" xMax="555" yMax="732">
      <contour>
        <pt x="98" y="0" on="1"/>
        <pt x="98" y="732" on="1"/>
        <pt x="139" y="732" on="1"/>
        <pt x="139" y="388" on="1"/>
        <pt x="268" y="388" on="1"/>
        <pt x="505" y="732" on="1"/>
        <pt x="555" y="732" on="1"/>
        <pt x="305" y="367" on="1"/>
        <pt x="555" y="0" on="1"/>
        <pt x="504" y="0" on="1"/>
        <pt x="267" y="346" on="1"/>
        <pt x="140" y="346" on="1"/>
        <pt x="140" y="0" on="1"/>
      </contour>
    </TTGlyph>
    <TTGlyph name="Kcommaaccent" xMin="98" yMin="-215" xMax="555" yMax="732">
      <contour>
        <pt x="290" y="-131" on="1"/>
        <pt x="290" y="-78" on="1"/>
        <pt x="290" y="-61" on="0"/>
        <pt x="305" y="-61" on="1"/>
        <pt x="326" y="-61" on="1"/>
        <pt x="341" y="-61" on="0"/>
        <pt x="341" y="-78" on="1"/>
        <pt x="341" y="-171" on="1"/>
        <pt x="341" y="-195" on="0"/>
        <pt x="318" y="-215" on="0"/>
        <pt x="307" y="-215" on="1"/>
        <pt x="304" y="-215" on="1"/>
        <pt x="292" y="-214" on="1"/>
        <pt x="292" y="-200" on="1"/>
        <pt x="312" y="-200" on="0"/>
        <pt x="312" y="-182" on="1"/>
        <pt x="312" y="-146" on="1"/>
        <pt x="305" y="-146" on="1"/>
        <pt x="290" y="-146" on="0"/>
      </contour>
      <contour>
        <pt x="98" y="0" on="1"/>
        <pt x="98" y="732" on="1"/>
        <pt x="139" y="732" on="1"/>
        <pt x="139" y="388" on="1"/>
        <pt x="268" y="388" on="1"/>
        <pt x="505" y="732" on="1"/>
        <pt x="555" y="732" on="1"/>
        <pt x="305" y="367" on="1"/>
        <pt x="555" y="0" on="1"/>
        <pt x="504" y="0" on="1"/>
        <pt x="267" y="346" on="1"/>
        <pt x="140" y="346" on="1"/>
        <pt x="140" y="0" on="1"/>
      </contour>
    </TTGlyph>
    <TTGlyph name="L" xMin="98" yMin="0" xMax="521" yMax="732">
      <contour>
        <pt x="98" y="126" on="1"/>
        <pt x="98" y="732" on="1"/>
        <pt x="139" y="732" on="1"/>
        <pt x="139" y="126" on="1"/>
        <pt x="139" y="69" on="0"/>
        <pt x="170" y="54" on="1"/>
        <pt x="195" y="41" on="0"/>
        <pt x="234" y="41" on="1"/>
        <pt x="521" y="41" on="1"/>
        <pt x="521" y="0" on="1"/>
        <pt x="234" y="0" on="1"/>
        <pt x="177" y="0" on="0"/>
        <pt x="142" y="20" on="1"/>
        <pt x="98" y="45" on="0"/>
      </contour>
    </TTGlyph>
    <TTGlyph name="Lacute" xMin="98" yMin="0" xMax="521" yMax="927">
      <contour>
        <pt x="106" y="794" on="1"/>
        <pt x="222" y="927" on="1"/>
        <pt x="271" y="927" on="1"/>
        <pt x="138" y="794" on="1"/>
      </contour>
      <contour>
        <pt x="98" y="126" on="1"/>
        <pt x="98" y="732" on="1"/>
        <pt x="139" y="732" on="1"/>
        <pt x="139" y="126" on="1"/>
        <pt x="139" y="69" on="0"/>
        <pt x="170" y="54" on="1"/>
        <pt x="195" y="41" on="0"/>
        <pt x="234" y="41" on="1"/>
        <pt x="521" y="41" on="1"/>
        <pt x="521" y="0" on="1"/>
        <pt x="234" y="0" on="1"/>
        <pt x="177" y="0" on="0"/>
        <pt x="142" y="20" on="1"/>
        <pt x="98" y="45" on="0"/>
      </contour>
    </TTGlyph>
    <TTGlyph name="Lcaron" xMin="98" yMin="0" xMax="521" yMax="772">
      <contour>
        <pt x="98" y="126" on="1"/>
        <pt x="98" y="732" on="1"/>
        <pt x="139" y="732" on="1"/>
        <pt x="139" y="126" on="1"/>
        <pt x="139" y="69" on="0"/>
        <pt x="170" y="54" on="1"/>
        <pt x="195" y="41" on="0"/>
        <pt x="234" y="41" on="1"/>
        <pt x="521" y="41" on="1"/>
        <pt x="521" y="0" on="1"/>
        <pt x="234" y="0" on="1"/>
        <pt x="177" y="0" on="0"/>
        <pt x="142" y="20" on="1"/>
        <pt x="98" y="45" on="0"/>
      </contour>
      <contour>
        <pt x="222" y="772" on="1"/>
        <pt x="263" y="772" on="1"/>
        <pt x="263" y="705" on="1"/>
        <pt x="256" y="571" on="1"/>
        <pt x="230" y="571" on="1"/>
        <pt x="222" y="705" on="1"/>
      </contour>
    </TTGlyph>
    <TTGlyph name="Lcommaaccent" xMin="98" yMin="-214" xMax="521" yMax="732">
      <contour>
        <pt x="291" y="-130" on="1"/>
        <pt x="291" y="-77" on="1"/>
        <pt x="291" y="-60" on="0"/>
        <pt x="306" y="-60" on="1"/>
        <pt x="328" y="-60" on="1"/>
        <pt x="342" y="-60" on="0"/>
        <pt x="342" y="-77" on="1"/>
        <pt x="342" y="-170" on="1"/>
        <pt x="342" y="-194" on="0"/>
        <pt x="319" y="-214" on="0"/>
        <pt x="308" y="-214" on="1"/>
        <pt x="305" y="-214" on="1"/>
        <pt x="293" y="-212" on="1"/>
        <pt x="293" y="-199" on="1"/>
        <pt x="313" y="-199" on="0"/>
        <pt x="313" y="-181" on="1"/>
        <pt x="313" y="-145" on="1"/>
        <pt x="306" y="-145" on="1"/>
        <pt x="291" y="-145" on="0"/>
      </contour>
      <contour>
        <pt x="98" y="126" on="1"/>
        <pt x="98" y="732" on="1"/>
        <pt x="139" y="732" on="1"/>
        <pt x="139" y="126" on="1"/>
        <pt x="139" y="69" on="0"/>
        <pt x="170" y="54" on="1"/>
        <pt x="195" y="41" on="0"/>
        <pt x="234" y="41" on="1"/>
        <pt x="521" y="41" on="1"/>
        <pt x="521" y="0" on="1"/>
        <pt x="234" y="0" on="1"/>
        <pt x="177" y="0" on="0"/>
        <pt x="142" y="20" on="1"/>
        <pt x="98" y="45" on="0"/>
      </contour>
    </TTGlyph>
    <TTGlyph name="Lslash" xMin="16" yMin="0" xMax="521" yMax="732">
      <contour>
        <pt x="98" y="732" on="1"/>
        <pt x="139" y="732" on="1"/>
        <pt x="139" y="434" on="1"/>
        <pt x="266" y="489" on="1"/>
        <pt x="266" y="456" on="1"/>
        <pt x="139" y="401" on="1"/>
        <pt x="139" y="126" on="1"/>
        <pt x="139" y="69" on="0"/>
        <pt x="170" y="54" on="1"/>
        <pt x="195" y="41" on="0"/>
        <pt x="234" y="41" on="1"/>
        <pt x="521" y="41" on="1"/>
        <pt x="521" y="0" on="1"/>
        <pt x="234" y="0" on="1"/>
        <pt x="177" y="0" on="0"/>
        <pt x="142" y="20" on="1"/>
        <pt x="98" y="45" on="0"/>
        <pt x="98" y="126" on="1"/>
        <pt x="98" y="382" on="1"/>
        <pt x="16" y="346" on="1"/>
        <pt x="16" y="381" on="1"/>
        <pt x="98" y="417" on="1"/>
      </contour>
    </TTGlyph>
    <TTGlyph name="M" xMin="68" yMin="0" xMax="739" yMax="732">
      <contour>
        <pt x="68" y="0" on="1"/>
        <pt x="137" y="732" on="1"/>
        <pt x="196" y="732" on="1"/>
        <pt x="403" y="69" on="1"/>
        <pt x="605" y="732" on="1"/>
        <pt x="664" y="732" on="1"/>
        <pt x="739" y="0" on="1"/>
        <pt x="698" y="0" on="1"/>
        <pt x="629" y="667" on="1"/>
        <pt x="425" y="0" on="1"/>
        <pt x="381" y="0" on="1"/>
        <pt x="173" y="667" on="1"/>
        <pt x="109" y="0" on="1"/>
      </contour>
    </TTGlyph>
    <TTGlyph name="M.salt" xMin="68" yMin="0" xMax="747" yMax="740">
      <contour>
        <pt x="140" y="724" on="1"/>
        <pt x="161" y="740" on="0"/>
        <pt x="179" y="740" on="1"/>
        <pt x="242" y="740" on="0"/>
        <pt x="260" y="680" on="1"/>
        <pt x="383" y="270" on="1"/>
        <pt x="388" y="253" on="0"/>
        <pt x="410" y="242" on="0"/>
        <pt x="430" y="255" on="0"/>
        <pt x="434" y="270" on="1"/>
        <pt x="544" y="681" on="1"/>
        <pt x="557" y="723" on="0"/>
        <pt x="594" y="736" on="1"/>
        <pt x="606" y="740" on="0"/>
        <pt x="642" y="740" on="0"/>
        <pt x="663" y="725" on="1"/>
        <pt x="696" y="702" on="0"/>
        <pt x="698" y="653" on="1"/>
        <pt x="747" y="0" on="1"/>
        <pt x="706" y="0" on="1"/>
        <pt x="655" y="657" on="1"/>
        <pt x="654" y="680" on="0"/>
        <pt x="629" y="698" on="0"/>
        <pt x="621" y="698" on="1"/>
        <pt x="592" y="698" on="0"/>
        <pt x="583" y="666" on="1"/>
        <pt x="473" y="256" on="1"/>
        <pt x="464" y="224" on="0"/>
        <pt x="437" y="211" on="1"/>
        <pt x="423" y="204" on="0"/>
        <pt x="396" y="204" on="0"/>
        <pt x="382" y="210" on="1"/>
        <pt x="354" y="223" on="0"/>
        <pt x="344" y="256" on="1"/>
        <pt x="222" y="665" on="1"/>
        <pt x="213" y="697" on="0"/>
        <pt x="187" y="697" on="1"/>
        <pt x="176" y="697" on="0"/>
        <pt x="151" y="678" on="0"/>
        <pt x="150" y="656" on="1"/>
        <pt x="108" y="0" on="1"/>
        <pt x="68" y="0" on="1"/>
        <pt x="108" y="652" on="1"/>
        <pt x="108" y="700" on="0"/>
      </contour>
    </TTGlyph>
    <TTGlyph name="N" xMin="98" yMin="0" xMax="605" yMax="732">
      <contour>
        <pt x="98" y="0" on="1"/>
        <pt x="98" y="732" on="1"/>
        <pt x="141" y="732" on="1"/>
        <pt x="564" y="77" on="1"/>
        <pt x="564" y="732" on="1"/>
        <pt x="605" y="732" on="1"/>
        <pt x="605" y="0" on="1"/>
        <pt x="564" y="0" on="1"/>
        <pt x="139" y="655" on="1"/>
        <pt x="139" y="0" on="1"/>
      </contour>
    </TTGlyph>
    <TTGlyph name="N.salt" xMin="98" yMin="-8" xMax="622" yMax="739">
      <contour>
        <pt x="98" y="0" on="1"/>
        <pt x="98" y="652" on="1"/>
        <pt x="98" y="700" on="0"/>
        <pt x="132" y="724" on="1"/>
        <pt x="153" y="739" on="0"/>
        <pt x="172" y="739" on="1"/>
        <pt x="239" y="739" on="0"/>
        <pt x="261" y="680" on="1"/>
        <pt x="497" y="67" on="1"/>
        <pt x="509" y="35" on="0"/>
        <pt x="538" y="35" on="1"/>
        <pt x="552" y="35" on="0"/>
        <pt x="581" y="57" on="0"/>
        <pt x="581" y="80" on="1"/>
        <pt x="581" y="732" on="1"/>
        <pt x="622" y="732" on="1"/>
        <pt x="622" y="79" on="1"/>
        <pt x="622" y="34" on="0"/>
        <pt x="589" y="10" on="1"/>
        <pt x="566" y="-8" on="0"/>
        <pt x="547" y="-8" on="1"/>
        <pt x="481" y="-8" on="0"/>
        <pt x="459" y="50" on="1"/>
        <pt x="222" y="665" on="1"/>
        <pt x="211" y="696" on="0"/>
        <pt x="182" y="696" on="1"/>
        <pt x="169" y="696" on="0"/>
        <pt x="140" y="674" on="0"/>
        <pt x="140" y="648" on="1"/>
        <pt x="140" y="0" on="1"/>
      </contour>
    </TTGlyph>
    <TTGlyph name="Nacute" xMin="98" yMin="0" xMax="605" yMax="930">
      <contour>
        <pt x="344" y="797" on="1"/>
        <pt x="460" y="930" on="1"/>
        <pt x="509" y="930" on="1"/>
        <pt x="376" y="797" on="1"/>
      </contour>
      <contour>
        <pt x="98" y="0" on="1"/>
        <pt x="98" y="732" on="1"/>
        <pt x="141" y="732" on="1"/>
        <pt x="564" y="77" on="1"/>
        <pt x="564" y="732" on="1"/>
        <pt x="605" y="732" on="1"/>
        <pt x="605" y="0" on="1"/>
        <pt x="564" y="0" on="1"/>
        <pt x="139" y="655" on="1"/>
        <pt x="139" y="0" on="1"/>
      </contour>
    </TTGlyph>
    <TTGlyph name="Nacute.salt" xMin="98" yMin="-8" xMax="622" yMax="930">
      <contour>
        <pt x="359" y="797" on="1"/>
        <pt x="475" y="930" on="1"/>
        <pt x="524" y="930" on="1"/>
        <pt x="391" y="797" on="1"/>
      </contour>
      <contour>
        <pt x="98" y="0" on="1"/>
        <pt x="98" y="652" on="1"/>
        <pt x="98" y="700" on="0"/>
        <pt x="132" y="724" on="1"/>
        <pt x="153" y="739" on="0"/>
        <pt x="172" y="739" on="1"/>
        <pt x="239" y="739" on="0"/>
        <pt x="261" y="680" on="1"/>
        <pt x="497" y="67" on="1"/>
        <pt x="509" y="35" on="0"/>
        <pt x="538" y="35" on="1"/>
        <pt x="552" y="35" on="0"/>
        <pt x="581" y="57" on="0"/>
        <pt x="581" y="80" on="1"/>
        <pt x="581" y="732" on="1"/>
        <pt x="622" y="732" on="1"/>
        <pt x="622" y="79" on="1"/>
        <pt x="622" y="34" on="0"/>
        <pt x="589" y="10" on="1"/>
        <pt x="566" y="-8" on="0"/>
        <pt x="547" y="-8" on="1"/>
        <pt x="481" y="-8" on="0"/>
        <pt x="459" y="50" on="1"/>
        <pt x="222" y="665" on="1"/>
        <pt x="211" y="696" on="0"/>
        <pt x="182" y="696" on="1"/>
        <pt x="169" y="696" on="0"/>
        <pt x="140" y="674" on="0"/>
        <pt x="140" y="648" on="1"/>
        <pt x="140" y="0" on="1"/>
      </contour>
    </TTGlyph>
    <TTGlyph name="Ncaron" xMin="98" yMin="0" xMax="605" yMax="927">
      <contour>
        <pt x="216" y="927" on="1"/>
        <pt x="251" y="927" on="1"/>
        <pt x="353" y="827" on="1"/>
        <pt x="459" y="927" on="1"/>
        <pt x="495" y="927" on="1"/>
        <pt x="372" y="797" on="1"/>
        <pt x="334" y="797" on="1"/>
      </contour>
      <contour>
        <pt x="98" y="0" on="1"/>
        <pt x="98" y="732" on="1"/>
        <pt x="141" y="732" on="1"/>
        <pt x="564" y="77" on="1"/>
        <pt x="564" y="732" on="1"/>
        <pt x="605" y="732" on="1"/>
        <pt x="605" y="0" on="1"/>
        <pt x="564" y="0" on="1"/>
        <pt x="139" y="655" on="1"/>
        <pt x="139" y="0" on="1"/>
      </contour>
    </TTGlyph>
    <TTGlyph name="Ncaron.salt" xMin="98" yMin="-8" xMax="622" yMax="927">
      <contour>
        <pt x="242" y="927" on="1"/>
        <pt x="277" y="927" on="1"/>
        <pt x="379" y="827" on="1"/>
        <pt x="485" y="927" on="1"/>
        <pt x="521" y="927" on="1"/>
        <pt x="398" y="797" on="1"/>
        <pt x="360" y="797" on="1"/>
      </contour>
      <contour>
        <pt x="98" y="0" on="1"/>
        <pt x="98" y="652" on="1"/>
        <pt x="98" y="700" on="0"/>
        <pt x="132" y="724" on="1"/>
        <pt x="153" y="739" on="0"/>
        <pt x="172" y="739" on="1"/>
        <pt x="239" y="739" on="0"/>
        <pt x="261" y="680" on="1"/>
        <pt x="497" y="67" on="1"/>
        <pt x="509" y="35" on="0"/>
        <pt x="538" y="35" on="1"/>
        <pt x="552" y="35" on="0"/>
        <pt x="581" y="57" on="0"/>
        <pt x="581" y="80" on="1"/>
        <pt x="581" y="732" on="1"/>
        <pt x="622" y="732" on="1"/>
        <pt x="622" y="79" on="1"/>
        <pt x="622" y="34" on="0"/>
        <pt x="589" y="10" on="1"/>
        <pt x="566" y="-8" on="0"/>
        <pt x="547" y="-8" on="1"/>
        <pt x="481" y="-8" on="0"/>
        <pt x="459" y="50" on="1"/>
        <pt x="222" y="665" on="1"/>
        <pt x="211" y="696" on="0"/>
        <pt x="182" y="696" on="1"/>
        <pt x="169" y="696" on="0"/>
        <pt x="140" y="674" on="0"/>
        <pt x="140" y="648" on="1"/>
        <pt x="140" y="0" on="1"/>
      </contour>
    </TTGlyph>
    <TTGlyph name="Ncommaaccent" xMin="98" yMin="-217" xMax="605" yMax="732">
      <contour>
        <pt x="327" y="-133" on="1"/>
        <pt x="327" y="-80" on="1"/>
        <pt x="327" y="-63" on="0"/>
        <pt x="342" y="-63" on="1"/>
        <pt x="364" y="-63" on="1"/>
        <pt x="378" y="-63" on="0"/>
        <pt x="378" y="-80" on="1"/>
        <pt x="378" y="-173" on="1"/>
        <pt x="378" y="-197" on="0"/>
        <pt x="355" y="-217" on="0"/>
        <pt x="344" y="-217" on="1"/>
        <pt x="341" y="-217" on="1"/>
        <pt x="329" y="-216" on="1"/>
        <pt x="329" y="-202" on="1"/>
        <pt x="349" y="-202" on="0"/>
        <pt x="349" y="-184" on="1"/>
        <pt x="349" y="-148" on="1"/>
        <pt x="342" y="-148" on="1"/>
        <pt x="327" y="-148" on="0"/>
      </contour>
      <contour>
        <pt x="98" y="0" on="1"/>
        <pt x="98" y="732" on="1"/>
        <pt x="141" y="732" on="1"/>
        <pt x="564" y="77" on="1"/>
        <pt x="564" y="732" on="1"/>
        <pt x="605" y="732" on="1"/>
        <pt x="605" y="0" on="1"/>
        <pt x="564" y="0" on="1"/>
        <pt x="139" y="655" on="1"/>
        <pt x="139" y="0" on="1"/>
      </contour>
    </TTGlyph>
    <TTGlyph name="Ncommaaccent.salt" xMin="98" yMin="-221" xMax="622" yMax="739">
      <contour>
        <pt x="319" y="-137" on="1"/>
        <pt x="319" y="-84" on="1"/>
        <pt x="319" y="-67" on="0"/>
        <pt x="334" y="-67" on="1"/>
        <pt x="356" y="-67" on="1"/>
        <pt x="370" y="-67" on="0"/>
        <pt x="370" y="-84" on="1"/>
        <pt x="370" y="-177" on="1"/>
        <pt x="370" y="-201" on="0"/>
        <pt x="347" y="-221" on="0"/>
        <pt x="336" y="-221" on="1"/>
        <pt x="333" y="-221" on="1"/>
        <pt x="321" y="-220" on="1"/>
        <pt x="321" y="-206" on="1"/>
        <pt x="341" y="-206" on="0"/>
        <pt x="341" y="-188" on="1"/>
        <pt x="341" y="-152" on="1"/>
        <pt x="334" y="-152" on="1"/>
        <pt x="319" y="-152" on="0"/>
      </contour>
      <contour>
        <pt x="98" y="0" on="1"/>
        <pt x="98" y="652" on="1"/>
        <pt x="98" y="700" on="0"/>
        <pt x="132" y="724" on="1"/>
        <pt x="153" y="739" on="0"/>
        <pt x="172" y="739" on="1"/>
        <pt x="239" y="739" on="0"/>
        <pt x="261" y="680" on="1"/>
        <pt x="497" y="67" on="1"/>
        <pt x="509" y="35" on="0"/>
        <pt x="538" y="35" on="1"/>
        <pt x="552" y="35" on="0"/>
        <pt x="581" y="57" on="0"/>
        <pt x="581" y="80" on="1"/>
        <pt x="581" y="732" on="1"/>
        <pt x="622" y="732" on="1"/>
        <pt x="622" y="79" on="1"/>
        <pt x="622" y="34" on="0"/>
        <pt x="589" y="10" on="1"/>
        <pt x="566" y="-8" on="0"/>
        <pt x="547" y="-8" on="1"/>
        <pt x="481" y="-8" on="0"/>
        <pt x="459" y="50" on="1"/>
        <pt x="222" y="665" on="1"/>
        <pt x="211" y="696" on="0"/>
        <pt x="182" y="696" on="1"/>
        <pt x="169" y="696" on="0"/>
        <pt x="140" y="674" on="0"/>
        <pt x="140" y="648" on="1"/>
        <pt x="140" y="0" on="1"/>
      </contour>
    </TTGlyph>
    <TTGlyph name="Ntilde" xMin="98" yMin="0" xMax="605" yMax="891">
      <contour>
        <pt x="316" y="890" on="0"/>
        <pt x="399" y="831" on="0"/>
        <pt x="421" y="831" on="0"/>
        <pt x="440" y="836" on="0"/>
        <pt x="454" y="842" on="0"/>
        <pt x="475" y="854" on="0"/>
        <pt x="480" y="858" on="1"/>
        <pt x="500" y="874" on="0"/>
        <pt x="509" y="878" on="1"/>
        <pt x="521" y="859" on="1"/>
        <pt x="497" y="837" on="0"/>
        <pt x="475" y="819" on="0"/>
        <pt x="431" y="797" on="0"/>
        <pt x="387" y="798" on="0"/>
        <pt x="308" y="857" on="0"/>
        <pt x="278" y="857" on="0"/>
        <pt x="250" y="848" on="0"/>
        <pt x="234" y="839" on="0"/>
        <pt x="201" y="817" on="0"/>
        <pt x="193" y="812" on="1"/>
        <pt x="183" y="831" on="1"/>
        <pt x="207" y="851" on="0"/>
        <pt x="220" y="862" on="1"/>
        <pt x="257" y="891" on="0"/>
        <pt x="293" y="891" on="1"/>
      </contour>
      <contour>
        <pt x="98" y="0" on="1"/>
        <pt x="98" y="732" on="1"/>
        <pt x="141" y="732" on="1"/>
        <pt x="564" y="77" on="1"/>
        <pt x="564" y="732" on="1"/>
        <pt x="605" y="732" on="1"/>
        <pt x="605" y="0" on="1"/>
        <pt x="564" y="0" on="1"/>
        <pt x="139" y="655" on="1"/>
        <pt x="139" y="0" on="1"/>
      </contour>
    </TTGlyph>
    <TTGlyph name="Ntilde.salt" xMin="98" yMin="-8" xMax="622" yMax="898">
      <contour>
        <pt x="335" y="897" on="0"/>
        <pt x="418" y="838" on="0"/>
        <pt x="440" y="838" on="0"/>
        <pt x="459" y="843" on="0"/>
        <pt x="473" y="849" on="0"/>
        <pt x="494" y="861" on="0"/>
        <pt x="498" y="864" on="1"/>
        <pt x="519" y="881" on="0"/>
        <pt x="528" y="885" on="1"/>
        <pt x="540" y="866" on="1"/>
        <pt x="516" y="844" on="0"/>
        <pt x="494" y="826" on="0"/>
        <pt x="450" y="804" on="0"/>
        <pt x="406" y="805" on="0"/>
        <pt x="327" y="864" on="0"/>
        <pt x="297" y="864" on="0"/>
        <pt x="269" y="855" on="0"/>
        <pt x="253" y="846" on="0"/>
        <pt x="220" y="824" on="0"/>
        <pt x="212" y="819" on="1"/>
        <pt x="202" y="838" on="1"/>
        <pt x="226" y="858" on="0"/>
        <pt x="239" y="868" on="1"/>
        <pt x="276" y="898" on="0"/>
        <pt x="312" y="898" on="1"/>
      </contour>
      <contour>
        <pt x="98" y="0" on="1"/>
        <pt x="98" y="652" on="1"/>
        <pt x="98" y="700" on="0"/>
        <pt x="132" y="724" on="1"/>
        <pt x="153" y="739" on="0"/>
        <pt x="172" y="739" on="1"/>
        <pt x="239" y="739" on="0"/>
        <pt x="261" y="680" on="1"/>
        <pt x="497" y="67" on="1"/>
        <pt x="509" y="35" on="0"/>
        <pt x="538" y="35" on="1"/>
        <pt x="552" y="35" on="0"/>
        <pt x="581" y="57" on="0"/>
        <pt x="581" y="80" on="1"/>
        <pt x="581" y="732" on="1"/>
        <pt x="622" y="732" on="1"/>
        <pt x="622" y="79" on="1"/>
        <pt x="622" y="34" on="0"/>
        <pt x="589" y="10" on="1"/>
        <pt x="566" y="-8" on="0"/>
        <pt x="547" y="-8" on="1"/>
        <pt x="481" y="-8" on="0"/>
        <pt x="459" y="50" on="1"/>
        <pt x="222" y="665" on="1"/>
        <pt x="211" y="696" on="0"/>
        <pt x="182" y="696" on="1"/>
        <pt x="169" y="696" on="0"/>
        <pt x="140" y="674" on="0"/>
        <pt x="140" y="648" on="1"/>
        <pt x="140" y="0" on="1"/>
      </contour>
    </TTGlyph>
    <TTGlyph name="O" xMin="80" yMin="-4" xMax="626" yMax="737">
      <contour>
        <pt x="95" y="158" on="0"/>
        <pt x="80" y="279" on="0"/>
        <pt x="80" y="462" on="0"/>
        <pt x="106" y="601" on="0"/>
        <pt x="147" y="682" on="0"/>
        <pt x="222" y="725" on="0"/>
        <pt x="296" y="737" on="0"/>
        <pt x="402" y="737" on="0"/>
        <pt x="467" y="729" on="0"/>
        <pt x="535" y="703" on="0"/>
        <pt x="576" y="652" on="0"/>
        <pt x="594" y="611" on="1"/>
        <pt x="626" y="535" on="0"/>
        <pt x="626" y="361" on="1"/>
        <pt x="626" y="179" on="0"/>
        <pt x="583" y="93" on="1"/>
        <pt x="563" y="53" on="0"/>
        <pt x="491" y="10" on="0"/>
        <pt x="413" y="-4" on="0"/>
        <pt x="304" y="-4" on="0"/>
        <pt x="238" y="4" on="0"/>
        <pt x="169" y="29" on="0"/>
        <pt x="129" y="78" on="0"/>
      </contour>
      <contour>
        <pt x="129" y="516" on="0"/>
        <pt x="121" y="421" on="0"/>
        <pt x="121" y="254" on="0"/>
        <pt x="144" y="127" on="0"/>
        <pt x="204" y="58" on="0"/>
        <pt x="284" y="37" on="0"/>
        <pt x="421" y="37" on="0"/>
        <pt x="501" y="60" on="0"/>
        <pt x="561" y="128" on="0"/>
        <pt x="585" y="256" on="0"/>
        <pt x="585" y="455" on="0"/>
        <pt x="564" y="580" on="0"/>
        <pt x="532" y="651" on="0"/>
        <pt x="468" y="687" on="0"/>
        <pt x="407" y="696" on="0"/>
        <pt x="322" y="696" on="0"/>
        <pt x="283" y="694" on="0"/>
        <pt x="232" y="685" on="0"/>
        <pt x="202" y="666" on="0"/>
        <pt x="167" y="634" on="0"/>
        <pt x="147" y="584" on="0"/>
      </contour>
    </TTGlyph>
    <TTGlyph name="OE" xMin="80" yMin="-4" xMax="995" yMax="737">
      <contour>
        <pt x="133" y="534" on="0"/>
        <pt x="121" y="429" on="0"/>
        <pt x="121" y="254" on="0"/>
        <pt x="143" y="127" on="0"/>
        <pt x="203" y="58" on="0"/>
        <pt x="283" y="37" on="0"/>
        <pt x="409" y="37" on="0"/>
        <pt x="483" y="53" on="0"/>
        <pt x="540" y="94" on="0"/>
        <pt x="555" y="132" on="1"/>
        <pt x="585" y="208" on="0"/>
        <pt x="585" y="367" on="1"/>
        <pt x="585" y="519" on="0"/>
        <pt x="559" y="586" on="1"/>
        <pt x="545" y="623" on="0"/>
        <pt x="511" y="667" on="0"/>
        <pt x="482" y="678" on="1"/>
        <pt x="435" y="696" on="0"/>
        <pt x="316" y="696" on="0"/>
        <pt x="273" y="693" on="0"/>
        <pt x="217" y="679" on="0"/>
        <pt x="185" y="653" on="0"/>
        <pt x="150" y="605" on="0"/>
      </contour>
      <contour>
        <pt x="94" y="158" on="0"/>
        <pt x="80" y="278" on="0"/>
        <pt x="80" y="462" on="0"/>
        <pt x="106" y="601" on="0"/>
        <pt x="147" y="682" on="0"/>
        <pt x="221" y="725" on="0"/>
        <pt x="295" y="737" on="0"/>
        <pt x="449" y="737" on="0"/>
        <pt x="559" y="690" on="0"/>
        <pt x="588" y="617" on="1"/>
        <pt x="592" y="678" on="0"/>
        <pt x="658" y="732" on="0"/>
        <pt x="704" y="732" on="1"/>
        <pt x="708" y="732" on="0"/>
        <pt x="711" y="732" on="1"/>
        <pt x="995" y="720" on="1"/>
        <pt x="995" y="691" on="1"/>
        <pt x="711" y="691" on="1"/>
        <pt x="626" y="691" on="0"/>
        <pt x="626" y="518" on="0"/>
        <pt x="626" y="408" on="0"/>
        <pt x="626" y="384" on="1"/>
        <pt x="955" y="377" on="1"/>
        <pt x="955" y="348" on="1"/>
        <pt x="626" y="341" on="1"/>
        <pt x="626" y="123" on="1"/>
        <pt x="626" y="66" on="0"/>
        <pt x="657" y="50" on="1"/>
        <pt x="682" y="38" on="0"/>
        <pt x="721" y="38" on="1"/>
        <pt x="995" y="38" on="1"/>
        <pt x="995" y="9" on="1"/>
        <pt x="721" y="-3" on="1"/>
        <pt x="715" y="-3" on="0"/>
        <pt x="709" y="-3" on="1"/>
        <pt x="659" y="-3" on="0"/>
        <pt x="592" y="43" on="0"/>
        <pt x="587" y="112" on="1"/>
        <pt x="558" y="43" on="0"/>
        <pt x="449" y="-4" on="0"/>
        <pt x="353" y="-4" on="1"/>
        <pt x="259" y="-4" on="0"/>
        <pt x="169" y="29" on="0"/>
        <pt x="128" y="78" on="0"/>
      </contour>
    </TTGlyph>
    <TTGlyph name="Oacute" xMin="80" yMin="-4" xMax="626" yMax="930">
      <contour>
        <pt x="338" y="797" on="1"/>
        <pt x="454" y="930" on="1"/>
        <pt x="503" y="930" on="1"/>
        <pt x="370" y="797" on="1"/>
      </contour>
      <contour>
        <pt x="95" y="158" on="0"/>
        <pt x="80" y="279" on="0"/>
        <pt x="80" y="462" on="0"/>
        <pt x="106" y="601" on="0"/>
        <pt x="147" y="682" on="0"/>
        <pt x="222" y="725" on="0"/>
        <pt x="296" y="737" on="0"/>
        <pt x="402" y="737" on="0"/>
        <pt x="467" y="729" on="0"/>
        <pt x="535" y="703" on="0"/>
        <pt x="576" y="652" on="0"/>
        <pt x="594" y="611" on="1"/>
        <pt x="626" y="535" on="0"/>
        <pt x="626" y="361" on="1"/>
        <pt x="626" y="179" on="0"/>
        <pt x="583" y="93" on="1"/>
        <pt x="563" y="53" on="0"/>
        <pt x="491" y="10" on="0"/>
        <pt x="413" y="-4" on="0"/>
        <pt x="304" y="-4" on="0"/>
        <pt x="238" y="4" on="0"/>
        <pt x="169" y="29" on="0"/>
        <pt x="129" y="78" on="0"/>
      </contour>
      <contour>
        <pt x="129" y="516" on="0"/>
        <pt x="121" y="421" on="0"/>
        <pt x="121" y="254" on="0"/>
        <pt x="144" y="127" on="0"/>
        <pt x="204" y="58" on="0"/>
        <pt x="284" y="37" on="0"/>
        <pt x="421" y="37" on="0"/>
        <pt x="501" y="60" on="0"/>
        <pt x="561" y="128" on="0"/>
        <pt x="585" y="256" on="0"/>
        <pt x="585" y="455" on="0"/>
        <pt x="564" y="580" on="0"/>
        <pt x="532" y="651" on="0"/>
        <pt x="468" y="687" on="0"/>
        <pt x="407" y="696" on="0"/>
        <pt x="322" y="696" on="0"/>
        <pt x="283" y="694" on="0"/>
        <pt x="232" y="685" on="0"/>
        <pt x="202" y="666" on="0"/>
        <pt x="167" y="634" on="0"/>
        <pt x="147" y="584" on="0"/>
      </contour>
    </TTGlyph>
    <TTGlyph name="Ocircumflex" xMin="80" yMin="-4" xMax="626" yMax="927">
      <contour>
        <pt x="214" y="797" on="1"/>
        <pt x="341" y="927" on="1"/>
        <pt x="378" y="927" on="1"/>
        <pt x="493" y="797" on="1"/>
        <pt x="457" y="797" on="1"/>
        <pt x="359" y="897" on="1"/>
        <pt x="250" y="797" on="1"/>
      </contour>
      <contour>
        <pt x="95" y="158" on="0"/>
        <pt x="80" y="279" on="0"/>
        <pt x="80" y="462" on="0"/>
        <pt x="106" y="601" on="0"/>
        <pt x="147" y="682" on="0"/>
        <pt x="222" y="725" on="0"/>
        <pt x="296" y="737" on="0"/>
        <pt x="402" y="737" on="0"/>
        <pt x="467" y="729" on="0"/>
        <pt x="535" y="703" on="0"/>
        <pt x="576" y="652" on="0"/>
        <pt x="594" y="611" on="1"/>
        <pt x="626" y="535" on="0"/>
        <pt x="626" y="361" on="1"/>
        <pt x="626" y="179" on="0"/>
        <pt x="583" y="93" on="1"/>
        <pt x="563" y="53" on="0"/>
        <pt x="491" y="10" on="0"/>
        <pt x="413" y="-4" on="0"/>
        <pt x="304" y="-4" on="0"/>
        <pt x="238" y="4" on="0"/>
        <pt x="169" y="29" on="0"/>
        <pt x="129" y="78" on="0"/>
      </contour>
      <contour>
        <pt x="129" y="516" on="0"/>
        <pt x="121" y="421" on="0"/>
        <pt x="121" y="254" on="0"/>
        <pt x="144" y="127" on="0"/>
        <pt x="204" y="58" on="0"/>
        <pt x="284" y="37" on="0"/>
        <pt x="421" y="37" on="0"/>
        <pt x="501" y="60" on="0"/>
        <pt x="561" y="128" on="0"/>
        <pt x="585" y="256" on="0"/>
        <pt x="585" y="455" on="0"/>
        <pt x="564" y="580" on="0"/>
        <pt x="532" y="651" on="0"/>
        <pt x="468" y="687" on="0"/>
        <pt x="407" y="696" on="0"/>
        <pt x="322" y="696" on="0"/>
        <pt x="283" y="694" on="0"/>
        <pt x="232" y="685" on="0"/>
        <pt x="202" y="666" on="0"/>
        <pt x="167" y="634" on="0"/>
        <pt x="147" y="584" on="0"/>
      </contour>
    </TTGlyph>
    <TTGlyph name="Odieresis" xMin="80" yMin="-4" xMax="626" yMax="854">
      <contour>
        <pt x="198" y="814" on="0"/>
        <pt x="198" y="838" on="0"/>
        <pt x="214" y="854" on="0"/>
        <pt x="238" y="854" on="0"/>
        <pt x="255" y="838" on="0"/>
        <pt x="255" y="814" on="0"/>
        <pt x="238" y="797" on="0"/>
        <pt x="214" y="797" on="0"/>
      </contour>
      <contour>
        <pt x="452" y="814" on="0"/>
        <pt x="452" y="838" on="0"/>
        <pt x="469" y="854" on="0"/>
        <pt x="493" y="854" on="0"/>
        <pt x="510" y="838" on="0"/>
        <pt x="510" y="814" on="0"/>
        <pt x="493" y="797" on="0"/>
        <pt x="469" y="797" on="0"/>
      </contour>
      <contour>
        <pt x="95" y="158" on="0"/>
        <pt x="80" y="279" on="0"/>
        <pt x="80" y="462" on="0"/>
        <pt x="106" y="601" on="0"/>
        <pt x="147" y="682" on="0"/>
        <pt x="222" y="725" on="0"/>
        <pt x="296" y="737" on="0"/>
        <pt x="402" y="737" on="0"/>
        <pt x="467" y="729" on="0"/>
        <pt x="535" y="703" on="0"/>
        <pt x="576" y="652" on="0"/>
        <pt x="594" y="611" on="1"/>
        <pt x="626" y="535" on="0"/>
        <pt x="626" y="361" on="1"/>
        <pt x="626" y="179" on="0"/>
        <pt x="583" y="93" on="1"/>
        <pt x="563" y="53" on="0"/>
        <pt x="491" y="10" on="0"/>
        <pt x="413" y="-4" on="0"/>
        <pt x="304" y="-4" on="0"/>
        <pt x="238" y="4" on="0"/>
        <pt x="169" y="29" on="0"/>
        <pt x="129" y="78" on="0"/>
      </contour>
      <contour>
        <pt x="129" y="516" on="0"/>
        <pt x="121" y="421" on="0"/>
        <pt x="121" y="254" on="0"/>
        <pt x="144" y="127" on="0"/>
        <pt x="204" y="58" on="0"/>
        <pt x="284" y="37" on="0"/>
        <pt x="421" y="37" on="0"/>
        <pt x="501" y="60" on="0"/>
        <pt x="561" y="128" on="0"/>
        <pt x="585" y="256" on="0"/>
        <pt x="585" y="455" on="0"/>
        <pt x="564" y="580" on="0"/>
        <pt x="532" y="651" on="0"/>
        <pt x="468" y="687" on="0"/>
        <pt x="407" y="696" on="0"/>
        <pt x="322" y="696" on="0"/>
        <pt x="283" y="694" on="0"/>
        <pt x="232" y="685" on="0"/>
        <pt x="202" y="666" on="0"/>
        <pt x="167" y="634" on="0"/>
        <pt x="147" y="584" on="0"/>
      </contour>
    </TTGlyph>
    <TTGlyph name="Ograve" xMin="80" yMin="-4" xMax="626" yMax="930">
      <contour>
        <pt x="205" y="930" on="1"/>
        <pt x="254" y="930" on="1"/>
        <pt x="370" y="797" on="1"/>
        <pt x="338" y="797" on="1"/>
      </contour>
      <contour>
        <pt x="95" y="158" on="0"/>
        <pt x="80" y="279" on="0"/>
        <pt x="80" y="462" on="0"/>
        <pt x="106" y="601" on="0"/>
        <pt x="147" y="682" on="0"/>
        <pt x="222" y="725" on="0"/>
        <pt x="296" y="737" on="0"/>
        <pt x="402" y="737" on="0"/>
        <pt x="467" y="729" on="0"/>
        <pt x="535" y="703" on="0"/>
        <pt x="576" y="652" on="0"/>
        <pt x="594" y="611" on="1"/>
        <pt x="626" y="535" on="0"/>
        <pt x="626" y="361" on="1"/>
        <pt x="626" y="179" on="0"/>
        <pt x="583" y="93" on="1"/>
        <pt x="563" y="53" on="0"/>
        <pt x="491" y="10" on="0"/>
        <pt x="413" y="-4" on="0"/>
        <pt x="304" y="-4" on="0"/>
        <pt x="238" y="4" on="0"/>
        <pt x="169" y="29" on="0"/>
        <pt x="129" y="78" on="0"/>
      </contour>
      <contour>
        <pt x="129" y="516" on="0"/>
        <pt x="121" y="421" on="0"/>
        <pt x="121" y="254" on="0"/>
        <pt x="144" y="127" on="0"/>
        <pt x="204" y="58" on="0"/>
        <pt x="284" y="37" on="0"/>
        <pt x="421" y="37" on="0"/>
        <pt x="501" y="60" on="0"/>
        <pt x="561" y="128" on="0"/>
        <pt x="585" y="256" on="0"/>
        <pt x="585" y="455" on="0"/>
        <pt x="564" y="580" on="0"/>
        <pt x="532" y="651" on="0"/>
        <pt x="468" y="687" on="0"/>
        <pt x="407" y="696" on="0"/>
        <pt x="322" y="696" on="0"/>
        <pt x="283" y="694" on="0"/>
        <pt x="232" y="685" on="0"/>
        <pt x="202" y="666" on="0"/>
        <pt x="167" y="634" on="0"/>
        <pt x="147" y="584" on="0"/>
      </contour>
    </TTGlyph>
    <TTGlyph name="Ohungarumlaut" xMin="80" yMin="-4" xMax="626" yMax="930">
      <contour>
        <pt x="269" y="797" on="1"/>
        <pt x="385" y="930" on="1"/>
        <pt x="434" y="930" on="1"/>
        <pt x="301" y="797" on="1"/>
      </contour>
      <contour>
        <pt x="406" y="797" on="1"/>
        <pt x="522" y="930" on="1"/>
        <pt x="572" y="930" on="1"/>
        <pt x="439" y="797" on="1"/>
      </contour>
      <contour>
        <pt x="95" y="158" on="0"/>
        <pt x="80" y="279" on="0"/>
        <pt x="80" y="462" on="0"/>
        <pt x="106" y="601" on="0"/>
        <pt x="147" y="682" on="0"/>
        <pt x="222" y="725" on="0"/>
        <pt x="296" y="737" on="0"/>
        <pt x="402" y="737" on="0"/>
        <pt x="467" y="729" on="0"/>
        <pt x="535" y="703" on="0"/>
        <pt x="576" y="652" on="0"/>
        <pt x="594" y="611" on="1"/>
        <pt x="626" y="535" on="0"/>
        <pt x="626" y="361" on="1"/>
        <pt x="626" y="179" on="0"/>
        <pt x="583" y="93" on="1"/>
        <pt x="563" y="53" on="0"/>
        <pt x="491" y="10" on="0"/>
        <pt x="413" y="-4" on="0"/>
        <pt x="304" y="-4" on="0"/>
        <pt x="238" y="4" on="0"/>
        <pt x="169" y="29" on="0"/>
        <pt x="129" y="78" on="0"/>
      </contour>
      <contour>
        <pt x="129" y="516" on="0"/>
        <pt x="121" y="421" on="0"/>
        <pt x="121" y="254" on="0"/>
        <pt x="144" y="127" on="0"/>
        <pt x="204" y="58" on="0"/>
        <pt x="284" y="37" on="0"/>
        <pt x="421" y="37" on="0"/>
        <pt x="501" y="60" on="0"/>
        <pt x="561" y="128" on="0"/>
        <pt x="585" y="256" on="0"/>
        <pt x="585" y="455" on="0"/>
        <pt x="564" y="580" on="0"/>
        <pt x="532" y="651" on="0"/>
        <pt x="468" y="687" on="0"/>
        <pt x="407" y="696" on="0"/>
        <pt x="322" y="696" on="0"/>
        <pt x="283" y="694" on="0"/>
        <pt x="232" y="685" on="0"/>
        <pt x="202" y="666" on="0"/>
        <pt x="167" y="634" on="0"/>
        <pt x="147" y="584" on="0"/>
      </contour>
    </TTGlyph>
    <TTGlyph name="Omacron" xMin="80" yMin="-4" xMax="626" yMax="828">
      <contour>
        <pt x="221" y="797" on="1"/>
        <pt x="221" y="828" on="1"/>
        <pt x="486" y="828" on="1"/>
        <pt x="486" y="797" on="1"/>
      </contour>
      <contour>
        <pt x="95" y="158" on="0"/>
        <pt x="80" y="279" on="0"/>
        <pt x="80" y="462" on="0"/>
        <pt x="106" y="601" on="0"/>
        <pt x="147" y="682" on="0"/>
        <pt x="222" y="725" on="0"/>
        <pt x="296" y="737" on="0"/>
        <pt x="402" y="737" on="0"/>
        <pt x="467" y="729" on="0"/>
        <pt x="535" y="703" on="0"/>
        <pt x="576" y="652" on="0"/>
        <pt x="594" y="611" on="1"/>
        <pt x="626" y="535" on="0"/>
        <pt x="626" y="361" on="1"/>
        <pt x="626" y="179" on="0"/>
        <pt x="583" y="93" on="1"/>
        <pt x="563" y="53" on="0"/>
        <pt x="491" y="10" on="0"/>
        <pt x="413" y="-4" on="0"/>
        <pt x="304" y="-4" on="0"/>
        <pt x="238" y="4" on="0"/>
        <pt x="169" y="29" on="0"/>
        <pt x="129" y="78" on="0"/>
      </contour>
      <contour>
        <pt x="129" y="516" on="0"/>
        <pt x="121" y="421" on="0"/>
        <pt x="121" y="254" on="0"/>
        <pt x="144" y="127" on="0"/>
        <pt x="204" y="58" on="0"/>
        <pt x="284" y="37" on="0"/>
        <pt x="421" y="37" on="0"/>
        <pt x="501" y="60" on="0"/>
        <pt x="561" y="128" on="0"/>
        <pt x="585" y="256" on="0"/>
        <pt x="585" y="455" on="0"/>
        <pt x="564" y="580" on="0"/>
        <pt x="532" y="651" on="0"/>
        <pt x="468" y="687" on="0"/>
        <pt x="407" y="696" on="0"/>
        <pt x="322" y="696" on="0"/>
        <pt x="283" y="694" on="0"/>
        <pt x="232" y="685" on="0"/>
        <pt x="202" y="666" on="0"/>
        <pt x="167" y="634" on="0"/>
        <pt x="147" y="584" on="0"/>
      </contour>
    </TTGlyph>
    <TTGlyph name="Omega" xMin="79" yMin="0" xMax="708" yMax="739">
      <contour>
        <pt x="79" y="337" on="0"/>
        <pt x="79" y="439" on="0"/>
        <pt x="94" y="529" on="0"/>
        <pt x="136" y="626" on="0"/>
        <pt x="203" y="695" on="0"/>
        <pt x="319" y="739" on="0"/>
        <pt x="394" y="739" on="1"/>
        <pt x="703" y="739" on="0"/>
        <pt x="703" y="383" on="1"/>
        <pt x="703" y="155" on="0"/>
        <pt x="540" y="41" on="1"/>
        <pt x="708" y="31" on="1"/>
        <pt x="708" y="0" on="1"/>
        <pt x="480" y="0" on="1"/>
        <pt x="480" y="42" on="1"/>
        <pt x="580" y="108" on="0"/>
        <pt x="662" y="277" on="0"/>
        <pt x="662" y="385" on="1"/>
        <pt x="662" y="517" on="0"/>
        <pt x="610" y="602" on="1"/>
        <pt x="552" y="698" on="0"/>
        <pt x="394" y="698" on="1"/>
        <pt x="120" y="698" on="0"/>
        <pt x="120" y="380" on="1"/>
        <pt x="120" y="270" on="0"/>
        <pt x="196" y="127" on="0"/>
        <pt x="305" y="42" on="1"/>
        <pt x="305" y="0" on="1"/>
        <pt x="85" y="0" on="1"/>
        <pt x="85" y="31" on="1"/>
        <pt x="251" y="42" on="1"/>
        <pt x="135" y="126" on="0"/>
        <pt x="104" y="218" on="1"/>
        <pt x="88" y="265" on="0"/>
      </contour>
    </TTGlyph>
    <TTGlyph name="Oslash" xMin="80" yMin="-4" xMax="626" yMax="737">
      <contour>
        <pt x="134" y="653" on="1"/>
        <pt x="153" y="681" on="0"/>
        <pt x="193" y="713" on="0"/>
        <pt x="224" y="722" on="1"/>
        <pt x="276" y="737" on="0"/>
        <pt x="421" y="737" on="0"/>
        <pt x="511" y="717" on="0"/>
        <pt x="543" y="688" on="1"/>
        <pt x="571" y="732" on="1"/>
        <pt x="604" y="732" on="1"/>
        <pt x="563" y="668" on="1"/>
        <pt x="626" y="587" on="0"/>
        <pt x="626" y="361" on="1"/>
        <pt x="626" y="181" on="0"/>
        <pt x="582" y="93" on="1"/>
        <pt x="562" y="53" on="0"/>
        <pt x="490" y="10" on="0"/>
        <pt x="412" y="-4" on="0"/>
        <pt x="283" y="-4" on="0"/>
        <pt x="192" y="15" on="0"/>
        <pt x="161" y="43" on="1"/>
        <pt x="133" y="0" on="1"/>
        <pt x="101" y="0" on="1"/>
        <pt x="141" y="63" on="1"/>
        <pt x="80" y="142" on="0"/>
        <pt x="80" y="573" on="0"/>
      </contour>
      <contour>
        <pt x="121" y="361" on="1"/>
        <pt x="121" y="170" on="0"/>
        <pt x="167" y="102" on="1"/>
        <pt x="520" y="653" on="1"/>
        <pt x="493" y="680" on="0"/>
        <pt x="416" y="696" on="0"/>
        <pt x="316" y="696" on="0"/>
        <pt x="273" y="693" on="0"/>
        <pt x="217" y="679" on="0"/>
        <pt x="185" y="653" on="0"/>
        <pt x="150" y="605" on="0"/>
        <pt x="142" y="570" on="1"/>
        <pt x="121" y="484" on="0"/>
      </contour>
      <contour>
        <pt x="353" y="37" on="1"/>
        <pt x="407" y="37" on="0"/>
        <pt x="476" y="51" on="0"/>
        <pt x="536" y="90" on="0"/>
        <pt x="552" y="126" on="1"/>
        <pt x="585" y="202" on="0"/>
        <pt x="585" y="559" on="0"/>
        <pt x="539" y="630" on="1"/>
        <pt x="185" y="80" on="1"/>
        <pt x="230" y="37" on="0"/>
      </contour>
    </TTGlyph>
    <TTGlyph name="Otilde" xMin="80" yMin="-4" xMax="626" yMax="891">
      <contour>
        <pt x="318" y="890" on="0"/>
        <pt x="401" y="831" on="0"/>
        <pt x="423" y="831" on="0"/>
        <pt x="442" y="836" on="0"/>
        <pt x="456" y="842" on="0"/>
        <pt x="477" y="854" on="0"/>
        <pt x="482" y="858" on="1"/>
        <pt x="502" y="874" on="0"/>
        <pt x="511" y="878" on="1"/>
        <pt x="523" y="859" on="1"/>
        <pt x="499" y="837" on="0"/>
        <pt x="477" y="819" on="0"/>
        <pt x="433" y="797" on="0"/>
        <pt x="389" y="798" on="0"/>
        <pt x="310" y="857" on="0"/>
        <pt x="280" y="857" on="0"/>
        <pt x="252" y="848" on="0"/>
        <pt x="236" y="839" on="0"/>
        <pt x="203" y="817" on="0"/>
        <pt x="195" y="812" on="1"/>
        <pt x="185" y="831" on="1"/>
        <pt x="209" y="851" on="0"/>
        <pt x="222" y="862" on="1"/>
        <pt x="259" y="891" on="0"/>
        <pt x="295" y="891" on="1"/>
      </contour>
      <contour>
        <pt x="95" y="158" on="0"/>
        <pt x="80" y="279" on="0"/>
        <pt x="80" y="462" on="0"/>
        <pt x="106" y="601" on="0"/>
        <pt x="147" y="682" on="0"/>
        <pt x="222" y="725" on="0"/>
        <pt x="296" y="737" on="0"/>
        <pt x="402" y="737" on="0"/>
        <pt x="467" y="729" on="0"/>
        <pt x="535" y="703" on="0"/>
        <pt x="576" y="652" on="0"/>
        <pt x="594" y="611" on="1"/>
        <pt x="626" y="535" on="0"/>
        <pt x="626" y="361" on="1"/>
        <pt x="626" y="179" on="0"/>
        <pt x="583" y="93" on="1"/>
        <pt x="563" y="53" on="0"/>
        <pt x="491" y="10" on="0"/>
        <pt x="413" y="-4" on="0"/>
        <pt x="304" y="-4" on="0"/>
        <pt x="238" y="4" on="0"/>
        <pt x="169" y="29" on="0"/>
        <pt x="129" y="78" on="0"/>
      </contour>
      <contour>
        <pt x="129" y="516" on="0"/>
        <pt x="121" y="421" on="0"/>
        <pt x="121" y="254" on="0"/>
        <pt x="144" y="127" on="0"/>
        <pt x="204" y="58" on="0"/>
        <pt x="284" y="37" on="0"/>
        <pt x="421" y="37" on="0"/>
        <pt x="501" y="60" on="0"/>
        <pt x="561" y="128" on="0"/>
        <pt x="585" y="256" on="0"/>
        <pt x="585" y="455" on="0"/>
        <pt x="564" y="580" on="0"/>
        <pt x="532" y="651" on="0"/>
        <pt x="468" y="687" on="0"/>
        <pt x="407" y="696" on="0"/>
        <pt x="322" y="696" on="0"/>
        <pt x="283" y="694" on="0"/>
        <pt x="232" y="685" on="0"/>
        <pt x="202" y="666" on="0"/>
        <pt x="167" y="634" on="0"/>
        <pt x="147" y="584" on="0"/>
      </contour>
    </TTGlyph>
    <TTGlyph name="P" xMin="74" yMin="0" xMax="534" yMax="732">
      <contour>
        <pt x="74" y="0" on="1"/>
        <pt x="74" y="732" on="1"/>
        <pt x="358" y="732" on="1"/>
        <pt x="425" y="732" on="0"/>
        <pt x="475" y="698" on="1"/>
        <pt x="534" y="656" on="0"/>
        <pt x="534" y="528" on="1"/>
        <pt x="534" y="469" on="0"/>
        <pt x="510" y="385" on="0"/>
        <pt x="478" y="342" on="0"/>
        <pt x="424" y="318" on="0"/>
        <pt x="386" y="314" on="0"/>
        <pt x="327" y="314" on="0"/>
        <pt x="119" y="326" on="0"/>
        <pt x="115" y="328" on="1"/>
        <pt x="115" y="0" on="1"/>
      </contour>
      <contour>
        <pt x="115" y="356" on="1"/>
        <pt x="358" y="356" on="1"/>
        <pt x="421" y="356" on="0"/>
        <pt x="492" y="425" on="0"/>
        <pt x="492" y="523" on="1"/>
        <pt x="492" y="525" on="0"/>
        <pt x="492" y="528" on="1"/>
        <pt x="492" y="631" on="0"/>
        <pt x="447" y="664" on="1"/>
        <pt x="412" y="690" on="0"/>
        <pt x="358" y="690" on="1"/>
        <pt x="115" y="690" on="1"/>
      </contour>
    </TTGlyph>
    <TTGlyph name="Q" xMin="80" yMin="-135" xMax="626" yMax="737">
      <contour>
        <pt x="94" y="158" on="0"/>
        <pt x="80" y="278" on="0"/>
        <pt x="80" y="434" on="0"/>
        <pt x="93" y="546" on="0"/>
        <pt x="115" y="625" on="0"/>
        <pt x="153" y="681" on="0"/>
        <pt x="193" y="713" on="0"/>
        <pt x="224" y="722" on="1"/>
        <pt x="276" y="737" on="0"/>
        <pt x="412" y="737" on="0"/>
        <pt x="486" y="725" on="0"/>
        <pt x="560" y="682" on="0"/>
        <pt x="580" y="642" on="1"/>
        <pt x="626" y="552" on="0"/>
        <pt x="626" y="361" on="1"/>
        <pt x="626" y="181" on="0"/>
        <pt x="582" y="93" on="1"/>
        <pt x="562" y="53" on="0"/>
        <pt x="490" y="10" on="0"/>
        <pt x="412" y="-4" on="0"/>
        <pt x="303" y="-4" on="0"/>
        <pt x="237" y="4" on="0"/>
        <pt x="169" y="29" on="0"/>
        <pt x="128" y="78" on="0"/>
      </contour>
      <contour>
        <pt x="133" y="534" on="0"/>
        <pt x="121" y="429" on="0"/>
        <pt x="121" y="254" on="0"/>
        <pt x="143" y="127" on="0"/>
        <pt x="203" y="58" on="0"/>
        <pt x="283" y="37" on="0"/>
        <pt x="407" y="37" on="0"/>
        <pt x="476" y="51" on="0"/>
        <pt x="536" y="90" on="0"/>
        <pt x="552" y="126" on="1"/>
        <pt x="585" y="202" on="0"/>
        <pt x="585" y="361" on="1"/>
        <pt x="585" y="523" on="0"/>
        <pt x="558" y="588" on="1"/>
        <pt x="543" y="625" on="0"/>
        <pt x="510" y="669" on="0"/>
        <pt x="450" y="690" on="0"/>
        <pt x="397" y="696" on="0"/>
        <pt x="316" y="696" on="0"/>
        <pt x="273" y="693" on="0"/>
        <pt x="217" y="679" on="0"/>
        <pt x="185" y="653" on="0"/>
        <pt x="150" y="605" on="0"/>
      </contour>
      <contour>
        <pt x="538" y="-124" on="1"/>
        <pt x="509" y="-135" on="0"/>
        <pt x="446" y="-135" on="0"/>
        <pt x="389" y="-115" on="0"/>
        <pt x="344" y="-67" on="0"/>
        <pt x="337" y="-33" on="1"/>
        <pt x="364" y="-33" on="1"/>
        <pt x="383" y="-66" on="0"/>
        <pt x="443" y="-94" on="0"/>
        <pt x="501" y="-94" on="0"/>
        <pt x="538" y="-81" on="1"/>
      </contour>
    </TTGlyph>
    <TTGlyph name="R" xMin="74" yMin="0" xMax="546" yMax="732">
      <contour>
        <pt x="74" y="0" on="1"/>
        <pt x="74" y="732" on="1"/>
        <pt x="362" y="732" on="1"/>
        <pt x="457" y="732" on="0"/>
        <pt x="499" y="674" on="1"/>
        <pt x="536" y="621" on="0"/>
        <pt x="536" y="525" on="1"/>
        <pt x="536" y="377" on="0"/>
        <pt x="464" y="336" on="1"/>
        <pt x="432" y="318" on="0"/>
        <pt x="388" y="316" on="1"/>
        <pt x="546" y="0" on="1"/>
        <pt x="503" y="0" on="1"/>
        <pt x="343" y="315" on="1"/>
        <pt x="122" y="321" on="0"/>
        <pt x="115" y="326" on="1"/>
        <pt x="115" y="0" on="1"/>
      </contour>
      <contour>
        <pt x="115" y="358" on="1"/>
        <pt x="362" y="358" on="1"/>
        <pt x="392" y="358" on="0"/>
        <pt x="432" y="368" on="0"/>
        <pt x="452" y="384" on="1"/>
        <pt x="494" y="416" on="0"/>
        <pt x="494" y="624" on="0"/>
        <pt x="422" y="690" on="0"/>
        <pt x="362" y="690" on="1"/>
        <pt x="115" y="690" on="1"/>
      </contour>
    </TTGlyph>
    <TTGlyph name="Racute" xMin="74" yMin="0" xMax="546" yMax="925">
      <contour>
        <pt x="273" y="792" on="1"/>
        <pt x="389" y="925" on="1"/>
        <pt x="438" y="925" on="1"/>
        <pt x="305" y="792" on="1"/>
      </contour>
      <contour>
        <pt x="74" y="0" on="1"/>
        <pt x="74" y="732" on="1"/>
        <pt x="362" y="732" on="1"/>
        <pt x="457" y="732" on="0"/>
        <pt x="499" y="674" on="1"/>
        <pt x="536" y="621" on="0"/>
        <pt x="536" y="525" on="1"/>
        <pt x="536" y="377" on="0"/>
        <pt x="464" y="336" on="1"/>
        <pt x="432" y="318" on="0"/>
        <pt x="388" y="316" on="1"/>
        <pt x="546" y="0" on="1"/>
        <pt x="503" y="0" on="1"/>
        <pt x="343" y="315" on="1"/>
        <pt x="122" y="321" on="0"/>
        <pt x="115" y="326" on="1"/>
        <pt x="115" y="0" on="1"/>
      </contour>
      <contour>
        <pt x="115" y="358" on="1"/>
        <pt x="362" y="358" on="1"/>
        <pt x="392" y="358" on="0"/>
        <pt x="432" y="368" on="0"/>
        <pt x="452" y="384" on="1"/>
        <pt x="494" y="416" on="0"/>
        <pt x="494" y="624" on="0"/>
        <pt x="422" y="690" on="0"/>
        <pt x="362" y="690" on="1"/>
        <pt x="115" y="690" on="1"/>
      </contour>
    </TTGlyph>
    <TTGlyph name="Rcaron" xMin="74" yMin="0" xMax="546" yMax="924">
      <contour>
        <pt x="155" y="924" on="1"/>
        <pt x="190" y="924" on="1"/>
        <pt x="292" y="824" on="1"/>
        <pt x="398" y="924" on="1"/>
        <pt x="434" y="924" on="1"/>
        <pt x="311" y="794" on="1"/>
        <pt x="273" y="794" on="1"/>
      </contour>
      <contour>
        <pt x="74" y="0" on="1"/>
        <pt x="74" y="732" on="1"/>
        <pt x="362" y="732" on="1"/>
        <pt x="457" y="732" on="0"/>
        <pt x="499" y="674" on="1"/>
        <pt x="536" y="621" on="0"/>
        <pt x="536" y="525" on="1"/>
        <pt x="536" y="377" on="0"/>
        <pt x="464" y="336" on="1"/>
        <pt x="432" y="318" on="0"/>
        <pt x="388" y="316" on="1"/>
        <pt x="546" y="0" on="1"/>
        <pt x="503" y="0" on="1"/>
        <pt x="343" y="315" on="1"/>
        <pt x="122" y="321" on="0"/>
        <pt x="115" y="326" on="1"/>
        <pt x="115" y="0" on="1"/>
      </contour>
      <contour>
        <pt x="115" y="358" on="1"/>
        <pt x="362" y="358" on="1"/>
        <pt x="392" y="358" on="0"/>
        <pt x="432" y="368" on="0"/>
        <pt x="452" y="384" on="1"/>
        <pt x="494" y="416" on="0"/>
        <pt x="494" y="624" on="0"/>
        <pt x="422" y="690" on="0"/>
        <pt x="362" y="690" on="1"/>
        <pt x="115" y="690" on="1"/>
      </contour>
    </TTGlyph>
    <TTGlyph name="Rcommaaccent" xMin="74" yMin="-214" xMax="546" yMax="732">
      <contour>
        <pt x="268" y="-130" on="1"/>
        <pt x="268" y="-77" on="1"/>
        <pt x="268" y="-60" on="0"/>
        <pt x="283" y="-60" on="1"/>
        <pt x="304" y="-60" on="1"/>
        <pt x="319" y="-60" on="0"/>
        <pt x="319" y="-77" on="1"/>
        <pt x="319" y="-170" on="1"/>
        <pt x="319" y="-194" on="0"/>
        <pt x="296" y="-214" on="0"/>
        <pt x="285" y="-214" on="1"/>
        <pt x="282" y="-214" on="1"/>
        <pt x="270" y="-212" on="1"/>
        <pt x="270" y="-199" on="1"/>
        <pt x="290" y="-199" on="0"/>
        <pt x="290" y="-181" on="1"/>
        <pt x="290" y="-145" on="1"/>
        <pt x="283" y="-145" on="1"/>
        <pt x="268" y="-145" on="0"/>
      </contour>
      <contour>
        <pt x="74" y="0" on="1"/>
        <pt x="74" y="732" on="1"/>
        <pt x="362" y="732" on="1"/>
        <pt x="457" y="732" on="0"/>
        <pt x="499" y="674" on="1"/>
        <pt x="536" y="621" on="0"/>
        <pt x="536" y="525" on="1"/>
        <pt x="536" y="377" on="0"/>
        <pt x="464" y="336" on="1"/>
        <pt x="432" y="318" on="0"/>
        <pt x="388" y="316" on="1"/>
        <pt x="546" y="0" on="1"/>
        <pt x="503" y="0" on="1"/>
        <pt x="343" y="315" on="1"/>
        <pt x="122" y="321" on="0"/>
        <pt x="115" y="326" on="1"/>
        <pt x="115" y="0" on="1"/>
      </contour>
      <contour>
        <pt x="115" y="358" on="1"/>
        <pt x="362" y="358" on="1"/>
        <pt x="392" y="358" on="0"/>
        <pt x="432" y="368" on="0"/>
        <pt x="452" y="384" on="1"/>
        <pt x="494" y="416" on="0"/>
        <pt x="494" y="624" on="0"/>
        <pt x="422" y="690" on="0"/>
        <pt x="362" y="690" on="1"/>
        <pt x="115" y="690" on="1"/>
      </contour>
    </TTGlyph>
    <TTGlyph name="S" xMin="80" yMin="-8" xMax="536" yMax="738">
      <contour>
        <pt x="80" y="494" on="1"/>
        <pt x="80" y="560" on="1"/>
        <pt x="80" y="661" on="0"/>
        <pt x="181" y="738" on="0"/>
        <pt x="371" y="738" on="0"/>
        <pt x="506" y="717" on="1"/>
        <pt x="506" y="688" on="1"/>
        <pt x="275" y="697" on="1"/>
        <pt x="268" y="697" on="0"/>
        <pt x="261" y="697" on="1"/>
        <pt x="195" y="697" on="0"/>
        <pt x="121" y="641" on="0"/>
        <pt x="121" y="560" on="1"/>
        <pt x="121" y="494" on="1"/>
        <pt x="121" y="424" on="0"/>
        <pt x="185" y="380" on="0"/>
        <pt x="253" y="380" on="1"/>
        <pt x="376" y="380" on="1"/>
        <pt x="467" y="380" on="0"/>
        <pt x="536" y="296" on="0"/>
        <pt x="536" y="224" on="1"/>
        <pt x="536" y="156" on="1"/>
        <pt x="536" y="55" on="0"/>
        <pt x="474" y="20" on="1"/>
        <pt x="422" y="-8" on="0"/>
        <pt x="340" y="-8" on="1"/>
        <pt x="301" y="-8" on="0"/>
        <pt x="133" y="4" on="0"/>
        <pt x="100" y="10" on="1"/>
        <pt x="100" y="41" on="1"/>
        <pt x="186" y="33" on="0"/>
        <pt x="371" y="33" on="0"/>
        <pt x="420" y="42" on="0"/>
        <pt x="444" y="54" on="1"/>
        <pt x="495" y="80" on="0"/>
        <pt x="495" y="156" on="1"/>
        <pt x="495" y="224" on="1"/>
        <pt x="495" y="282" on="0"/>
        <pt x="440" y="338" on="0"/>
        <pt x="376" y="338" on="1"/>
        <pt x="255" y="338" on="1"/>
        <pt x="143" y="338" on="0"/>
        <pt x="108" y="387" on="1"/>
        <pt x="91" y="411" on="0"/>
        <pt x="80" y="459" on="0"/>
      </contour>
    </TTGlyph>
    <TTGlyph name="Sacute" xMin="80" yMin="-8" xMax="536" yMax="931">
      <contour>
        <pt x="293" y="798" on="1"/>
        <pt x="409" y="931" on="1"/>
        <pt x="458" y="931" on="1"/>
        <pt x="325" y="798" on="1"/>
      </contour>
      <contour>
        <pt x="80" y="494" on="1"/>
        <pt x="80" y="560" on="1"/>
        <pt x="80" y="661" on="0"/>
        <pt x="181" y="738" on="0"/>
        <pt x="371" y="738" on="0"/>
        <pt x="506" y="717" on="1"/>
        <pt x="506" y="688" on="1"/>
        <pt x="275" y="697" on="1"/>
        <pt x="268" y="697" on="0"/>
        <pt x="261" y="697" on="1"/>
        <pt x="195" y="697" on="0"/>
        <pt x="121" y="641" on="0"/>
        <pt x="121" y="560" on="1"/>
        <pt x="121" y="494" on="1"/>
        <pt x="121" y="424" on="0"/>
        <pt x="185" y="380" on="0"/>
        <pt x="253" y="380" on="1"/>
        <pt x="376" y="380" on="1"/>
        <pt x="467" y="380" on="0"/>
        <pt x="536" y="296" on="0"/>
        <pt x="536" y="224" on="1"/>
        <pt x="536" y="156" on="1"/>
        <pt x="536" y="55" on="0"/>
        <pt x="474" y="20" on="1"/>
        <pt x="422" y="-8" on="0"/>
        <pt x="340" y="-8" on="1"/>
        <pt x="301" y="-8" on="0"/>
        <pt x="133" y="4" on="0"/>
        <pt x="100" y="10" on="1"/>
        <pt x="100" y="41" on="1"/>
        <pt x="186" y="33" on="0"/>
        <pt x="371" y="33" on="0"/>
        <pt x="420" y="42" on="0"/>
        <pt x="444" y="54" on="1"/>
        <pt x="495" y="80" on="0"/>
        <pt x="495" y="156" on="1"/>
        <pt x="495" y="224" on="1"/>
        <pt x="495" y="282" on="0"/>
        <pt x="440" y="338" on="0"/>
        <pt x="376" y="338" on="1"/>
        <pt x="255" y="338" on="1"/>
        <pt x="143" y="338" on="0"/>
        <pt x="108" y="387" on="1"/>
        <pt x="91" y="411" on="0"/>
        <pt x="80" y="459" on="0"/>
      </contour>
    </TTGlyph>
    <TTGlyph name="Scaron" xMin="80" yMin="-8" xMax="536" yMax="928">
      <contour>
        <pt x="177" y="928" on="1"/>
        <pt x="212" y="928" on="1"/>
        <pt x="314" y="828" on="1"/>
        <pt x="420" y="928" on="1"/>
        <pt x="456" y="928" on="1"/>
        <pt x="333" y="798" on="1"/>
        <pt x="295" y="798" on="1"/>
      </contour>
      <contour>
        <pt x="80" y="494" on="1"/>
        <pt x="80" y="560" on="1"/>
        <pt x="80" y="661" on="0"/>
        <pt x="181" y="738" on="0"/>
        <pt x="371" y="738" on="0"/>
        <pt x="506" y="717" on="1"/>
        <pt x="506" y="688" on="1"/>
        <pt x="275" y="697" on="1"/>
        <pt x="268" y="697" on="0"/>
        <pt x="261" y="697" on="1"/>
        <pt x="195" y="697" on="0"/>
        <pt x="121" y="641" on="0"/>
        <pt x="121" y="560" on="1"/>
        <pt x="121" y="494" on="1"/>
        <pt x="121" y="424" on="0"/>
        <pt x="185" y="380" on="0"/>
        <pt x="253" y="380" on="1"/>
        <pt x="376" y="380" on="1"/>
        <pt x="467" y="380" on="0"/>
        <pt x="536" y="296" on="0"/>
        <pt x="536" y="224" on="1"/>
        <pt x="536" y="156" on="1"/>
        <pt x="536" y="55" on="0"/>
        <pt x="474" y="20" on="1"/>
        <pt x="422" y="-8" on="0"/>
        <pt x="340" y="-8" on="1"/>
        <pt x="301" y="-8" on="0"/>
        <pt x="133" y="4" on="0"/>
        <pt x="100" y="10" on="1"/>
        <pt x="100" y="41" on="1"/>
        <pt x="186" y="33" on="0"/>
        <pt x="371" y="33" on="0"/>
        <pt x="420" y="42" on="0"/>
        <pt x="444" y="54" on="1"/>
        <pt x="495" y="80" on="0"/>
        <pt x="495" y="156" on="1"/>
        <pt x="495" y="224" on="1"/>
        <pt x="495" y="282" on="0"/>
        <pt x="440" y="338" on="0"/>
        <pt x="376" y="338" on="1"/>
        <pt x="255" y="338" on="1"/>
        <pt x="143" y="338" on="0"/>
        <pt x="108" y="387" on="1"/>
        <pt x="91" y="411" on="0"/>
        <pt x="80" y="459" on="0"/>
      </contour>
    </TTGlyph>
    <TTGlyph name="Scedilla" xMin="80" yMin="-181" xMax="536" yMax="738">
      <contour>
        <pt x="308" y="-52" on="1"/>
        <pt x="308" y="-49" on="0"/>
        <pt x="308" y="-45" on="1"/>
        <pt x="342" y="-45" on="1"/>
        <pt x="342" y="-123" on="0"/>
        <pt x="301" y="-181" on="0"/>
        <pt x="241" y="-181" on="1"/>
        <pt x="204" y="-181" on="1"/>
        <pt x="204" y="-164" on="1"/>
        <pt x="243" y="-155" on="1"/>
        <pt x="279" y="-148" on="0"/>
        <pt x="308" y="-106" on="0"/>
      </contour>
      <contour>
        <pt x="80" y="494" on="1"/>
        <pt x="80" y="560" on="1"/>
        <pt x="80" y="661" on="0"/>
        <pt x="181" y="738" on="0"/>
        <pt x="371" y="738" on="0"/>
        <pt x="506" y="717" on="1"/>
        <pt x="506" y="688" on="1"/>
        <pt x="275" y="697" on="1"/>
        <pt x="268" y="697" on="0"/>
        <pt x="261" y="697" on="1"/>
        <pt x="195" y="697" on="0"/>
        <pt x="121" y="641" on="0"/>
        <pt x="121" y="560" on="1"/>
        <pt x="121" y="494" on="1"/>
        <pt x="121" y="424" on="0"/>
        <pt x="185" y="380" on="0"/>
        <pt x="253" y="380" on="1"/>
        <pt x="376" y="380" on="1"/>
        <pt x="467" y="380" on="0"/>
        <pt x="536" y="296" on="0"/>
        <pt x="536" y="224" on="1"/>
        <pt x="536" y="156" on="1"/>
        <pt x="536" y="55" on="0"/>
        <pt x="474" y="20" on="1"/>
        <pt x="422" y="-8" on="0"/>
        <pt x="340" y="-8" on="1"/>
        <pt x="301" y="-8" on="0"/>
        <pt x="133" y="4" on="0"/>
        <pt x="100" y="10" on="1"/>
        <pt x="100" y="41" on="1"/>
        <pt x="186" y="33" on="0"/>
        <pt x="371" y="33" on="0"/>
        <pt x="420" y="42" on="0"/>
        <pt x="444" y="54" on="1"/>
        <pt x="495" y="80" on="0"/>
        <pt x="495" y="156" on="1"/>
        <pt x="495" y="224" on="1"/>
        <pt x="495" y="282" on="0"/>
        <pt x="440" y="338" on="0"/>
        <pt x="376" y="338" on="1"/>
        <pt x="255" y="338" on="1"/>
        <pt x="143" y="338" on="0"/>
        <pt x="108" y="387" on="1"/>
        <pt x="91" y="411" on="0"/>
        <pt x="80" y="459" on="0"/>
      </contour>
    </TTGlyph>
    <TTGlyph name="Scircumflex" xMin="80" yMin="-8" xMax="536" yMax="928">
      <contour>
        <pt x="169" y="798" on="1"/>
        <pt x="296" y="928" on="1"/>
        <pt x="333" y="928" on="1"/>
        <pt x="448" y="798" on="1"/>
        <pt x="412" y="798" on="1"/>
        <pt x="314" y="898" on="1"/>
        <pt x="205" y="798" on="1"/>
      </contour>
      <contour>
        <pt x="80" y="494" on="1"/>
        <pt x="80" y="560" on="1"/>
        <pt x="80" y="661" on="0"/>
        <pt x="181" y="738" on="0"/>
        <pt x="371" y="738" on="0"/>
        <pt x="506" y="717" on="1"/>
        <pt x="506" y="688" on="1"/>
        <pt x="275" y="697" on="1"/>
        <pt x="268" y="697" on="0"/>
        <pt x="261" y="697" on="1"/>
        <pt x="195" y="697" on="0"/>
        <pt x="121" y="641" on="0"/>
        <pt x="121" y="560" on="1"/>
        <pt x="121" y="494" on="1"/>
        <pt x="121" y="424" on="0"/>
        <pt x="185" y="380" on="0"/>
        <pt x="253" y="380" on="1"/>
        <pt x="376" y="380" on="1"/>
        <pt x="467" y="380" on="0"/>
        <pt x="536" y="296" on="0"/>
        <pt x="536" y="224" on="1"/>
        <pt x="536" y="156" on="1"/>
        <pt x="536" y="55" on="0"/>
        <pt x="474" y="20" on="1"/>
        <pt x="422" y="-8" on="0"/>
        <pt x="340" y="-8" on="1"/>
        <pt x="301" y="-8" on="0"/>
        <pt x="133" y="4" on="0"/>
        <pt x="100" y="10" on="1"/>
        <pt x="100" y="41" on="1"/>
        <pt x="186" y="33" on="0"/>
        <pt x="371" y="33" on="0"/>
        <pt x="420" y="42" on="0"/>
        <pt x="444" y="54" on="1"/>
        <pt x="495" y="80" on="0"/>
        <pt x="495" y="156" on="1"/>
        <pt x="495" y="224" on="1"/>
        <pt x="495" y="282" on="0"/>
        <pt x="440" y="338" on="0"/>
        <pt x="376" y="338" on="1"/>
        <pt x="255" y="338" on="1"/>
        <pt x="143" y="338" on="0"/>
        <pt x="108" y="387" on="1"/>
        <pt x="91" y="411" on="0"/>
        <pt x="80" y="459" on="0"/>
      </contour>
    </TTGlyph>
    <TTGlyph name="T" xMin="46" yMin="0" xMax="561" yMax="732">
      <contour>
        <pt x="46" y="691" on="1"/>
        <pt x="46" y="732" on="1"/>
        <pt x="561" y="732" on="1"/>
        <pt x="561" y="691" on="1"/>
        <pt x="321" y="691" on="1"/>
        <pt x="321" y="0" on="1"/>
        <pt x="280" y="0" on="1"/>
        <pt x="280" y="691" on="1"/>
      </contour>
    </TTGlyph>
    <TTGlyph name="Tbar" xMin="43" yMin="0" xMax="558" yMax="732">
      <contour>
        <pt x="43" y="691" on="1"/>
        <pt x="43" y="732" on="1"/>
        <pt x="558" y="732" on="1"/>
        <pt x="558" y="691" on="1"/>
        <pt x="318" y="691" on="1"/>
        <pt x="318" y="431" on="1"/>
        <pt x="458" y="431" on="1"/>
        <pt x="458" y="403" on="1"/>
        <pt x="318" y="403" on="1"/>
        <pt x="318" y="0" on="1"/>
        <pt x="277" y="0" on="1"/>
        <pt x="277" y="403" on="1"/>
        <pt x="150" y="403" on="1"/>
        <pt x="150" y="431" on="1"/>
        <pt x="277" y="431" on="1"/>
        <pt x="277" y="691" on="1"/>
      </contour>
    </TTGlyph>
    <TTGlyph name="Tcaron" xMin="46" yMin="0" xMax="561" yMax="927">
      <contour>
        <pt x="161" y="927" on="1"/>
        <pt x="196" y="927" on="1"/>
        <pt x="298" y="827" on="1"/>
        <pt x="404" y="927" on="1"/>
        <pt x="440" y="927" on="1"/>
        <pt x="317" y="797" on="1"/>
        <pt x="279" y="797" on="1"/>
      </contour>
      <contour>
        <pt x="46" y="691" on="1"/>
        <pt x="46" y="732" on="1"/>
        <pt x="561" y="732" on="1"/>
        <pt x="561" y="691" on="1"/>
        <pt x="321" y="691" on="1"/>
        <pt x="321" y="0" on="1"/>
        <pt x="280" y="0" on="1"/>
        <pt x="280" y="691" on="1"/>
      </contour>
    </TTGlyph>
    <TTGlyph name="Tcommaaccent" xMin="46" yMin="-182" xMax="561" yMax="732">
      <contour>
        <pt x="283" y="-53" on="1"/>
        <pt x="283" y="-50" on="0"/>
        <pt x="283" y="-46" on="1"/>
        <pt x="317" y="-46" on="1"/>
        <pt x="317" y="-124" on="0"/>
        <pt x="276" y="-182" on="0"/>
        <pt x="216" y="-182" on="1"/>
        <pt x="179" y="-182" on="1"/>
        <pt x="179" y="-165" on="1"/>
        <pt x="218" y="-156" on="1"/>
        <pt x="254" y="-149" on="0"/>
        <pt x="283" y="-107" on="0"/>
      </contour>
      <contour>
        <pt x="46" y="691" on="1"/>
        <pt x="46" y="732" on="1"/>
        <pt x="561" y="732" on="1"/>
        <pt x="561" y="691" on="1"/>
        <pt x="321" y="691" on="1"/>
        <pt x="321" y="0" on="1"/>
        <pt x="280" y="0" on="1"/>
        <pt x="280" y="691" on="1"/>
      </contour>
    </TTGlyph>
    <TTGlyph name="Thorn" xMin="74" yMin="0" xMax="501" yMax="729">
      <contour>
        <pt x="74" y="0" on="1"/>
        <pt x="74" y="729" on="1"/>
        <pt x="115" y="729" on="1"/>
        <pt x="115" y="588" on="1"/>
        <pt x="325" y="588" on="1"/>
        <pt x="501" y="588" on="0"/>
        <pt x="501" y="375" on="1"/>
        <pt x="501" y="215" on="0"/>
        <pt x="418" y="170" on="1"/>
        <pt x="393" y="156" on="0"/>
        <pt x="351" y="149" on="0"/>
        <pt x="325" y="149" on="1"/>
        <pt x="173" y="152" on="0"/>
        <pt x="115" y="162" on="1"/>
        <pt x="115" y="0" on="1"/>
      </contour>
      <contour>
        <pt x="115" y="190" on="1"/>
        <pt x="325" y="190" on="1"/>
        <pt x="391" y="190" on="0"/>
        <pt x="460" y="272" on="0"/>
        <pt x="460" y="377" on="1"/>
        <pt x="460" y="484" on="0"/>
        <pt x="412" y="519" on="1"/>
        <pt x="374" y="547" on="0"/>
        <pt x="325" y="547" on="1"/>
        <pt x="115" y="547" on="1"/>
      </contour>
    </TTGlyph>
    <TTGlyph name="U" xMin="98" yMin="-5" xMax="616" yMax="732">
      <contour>
        <pt x="98" y="320" on="1"/>
        <pt x="98" y="732" on="1"/>
        <pt x="139" y="732" on="1"/>
        <pt x="139" y="320" on="1"/>
        <pt x="139" y="217" on="0"/>
        <pt x="167" y="96" on="0"/>
        <pt x="239" y="46" on="0"/>
        <pt x="296" y="36" on="0"/>
        <pt x="359" y="36" on="1"/>
        <pt x="360" y="36" on="1"/>
        <pt x="475" y="36" on="0"/>
        <pt x="511" y="76" on="1"/>
        <pt x="556" y="126" on="0"/>
        <pt x="567" y="204" on="1"/>
        <pt x="574" y="254" on="0"/>
        <pt x="574" y="320" on="1"/>
        <pt x="574" y="732" on="1"/>
        <pt x="616" y="732" on="1"/>
        <pt x="616" y="320" on="1"/>
        <pt x="616" y="162" on="0"/>
        <pt x="576" y="92" on="1"/>
        <pt x="562" y="68" on="0"/>
        <pt x="537" y="35" on="0"/>
        <pt x="495" y="13" on="0"/>
        <pt x="466" y="2" on="0"/>
        <pt x="441" y="-1" on="1"/>
        <pt x="408" y="-5" on="0"/>
        <pt x="358" y="-5" on="0"/>
        <pt x="324" y="-5" on="0"/>
        <pt x="295" y="-4" on="0"/>
        <pt x="242" y="1" on="0"/>
        <pt x="214" y="12" on="0"/>
        <pt x="172" y="35" on="0"/>
        <pt x="149" y="67" on="0"/>
        <pt x="121" y="116" on="0"/>
        <pt x="114" y="148" on="1"/>
        <pt x="98" y="229" on="0"/>
      </contour>
    </TTGlyph>
    <TTGlyph name="Uacute" xMin="98" yMin="-5" xMax="616" yMax="930">
      <contour>
        <pt x="341" y="797" on="1"/>
        <pt x="457" y="930" on="1"/>
        <pt x="506" y="930" on="1"/>
        <pt x="373" y="797" on="1"/>
      </contour>
      <contour>
        <pt x="98" y="320" on="1"/>
        <pt x="98" y="732" on="1"/>
        <pt x="139" y="732" on="1"/>
        <pt x="139" y="320" on="1"/>
        <pt x="139" y="217" on="0"/>
        <pt x="167" y="96" on="0"/>
        <pt x="239" y="46" on="0"/>
        <pt x="296" y="36" on="0"/>
        <pt x="359" y="36" on="1"/>
        <pt x="360" y="36" on="1"/>
        <pt x="475" y="36" on="0"/>
        <pt x="511" y="76" on="1"/>
        <pt x="556" y="126" on="0"/>
        <pt x="567" y="204" on="1"/>
        <pt x="574" y="254" on="0"/>
        <pt x="574" y="320" on="1"/>
        <pt x="574" y="732" on="1"/>
        <pt x="616" y="732" on="1"/>
        <pt x="616" y="320" on="1"/>
        <pt x="616" y="162" on="0"/>
        <pt x="576" y="92" on="1"/>
        <pt x="562" y="68" on="0"/>
        <pt x="537" y="35" on="0"/>
        <pt x="495" y="13" on="0"/>
        <pt x="466" y="2" on="0"/>
        <pt x="441" y="-1" on="1"/>
        <pt x="408" y="-5" on="0"/>
        <pt x="358" y="-5" on="0"/>
        <pt x="324" y="-5" on="0"/>
        <pt x="295" y="-4" on="0"/>
        <pt x="242" y="1" on="0"/>
        <pt x="214" y="12" on="0"/>
        <pt x="172" y="35" on="0"/>
        <pt x="149" y="67" on="0"/>
        <pt x="121" y="116" on="0"/>
        <pt x="114" y="148" on="1"/>
        <pt x="98" y="229" on="0"/>
      </contour>
    </TTGlyph>
    <TTGlyph name="Ubreve" xMin="98" yMin="-5" xMax="616" yMax="911">
      <contour>
        <pt x="242" y="911" on="1"/>
        <pt x="267" y="911" on="1"/>
        <pt x="267" y="873" on="0"/>
        <pt x="319" y="822" on="0"/>
        <pt x="353" y="822" on="1"/>
        <pt x="395" y="822" on="0"/>
        <pt x="447" y="872" on="0"/>
        <pt x="447" y="911" on="1"/>
        <pt x="472" y="911" on="1"/>
        <pt x="472" y="858" on="0"/>
        <pt x="401" y="797" on="0"/>
        <pt x="312" y="797" on="0"/>
        <pt x="242" y="860" on="0"/>
      </contour>
      <contour>
        <pt x="98" y="320" on="1"/>
        <pt x="98" y="732" on="1"/>
        <pt x="139" y="732" on="1"/>
        <pt x="139" y="320" on="1"/>
        <pt x="139" y="217" on="0"/>
        <pt x="167" y="96" on="0"/>
        <pt x="239" y="46" on="0"/>
        <pt x="296" y="36" on="0"/>
        <pt x="359" y="36" on="1"/>
        <pt x="360" y="36" on="1"/>
        <pt x="475" y="36" on="0"/>
        <pt x="511" y="76" on="1"/>
        <pt x="556" y="126" on="0"/>
        <pt x="567" y="204" on="1"/>
        <pt x="574" y="254" on="0"/>
        <pt x="574" y="320" on="1"/>
        <pt x="574" y="732" on="1"/>
        <pt x="616" y="732" on="1"/>
        <pt x="616" y="320" on="1"/>
        <pt x="616" y="162" on="0"/>
        <pt x="576" y="92" on="1"/>
        <pt x="562" y="68" on="0"/>
        <pt x="537" y="35" on="0"/>
        <pt x="495" y="13" on="0"/>
        <pt x="466" y="2" on="0"/>
        <pt x="441" y="-1" on="1"/>
        <pt x="408" y="-5" on="0"/>
        <pt x="358" y="-5" on="0"/>
        <pt x="324" y="-5" on="0"/>
        <pt x="295" y="-4" on="0"/>
        <pt x="242" y="1" on="0"/>
        <pt x="214" y="12" on="0"/>
        <pt x="172" y="35" on="0"/>
        <pt x="149" y="67" on="0"/>
        <pt x="121" y="116" on="0"/>
        <pt x="114" y="148" on="1"/>
        <pt x="98" y="229" on="0"/>
      </contour>
    </TTGlyph>
    <TTGlyph name="Ucircumflex" xMin="98" yMin="-5" xMax="616" yMax="927">
      <contour>
        <pt x="218" y="797" on="1"/>
        <pt x="345" y="927" on="1"/>
        <pt x="382" y="927" on="1"/>
        <pt x="497" y="797" on="1"/>
        <pt x="461" y="797" on="1"/>
        <pt x="363" y="897" on="1"/>
        <pt x="254" y="797" on="1"/>
      </contour>
      <contour>
        <pt x="98" y="320" on="1"/>
        <pt x="98" y="732" on="1"/>
        <pt x="139" y="732" on="1"/>
        <pt x="139" y="320" on="1"/>
        <pt x="139" y="217" on="0"/>
        <pt x="167" y="96" on="0"/>
        <pt x="239" y="46" on="0"/>
        <pt x="296" y="36" on="0"/>
        <pt x="359" y="36" on="1"/>
        <pt x="360" y="36" on="1"/>
        <pt x="475" y="36" on="0"/>
        <pt x="511" y="76" on="1"/>
        <pt x="556" y="126" on="0"/>
        <pt x="567" y="204" on="1"/>
        <pt x="574" y="254" on="0"/>
        <pt x="574" y="320" on="1"/>
        <pt x="574" y="732" on="1"/>
        <pt x="616" y="732" on="1"/>
        <pt x="616" y="320" on="1"/>
        <pt x="616" y="162" on="0"/>
        <pt x="576" y="92" on="1"/>
        <pt x="562" y="68" on="0"/>
        <pt x="537" y="35" on="0"/>
        <pt x="495" y="13" on="0"/>
        <pt x="466" y="2" on="0"/>
        <pt x="441" y="-1" on="1"/>
        <pt x="408" y="-5" on="0"/>
        <pt x="358" y="-5" on="0"/>
        <pt x="324" y="-5" on="0"/>
        <pt x="295" y="-4" on="0"/>
        <pt x="242" y="1" on="0"/>
        <pt x="214" y="12" on="0"/>
        <pt x="172" y="35" on="0"/>
        <pt x="149" y="67" on="0"/>
        <pt x="121" y="116" on="0"/>
        <pt x="114" y="148" on="1"/>
        <pt x="98" y="229" on="0"/>
      </contour>
    </TTGlyph>
    <TTGlyph name="Udieresis" xMin="98" yMin="-5" xMax="616" yMax="854">
      <contour>
        <pt x="201" y="814" on="0"/>
        <pt x="201" y="838" on="0"/>
        <pt x="217" y="854" on="0"/>
        <pt x="241" y="854" on="0"/>
        <pt x="258" y="838" on="0"/>
        <pt x="258" y="814" on="0"/>
        <pt x="241" y="797" on="0"/>
        <pt x="217" y="797" on="0"/>
      </contour>
      <contour>
        <pt x="455" y="814" on="0"/>
        <pt x="455" y="838" on="0"/>
        <pt x="472" y="854" on="0"/>
        <pt x="496" y="854" on="0"/>
        <pt x="513" y="838" on="0"/>
        <pt x="513" y="814" on="0"/>
        <pt x="496" y="797" on="0"/>
        <pt x="472" y="797" on="0"/>
      </contour>
      <contour>
        <pt x="98" y="320" on="1"/>
        <pt x="98" y="732" on="1"/>
        <pt x="139" y="732" on="1"/>
        <pt x="139" y="320" on="1"/>
        <pt x="139" y="217" on="0"/>
        <pt x="167" y="96" on="0"/>
        <pt x="239" y="46" on="0"/>
        <pt x="296" y="36" on="0"/>
        <pt x="359" y="36" on="1"/>
        <pt x="360" y="36" on="1"/>
        <pt x="475" y="36" on="0"/>
        <pt x="511" y="76" on="1"/>
        <pt x="556" y="126" on="0"/>
        <pt x="567" y="204" on="1"/>
        <pt x="574" y="254" on="0"/>
        <pt x="574" y="320" on="1"/>
        <pt x="574" y="732" on="1"/>
        <pt x="616" y="732" on="1"/>
        <pt x="616" y="320" on="1"/>
        <pt x="616" y="162" on="0"/>
        <pt x="576" y="92" on="1"/>
        <pt x="562" y="68" on="0"/>
        <pt x="537" y="35" on="0"/>
        <pt x="495" y="13" on="0"/>
        <pt x="466" y="2" on="0"/>
        <pt x="441" y="-1" on="1"/>
        <pt x="408" y="-5" on="0"/>
        <pt x="358" y="-5" on="0"/>
        <pt x="324" y="-5" on="0"/>
        <pt x="295" y="-4" on="0"/>
        <pt x="242" y="1" on="0"/>
        <pt x="214" y="12" on="0"/>
        <pt x="172" y="35" on="0"/>
        <pt x="149" y="67" on="0"/>
        <pt x="121" y="116" on="0"/>
        <pt x="114" y="148" on="1"/>
        <pt x="98" y="229" on="0"/>
      </contour>
    </TTGlyph>
    <TTGlyph name="Ugrave" xMin="98" yMin="-5" xMax="616" yMax="930">
      <contour>
        <pt x="208" y="930" on="1"/>
        <pt x="257" y="930" on="1"/>
        <pt x="373" y="797" on="1"/>
        <pt x="341" y="797" on="1"/>
      </contour>
      <contour>
        <pt x="98" y="320" on="1"/>
        <pt x="98" y="732" on="1"/>
        <pt x="139" y="732" on="1"/>
        <pt x="139" y="320" on="1"/>
        <pt x="139" y="217" on="0"/>
        <pt x="167" y="96" on="0"/>
        <pt x="239" y="46" on="0"/>
        <pt x="296" y="36" on="0"/>
        <pt x="359" y="36" on="1"/>
        <pt x="360" y="36" on="1"/>
        <pt x="475" y="36" on="0"/>
        <pt x="511" y="76" on="1"/>
        <pt x="556" y="126" on="0"/>
        <pt x="567" y="204" on="1"/>
        <pt x="574" y="254" on="0"/>
        <pt x="574" y="320" on="1"/>
        <pt x="574" y="732" on="1"/>
        <pt x="616" y="732" on="1"/>
        <pt x="616" y="320" on="1"/>
        <pt x="616" y="162" on="0"/>
        <pt x="576" y="92" on="1"/>
        <pt x="562" y="68" on="0"/>
        <pt x="537" y="35" on="0"/>
        <pt x="495" y="13" on="0"/>
        <pt x="466" y="2" on="0"/>
        <pt x="441" y="-1" on="1"/>
        <pt x="408" y="-5" on="0"/>
        <pt x="358" y="-5" on="0"/>
        <pt x="324" y="-5" on="0"/>
        <pt x="295" y="-4" on="0"/>
        <pt x="242" y="1" on="0"/>
        <pt x="214" y="12" on="0"/>
        <pt x="172" y="35" on="0"/>
        <pt x="149" y="67" on="0"/>
        <pt x="121" y="116" on="0"/>
        <pt x="114" y="148" on="1"/>
        <pt x="98" y="229" on="0"/>
      </contour>
    </TTGlyph>
    <TTGlyph name="Uhungarumlaut" xMin="98" yMin="-5" xMax="616" yMax="930">
      <contour>
        <pt x="272" y="797" on="1"/>
        <pt x="388" y="930" on="1"/>
        <pt x="437" y="930" on="1"/>
        <pt x="304" y="797" on="1"/>
      </contour>
      <contour>
        <pt x="409" y="797" on="1"/>
        <pt x="525" y="930" on="1"/>
        <pt x="575" y="930" on="1"/>
        <pt x="442" y="797" on="1"/>
      </contour>
      <contour>
        <pt x="98" y="320" on="1"/>
        <pt x="98" y="732" on="1"/>
        <pt x="139" y="732" on="1"/>
        <pt x="139" y="320" on="1"/>
        <pt x="139" y="217" on="0"/>
        <pt x="167" y="96" on="0"/>
        <pt x="239" y="46" on="0"/>
        <pt x="296" y="36" on="0"/>
        <pt x="359" y="36" on="1"/>
        <pt x="360" y="36" on="1"/>
        <pt x="475" y="36" on="0"/>
        <pt x="511" y="76" on="1"/>
        <pt x="556" y="126" on="0"/>
        <pt x="567" y="204" on="1"/>
        <pt x="574" y="254" on="0"/>
        <pt x="574" y="320" on="1"/>
        <pt x="574" y="732" on="1"/>
        <pt x="616" y="732" on="1"/>
        <pt x="616" y="320" on="1"/>
        <pt x="616" y="162" on="0"/>
        <pt x="576" y="92" on="1"/>
        <pt x="562" y="68" on="0"/>
        <pt x="537" y="35" on="0"/>
        <pt x="495" y="13" on="0"/>
        <pt x="466" y="2" on="0"/>
        <pt x="441" y="-1" on="1"/>
        <pt x="408" y="-5" on="0"/>
        <pt x="358" y="-5" on="0"/>
        <pt x="324" y="-5" on="0"/>
        <pt x="295" y="-4" on="0"/>
        <pt x="242" y="1" on="0"/>
        <pt x="214" y="12" on="0"/>
        <pt x="172" y="35" on="0"/>
        <pt x="149" y="67" on="0"/>
        <pt x="121" y="116" on="0"/>
        <pt x="114" y="148" on="1"/>
        <pt x="98" y="229" on="0"/>
      </contour>
    </TTGlyph>
    <TTGlyph name="Umacron" xMin="98" yMin="-5" xMax="616" yMax="828">
      <contour>
        <pt x="224" y="797" on="1"/>
        <pt x="224" y="828" on="1"/>
        <pt x="489" y="828" on="1"/>
        <pt x="489" y="797" on="1"/>
      </contour>
      <contour>
        <pt x="98" y="320" on="1"/>
        <pt x="98" y="732" on="1"/>
        <pt x="139" y="732" on="1"/>
        <pt x="139" y="320" on="1"/>
        <pt x="139" y="217" on="0"/>
        <pt x="167" y="96" on="0"/>
        <pt x="239" y="46" on="0"/>
        <pt x="296" y="36" on="0"/>
        <pt x="359" y="36" on="1"/>
        <pt x="360" y="36" on="1"/>
        <pt x="475" y="36" on="0"/>
        <pt x="511" y="76" on="1"/>
        <pt x="556" y="126" on="0"/>
        <pt x="567" y="204" on="1"/>
        <pt x="574" y="254" on="0"/>
        <pt x="574" y="320" on="1"/>
        <pt x="574" y="732" on="1"/>
        <pt x="616" y="732" on="1"/>
        <pt x="616" y="320" on="1"/>
        <pt x="616" y="162" on="0"/>
        <pt x="576" y="92" on="1"/>
        <pt x="562" y="68" on="0"/>
        <pt x="537" y="35" on="0"/>
        <pt x="495" y="13" on="0"/>
        <pt x="466" y="2" on="0"/>
        <pt x="441" y="-1" on="1"/>
        <pt x="408" y="-5" on="0"/>
        <pt x="358" y="-5" on="0"/>
        <pt x="324" y="-5" on="0"/>
        <pt x="295" y="-4" on="0"/>
        <pt x="242" y="1" on="0"/>
        <pt x="214" y="12" on="0"/>
        <pt x="172" y="35" on="0"/>
        <pt x="149" y="67" on="0"/>
        <pt x="121" y="116" on="0"/>
        <pt x="114" y="148" on="1"/>
        <pt x="98" y="229" on="0"/>
      </contour>
    </TTGlyph>
    <TTGlyph name="Uogonek" xMin="98" yMin="-187" xMax="616" yMax="732">
      <contour>
        <pt x="368" y="-4" on="1"/>
        <pt x="297" y="-41" on="0"/>
        <pt x="297" y="-96" on="1"/>
        <pt x="297" y="-112" on="0"/>
        <pt x="312" y="-128" on="1"/>
        <pt x="336" y="-155" on="0"/>
        <pt x="390" y="-155" on="1"/>
        <pt x="390" y="-185" on="1"/>
        <pt x="380" y="-186" on="0"/>
        <pt x="340" y="-186" on="0"/>
        <pt x="281" y="-154" on="0"/>
        <pt x="269" y="-125" on="1"/>
        <pt x="264" y="-114" on="0"/>
        <pt x="264" y="-82" on="0"/>
        <pt x="276" y="-62" on="1"/>
        <pt x="294" y="-27" on="0"/>
        <pt x="347" y="-4" on="1"/>
      </contour>
      <contour>
        <pt x="98" y="320" on="1"/>
        <pt x="98" y="732" on="1"/>
        <pt x="139" y="732" on="1"/>
        <pt x="139" y="320" on="1"/>
        <pt x="139" y="217" on="0"/>
        <pt x="167" y="96" on="0"/>
        <pt x="239" y="46" on="0"/>
        <pt x="296" y="36" on="0"/>
        <pt x="359" y="36" on="1"/>
        <pt x="360" y="36" on="1"/>
        <pt x="475" y="36" on="0"/>
        <pt x="511" y="76" on="1"/>
        <pt x="556" y="126" on="0"/>
        <pt x="567" y="204" on="1"/>
        <pt x="574" y="254" on="0"/>
        <pt x="574" y="320" on="1"/>
        <pt x="574" y="732" on="1"/>
        <pt x="616" y="732" on="1"/>
        <pt x="616" y="320" on="1"/>
        <pt x="616" y="162" on="0"/>
        <pt x="576" y="92" on="1"/>
        <pt x="562" y="68" on="0"/>
        <pt x="537" y="35" on="0"/>
        <pt x="495" y="13" on="0"/>
        <pt x="466" y="2" on="0"/>
        <pt x="441" y="-1" on="1"/>
        <pt x="408" y="-5" on="0"/>
        <pt x="358" y="-5" on="0"/>
        <pt x="324" y="-5" on="0"/>
        <pt x="295" y="-4" on="0"/>
        <pt x="242" y="1" on="0"/>
        <pt x="214" y="12" on="0"/>
        <pt x="172" y="35" on="0"/>
        <pt x="149" y="67" on="0"/>
        <pt x="121" y="116" on="0"/>
        <pt x="114" y="148" on="1"/>
        <pt x="98" y="229" on="0"/>
      </contour>
    </TTGlyph>
    <TTGlyph name="Uring" xMin="98" yMin="-5" xMax="616" yMax="1002">
      <contour>
        <pt x="256" y="856" on="0"/>
        <pt x="256" y="942" on="0"/>
        <pt x="316" y="1002" on="0"/>
        <pt x="400" y="1002" on="0"/>
        <pt x="458" y="942" on="0"/>
        <pt x="458" y="856" on="0"/>
        <pt x="400" y="797" on="0"/>
        <pt x="316" y="797" on="0"/>
      </contour>
      <contour>
        <pt x="281" y="930" on="0"/>
        <pt x="281" y="868" on="0"/>
        <pt x="326" y="823" on="0"/>
        <pt x="389" y="823" on="0"/>
        <pt x="433" y="867" on="0"/>
        <pt x="433" y="931" on="0"/>
        <pt x="389" y="976" on="0"/>
        <pt x="326" y="976" on="0"/>
      </contour>
      <contour>
        <pt x="98" y="320" on="1"/>
        <pt x="98" y="732" on="1"/>
        <pt x="139" y="732" on="1"/>
        <pt x="139" y="320" on="1"/>
        <pt x="139" y="217" on="0"/>
        <pt x="167" y="96" on="0"/>
        <pt x="239" y="46" on="0"/>
        <pt x="296" y="36" on="0"/>
        <pt x="359" y="36" on="1"/>
        <pt x="360" y="36" on="1"/>
        <pt x="475" y="36" on="0"/>
        <pt x="511" y="76" on="1"/>
        <pt x="556" y="126" on="0"/>
        <pt x="567" y="204" on="1"/>
        <pt x="574" y="254" on="0"/>
        <pt x="574" y="320" on="1"/>
        <pt x="574" y="732" on="1"/>
        <pt x="616" y="732" on="1"/>
        <pt x="616" y="320" on="1"/>
        <pt x="616" y="162" on="0"/>
        <pt x="576" y="92" on="1"/>
        <pt x="562" y="68" on="0"/>
        <pt x="537" y="35" on="0"/>
        <pt x="495" y="13" on="0"/>
        <pt x="466" y="2" on="0"/>
        <pt x="441" y="-1" on="1"/>
        <pt x="408" y="-5" on="0"/>
        <pt x="358" y="-5" on="0"/>
        <pt x="324" y="-5" on="0"/>
        <pt x="295" y="-4" on="0"/>
        <pt x="242" y="1" on="0"/>
        <pt x="214" y="12" on="0"/>
        <pt x="172" y="35" on="0"/>
        <pt x="149" y="67" on="0"/>
        <pt x="121" y="116" on="0"/>
        <pt x="114" y="148" on="1"/>
        <pt x="98" y="229" on="0"/>
      </contour>
    </TTGlyph>
    <TTGlyph name="Utilde" xMin="98" yMin="-5" xMax="616" yMax="890">
      <contour>
        <pt x="321" y="889" on="0"/>
        <pt x="404" y="830" on="0"/>
        <pt x="426" y="830" on="0"/>
        <pt x="445" y="835" on="0"/>
        <pt x="459" y="841" on="0"/>
        <pt x="480" y="853" on="0"/>
        <pt x="484" y="856" on="1"/>
        <pt x="505" y="873" on="0"/>
        <pt x="514" y="877" on="1"/>
        <pt x="526" y="858" on="1"/>
        <pt x="502" y="836" on="0"/>
        <pt x="480" y="818" on="0"/>
        <pt x="436" y="796" on="0"/>
        <pt x="392" y="797" on="0"/>
        <pt x="313" y="856" on="0"/>
        <pt x="283" y="856" on="0"/>
        <pt x="255" y="847" on="0"/>
        <pt x="239" y="838" on="0"/>
        <pt x="206" y="816" on="0"/>
        <pt x="198" y="811" on="1"/>
        <pt x="188" y="830" on="1"/>
        <pt x="212" y="850" on="0"/>
        <pt x="225" y="860" on="1"/>
        <pt x="262" y="890" on="0"/>
        <pt x="298" y="890" on="1"/>
      </contour>
      <contour>
        <pt x="98" y="320" on="1"/>
        <pt x="98" y="732" on="1"/>
        <pt x="139" y="732" on="1"/>
        <pt x="139" y="320" on="1"/>
        <pt x="139" y="217" on="0"/>
        <pt x="167" y="96" on="0"/>
        <pt x="239" y="46" on="0"/>
        <pt x="296" y="36" on="0"/>
        <pt x="359" y="36" on="1"/>
        <pt x="360" y="36" on="1"/>
        <pt x="475" y="36" on="0"/>
        <pt x="511" y="76" on="1"/>
        <pt x="556" y="126" on="0"/>
        <pt x="567" y="204" on="1"/>
        <pt x="574" y="254" on="0"/>
        <pt x="574" y="320" on="1"/>
        <pt x="574" y="732" on="1"/>
        <pt x="616" y="732" on="1"/>
        <pt x="616" y="320" on="1"/>
        <pt x="616" y="162" on="0"/>
        <pt x="576" y="92" on="1"/>
        <pt x="562" y="68" on="0"/>
        <pt x="537" y="35" on="0"/>
        <pt x="495" y="13" on="0"/>
        <pt x="466" y="2" on="0"/>
        <pt x="441" y="-1" on="1"/>
        <pt x="408" y="-5" on="0"/>
        <pt x="358" y="-5" on="0"/>
        <pt x="324" y="-5" on="0"/>
        <pt x="295" y="-4" on="0"/>
        <pt x="242" y="1" on="0"/>
        <pt x="214" y="12" on="0"/>
        <pt x="172" y="35" on="0"/>
        <pt x="149" y="67" on="0"/>
        <pt x="121" y="116" on="0"/>
        <pt x="114" y="148" on="1"/>
        <pt x="98" y="229" on="0"/>
      </contour>
    </TTGlyph>
    <TTGlyph name="V" xMin="56" yMin="0" xMax="636" yMax="732">
      <contour>
        <pt x="56" y="732" on="1"/>
        <pt x="100" y="732" on="1"/>
        <pt x="340" y="56" on="1"/>
        <pt x="591" y="732" on="1"/>
        <pt x="636" y="732" on="1"/>
        <pt x="363" y="0" on="1"/>
        <pt x="316" y="0" on="1"/>
      </contour>
    </TTGlyph>
    <TTGlyph name="W" xMin="56" yMin="0" xMax="941" yMax="732">
      <contour>
        <pt x="56" y="732" on="1"/>
        <pt x="100" y="732" on="1"/>
        <pt x="340" y="60" on="1"/>
        <pt x="563" y="732" on="1"/>
        <pt x="609" y="732" on="1"/>
        <pt x="518" y="454" on="1"/>
        <pt x="670" y="58" on="1"/>
        <pt x="898" y="732" on="1"/>
        <pt x="941" y="732" on="1"/>
        <pt x="695" y="0" on="1"/>
        <pt x="648" y="0" on="1"/>
        <pt x="496" y="389" on="1"/>
        <pt x="363" y="0" on="1"/>
        <pt x="316" y="0" on="1"/>
      </contour>
    </TTGlyph>
    <TTGlyph name="Wacute" xMin="56" yMin="0" xMax="941" yMax="928">
      <contour>
        <pt x="486" y="795" on="1"/>
        <pt x="602" y="928" on="1"/>
        <pt x="651" y="928" on="1"/>
        <pt x="518" y="795" on="1"/>
      </contour>
      <contour>
        <pt x="56" y="732" on="1"/>
        <pt x="100" y="732" on="1"/>
        <pt x="340" y="60" on="1"/>
        <pt x="563" y="732" on="1"/>
        <pt x="609" y="732" on="1"/>
        <pt x="518" y="454" on="1"/>
        <pt x="670" y="58" on="1"/>
        <pt x="898" y="732" on="1"/>
        <pt x="941" y="732" on="1"/>
        <pt x="695" y="0" on="1"/>
        <pt x="648" y="0" on="1"/>
        <pt x="496" y="389" on="1"/>
        <pt x="363" y="0" on="1"/>
        <pt x="316" y="0" on="1"/>
      </contour>
    </TTGlyph>
    <TTGlyph name="Wcircumflex" xMin="56" yMin="0" xMax="941" yMax="925">
      <contour>
        <pt x="362" y="795" on="1"/>
        <pt x="489" y="925" on="1"/>
        <pt x="526" y="925" on="1"/>
        <pt x="641" y="795" on="1"/>
        <pt x="605" y="795" on="1"/>
        <pt x="507" y="895" on="1"/>
        <pt x="398" y="795" on="1"/>
      </contour>
      <contour>
        <pt x="56" y="732" on="1"/>
        <pt x="100" y="732" on="1"/>
        <pt x="340" y="60" on="1"/>
        <pt x="563" y="732" on="1"/>
        <pt x="609" y="732" on="1"/>
        <pt x="518" y="454" on="1"/>
        <pt x="670" y="58" on="1"/>
        <pt x="898" y="732" on="1"/>
        <pt x="941" y="732" on="1"/>
        <pt x="695" y="0" on="1"/>
        <pt x="648" y="0" on="1"/>
        <pt x="496" y="389" on="1"/>
        <pt x="363" y="0" on="1"/>
        <pt x="316" y="0" on="1"/>
      </contour>
    </TTGlyph>
    <TTGlyph name="Wdieresis" xMin="56" yMin="0" xMax="941" yMax="853">
      <contour>
        <pt x="346" y="813" on="0"/>
        <pt x="346" y="837" on="0"/>
        <pt x="362" y="853" on="0"/>
        <pt x="386" y="853" on="0"/>
        <pt x="403" y="837" on="0"/>
        <pt x="403" y="813" on="0"/>
        <pt x="386" y="796" on="0"/>
        <pt x="362" y="796" on="0"/>
      </contour>
      <contour>
        <pt x="600" y="813" on="0"/>
        <pt x="600" y="837" on="0"/>
        <pt x="617" y="853" on="0"/>
        <pt x="641" y="853" on="0"/>
        <pt x="658" y="837" on="0"/>
        <pt x="658" y="813" on="0"/>
        <pt x="641" y="796" on="0"/>
        <pt x="617" y="796" on="0"/>
      </contour>
      <contour>
        <pt x="56" y="732" on="1"/>
        <pt x="100" y="732" on="1"/>
        <pt x="340" y="60" on="1"/>
        <pt x="563" y="732" on="1"/>
        <pt x="609" y="732" on="1"/>
        <pt x="518" y="454" on="1"/>
        <pt x="670" y="58" on="1"/>
        <pt x="898" y="732" on="1"/>
        <pt x="941" y="732" on="1"/>
        <pt x="695" y="0" on="1"/>
        <pt x="648" y="0" on="1"/>
        <pt x="496" y="389" on="1"/>
        <pt x="363" y="0" on="1"/>
        <pt x="316" y="0" on="1"/>
      </contour>
    </TTGlyph>
    <TTGlyph name="Wgrave" xMin="56" yMin="0" xMax="941" yMax="928">
      <contour>
        <pt x="353" y="928" on="1"/>
        <pt x="402" y="928" on="1"/>
        <pt x="518" y="795" on="1"/>
        <pt x="486" y="795" on="1"/>
      </contour>
      <contour>
        <pt x="56" y="732" on="1"/>
        <pt x="100" y="732" on="1"/>
        <pt x="340" y="60" on="1"/>
        <pt x="563" y="732" on="1"/>
        <pt x="609" y="732" on="1"/>
        <pt x="518" y="454" on="1"/>
        <pt x="670" y="58" on="1"/>
        <pt x="898" y="732" on="1"/>
        <pt x="941" y="732" on="1"/>
        <pt x="695" y="0" on="1"/>
        <pt x="648" y="0" on="1"/>
        <pt x="496" y="389" on="1"/>
        <pt x="363" y="0" on="1"/>
        <pt x="316" y="0" on="1"/>
      </contour>
    </TTGlyph>
    <TTGlyph name="X" xMin="56" yMin="0" xMax="549" yMax="732">
      <contour>
        <pt x="56" y="732" on="1"/>
        <pt x="104" y="732" on="1"/>
        <pt x="301" y="401" on="1"/>
        <pt x="501" y="732" on="1"/>
        <pt x="549" y="732" on="1"/>
        <pt x="328" y="366" on="1"/>
        <pt x="544" y="0" on="1"/>
        <pt x="496" y="0" on="1"/>
        <pt x="301" y="327" on="1"/>
        <pt x="107" y="0" on="1"/>
        <pt x="59" y="0" on="1"/>
        <pt x="274" y="366" on="1"/>
      </contour>
    </TTGlyph>
    <TTGlyph name="X.salt" xMin="25" yMin="0" xMax="583" yMax="732">
      <contour>
        <pt x="226" y="298" on="1"/>
        <pt x="249" y="331" on="0"/>
        <pt x="249" y="416" on="0"/>
        <pt x="208" y="470" on="1"/>
        <pt x="25" y="732" on="1"/>
        <pt x="72" y="732" on="1"/>
        <pt x="245" y="487" on="1"/>
        <pt x="290" y="424" on="0"/>
        <pt x="290" y="364" on="1"/>
        <pt x="290" y="318" on="0"/>
        <pt x="266" y="284" on="1"/>
        <pt x="73" y="0" on="1"/>
        <pt x="25" y="0" on="1"/>
      </contour>
      <contour>
        <pt x="318" y="351" on="1"/>
        <pt x="318" y="357" on="0"/>
        <pt x="318" y="394" on="0"/>
        <pt x="340" y="455" on="0"/>
        <pt x="363" y="487" on="1"/>
        <pt x="536" y="732" on="1"/>
        <pt x="583" y="732" on="1"/>
        <pt x="400" y="470" on="1"/>
        <pt x="359" y="416" on="0"/>
        <pt x="359" y="331" on="0"/>
        <pt x="382" y="298" on="1"/>
        <pt x="583" y="0" on="1"/>
        <pt x="535" y="0" on="1"/>
        <pt x="342" y="284" on="1"/>
        <pt x="321" y="314" on="0"/>
      </contour>
    </TTGlyph>
    <TTGlyph name="Y" xMin="56" yMin="0" xMax="596" yMax="732">
      <contour>
        <pt x="336" y="0" on="1"/>
        <pt x="295" y="0" on="1"/>
        <pt x="295" y="260" on="1"/>
        <pt x="56" y="732" on="1"/>
        <pt x="101" y="732" on="1"/>
        <pt x="316" y="310" on="1"/>
        <pt x="550" y="732" on="1"/>
        <pt x="596" y="732" on="1"/>
        <pt x="336" y="260" on="1"/>
      </contour>
    </TTGlyph>
    <TTGlyph name="Yacute" xMin="56" yMin="0" xMax="596" yMax="930">
      <contour>
        <pt x="310" y="797" on="1"/>
        <pt x="426" y="930" on="1"/>
        <pt x="475" y="930" on="1"/>
        <pt x="342" y="797" on="1"/>
      </contour>
      <contour>
        <pt x="336" y="0" on="1"/>
        <pt x="295" y="0" on="1"/>
        <pt x="295" y="260" on="1"/>
        <pt x="56" y="732" on="1"/>
        <pt x="101" y="732" on="1"/>
        <pt x="316" y="310" on="1"/>
        <pt x="550" y="732" on="1"/>
        <pt x="596" y="732" on="1"/>
        <pt x="336" y="260" on="1"/>
      </contour>
    </TTGlyph>
    <TTGlyph name="Ycircumflex" xMin="56" yMin="0" xMax="596" yMax="925">
      <contour>
        <pt x="183" y="795" on="1"/>
        <pt x="310" y="925" on="1"/>
        <pt x="347" y="925" on="1"/>
        <pt x="462" y="795" on="1"/>
        <pt x="426" y="795" on="1"/>
        <pt x="328" y="895" on="1"/>
        <pt x="219" y="795" on="1"/>
      </contour>
      <contour>
        <pt x="336" y="0" on="1"/>
        <pt x="295" y="0" on="1"/>
        <pt x="295" y="260" on="1"/>
        <pt x="56" y="732" on="1"/>
        <pt x="101" y="732" on="1"/>
        <pt x="316" y="310" on="1"/>
        <pt x="550" y="732" on="1"/>
        <pt x="596" y="732" on="1"/>
        <pt x="336" y="260" on="1"/>
      </contour>
    </TTGlyph>
    <TTGlyph name="Ydieresis" xMin="56" yMin="0" xMax="596" yMax="854">
      <contour>
        <pt x="170" y="814" on="0"/>
        <pt x="170" y="838" on="0"/>
        <pt x="186" y="854" on="0"/>
        <pt x="210" y="854" on="0"/>
        <pt x="227" y="838" on="0"/>
        <pt x="227" y="814" on="0"/>
        <pt x="210" y="797" on="0"/>
        <pt x="186" y="797" on="0"/>
      </contour>
      <contour>
        <pt x="424" y="814" on="0"/>
        <pt x="424" y="838" on="0"/>
        <pt x="441" y="854" on="0"/>
        <pt x="465" y="854" on="0"/>
        <pt x="482" y="838" on="0"/>
        <pt x="482" y="814" on="0"/>
        <pt x="465" y="797" on="0"/>
        <pt x="441" y="797" on="0"/>
      </contour>
      <contour>
        <pt x="336" y="0" on="1"/>
        <pt x="295" y="0" on="1"/>
        <pt x="295" y="260" on="1"/>
        <pt x="56" y="732" on="1"/>
        <pt x="101" y="732" on="1"/>
        <pt x="316" y="310" on="1"/>
        <pt x="550" y="732" on="1"/>
        <pt x="596" y="732" on="1"/>
        <pt x="336" y="260" on="1"/>
      </contour>
    </TTGlyph>
    <TTGlyph name="Ygrave" xMin="56" yMin="0" xMax="596" yMax="930">
      <contour>
        <pt x="177" y="930" on="1"/>
        <pt x="226" y="930" on="1"/>
        <pt x="342" y="797" on="1"/>
        <pt x="310" y="797" on="1"/>
      </contour>
      <contour>
        <pt x="336" y="0" on="1"/>
        <pt x="295" y="0" on="1"/>
        <pt x="295" y="260" on="1"/>
        <pt x="56" y="732" on="1"/>
        <pt x="101" y="732" on="1"/>
        <pt x="316" y="310" on="1"/>
        <pt x="550" y="732" on="1"/>
        <pt x="596" y="732" on="1"/>
        <pt x="336" y="260" on="1"/>
      </contour>
    </TTGlyph>
    <TTGlyph name="Z" xMin="43" yMin="0" xMax="516" yMax="732">
      <contour>
        <pt x="43" y="0" on="1"/>
        <pt x="43" y="41" on="1"/>
        <pt x="463" y="691" on="1"/>
        <pt x="43" y="691" on="1"/>
        <pt x="43" y="732" on="1"/>
        <pt x="516" y="732" on="1"/>
        <pt x="516" y="691" on="1"/>
        <pt x="96" y="41" on="1"/>
        <pt x="516" y="41" on="1"/>
        <pt x="516" y="0" on="1"/>
      </contour>
    </TTGlyph>
    <TTGlyph name="Zacute" xMin="43" yMin="0" xMax="516" yMax="930">
      <contour>
        <pt x="277" y="797" on="1"/>
        <pt x="393" y="930" on="1"/>
        <pt x="442" y="930" on="1"/>
        <pt x="309" y="797" on="1"/>
      </contour>
      <contour>
        <pt x="43" y="0" on="1"/>
        <pt x="43" y="41" on="1"/>
        <pt x="463" y="691" on="1"/>
        <pt x="43" y="691" on="1"/>
        <pt x="43" y="732" on="1"/>
        <pt x="516" y="732" on="1"/>
        <pt x="516" y="691" on="1"/>
        <pt x="96" y="41" on="1"/>
        <pt x="516" y="41" on="1"/>
        <pt x="516" y="0" on="1"/>
      </contour>
    </TTGlyph>
    <TTGlyph name="Zcaron" xMin="43" yMin="0" xMax="516" yMax="927">
      <contour>
        <pt x="140" y="927" on="1"/>
        <pt x="175" y="927" on="1"/>
        <pt x="277" y="827" on="1"/>
        <pt x="383" y="927" on="1"/>
        <pt x="419" y="927" on="1"/>
        <pt x="296" y="797" on="1"/>
        <pt x="258" y="797" on="1"/>
      </contour>
      <contour>
        <pt x="43" y="0" on="1"/>
        <pt x="43" y="41" on="1"/>
        <pt x="463" y="691" on="1"/>
        <pt x="43" y="691" on="1"/>
        <pt x="43" y="732" on="1"/>
        <pt x="516" y="732" on="1"/>
        <pt x="516" y="691" on="1"/>
        <pt x="96" y="41" on="1"/>
        <pt x="516" y="41" on="1"/>
        <pt x="516" y="0" on="1"/>
      </contour>
    </TTGlyph>
    <TTGlyph name="Zdotaccent" xMin="43" yMin="0" xMax="516" yMax="888">
      <contour>
        <pt x="252" y="813" on="1"/>
        <pt x="252" y="872" on="1"/>
        <pt x="252" y="888" on="0"/>
        <pt x="268" y="888" on="1"/>
        <pt x="292" y="888" on="1"/>
        <pt x="308" y="888" on="0"/>
        <pt x="308" y="872" on="1"/>
        <pt x="308" y="813" on="1"/>
        <pt x="308" y="797" on="0"/>
        <pt x="292" y="797" on="1"/>
        <pt x="268" y="797" on="1"/>
        <pt x="252" y="797" on="0"/>
      </contour>
      <contour>
        <pt x="43" y="0" on="1"/>
        <pt x="43" y="41" on="1"/>
        <pt x="463" y="691" on="1"/>
        <pt x="43" y="691" on="1"/>
        <pt x="43" y="732" on="1"/>
        <pt x="516" y="732" on="1"/>
        <pt x="516" y="691" on="1"/>
        <pt x="96" y="41" on="1"/>
        <pt x="516" y="41" on="1"/>
        <pt x="516" y="0" on="1"/>
      </contour>
    </TTGlyph>
    <TTGlyph name="a" xMin="49" yMin="-6" xMax="458" yMax="542">
      <contour>
        <pt x="66" y="510" on="1"/>
        <pt x="185" y="541" on="0"/>
        <pt x="308" y="541" on="1"/>
        <pt x="373" y="541" on="0"/>
        <pt x="458" y="465" on="0"/>
        <pt x="458" y="387" on="1"/>
        <pt x="458" y="0" on="1"/>
        <pt x="430" y="0" on="1"/>
        <pt x="417" y="64" on="1"/>
        <pt x="402" y="57" on="1"/>
        <pt x="306" y="14" on="0"/>
        <pt x="209" y="-6" on="0"/>
        <pt x="182" y="-6" on="1"/>
        <pt x="125" y="-6" on="0"/>
        <pt x="49" y="64" on="0"/>
        <pt x="49" y="126" on="1"/>
        <pt x="49" y="187" on="1"/>
        <pt x="49" y="249" on="0"/>
        <pt x="120" y="320" on="0"/>
        <pt x="182" y="320" on="1"/>
        <pt x="300" y="320" on="0"/>
        <pt x="417" y="320" on="0"/>
        <pt x="417" y="320" on="1"/>
        <pt x="418" y="353" on="0"/>
        <pt x="418" y="386" on="0"/>
        <pt x="417" y="387" on="1"/>
        <pt x="417" y="501" on="0"/>
        <pt x="304" y="502" on="1"/>
        <pt x="300" y="502" on="0"/>
        <pt x="296" y="502" on="1"/>
        <pt x="215" y="502" on="0"/>
        <pt x="66" y="483" on="1"/>
      </contour>
      <contour>
        <pt x="90" y="131" on="1"/>
        <pt x="90" y="81" on="0"/>
        <pt x="144" y="36" on="0"/>
        <pt x="218" y="35" on="0"/>
        <pt x="335" y="63" on="0"/>
        <pt x="376" y="78" on="1"/>
        <pt x="417" y="92" on="1"/>
        <pt x="417" y="291" on="1"/>
        <pt x="182" y="279" on="1"/>
        <pt x="90" y="275" on="0"/>
        <pt x="90" y="185" on="1"/>
      </contour>
    </TTGlyph>
    <TTGlyph name="a.salt" xMin="62" yMin="0" xMax="477" yMax="538">
      <contour>
        <pt x="62" y="131" on="1"/>
        <pt x="62" y="195" on="1"/>
        <pt x="62" y="317" on="0"/>
        <pt x="198" y="317" on="1"/>
        <pt x="436" y="317" on="1"/>
        <pt x="436" y="452" on="0"/>
        <pt x="378" y="481" on="1"/>
        <pt x="348" y="496" on="0"/>
        <pt x="222" y="496" on="0"/>
        <pt x="72" y="485" on="1"/>
        <pt x="72" y="514" on="1"/>
        <pt x="205" y="537" on="0"/>
        <pt x="295" y="537" on="1"/>
        <pt x="404" y="537" on="0"/>
        <pt x="477" y="422" on="0"/>
        <pt x="477" y="269" on="1"/>
        <pt x="477" y="156" on="1"/>
        <pt x="477" y="0" on="0"/>
        <pt x="322" y="0" on="1"/>
        <pt x="198" y="0" on="1"/>
        <pt x="62" y="0" on="0"/>
      </contour>
      <contour>
        <pt x="103" y="131" on="1"/>
        <pt x="103" y="86" on="0"/>
        <pt x="148" y="41" on="0"/>
        <pt x="198" y="41" on="1"/>
        <pt x="322" y="41" on="1"/>
        <pt x="387" y="41" on="0"/>
        <pt x="436" y="101" on="0"/>
        <pt x="436" y="156" on="1"/>
        <pt x="436" y="288" on="1"/>
        <pt x="198" y="276" on="1"/>
        <pt x="150" y="274" on="0"/>
        <pt x="103" y="238" on="0"/>
        <pt x="103" y="195" on="1"/>
      </contour>
    </TTGlyph>
    <TTGlyph name="a.smcp" xMin="43" yMin="0" xMax="544" yMax="570">
      <contour>
        <pt x="43" y="0" on="1"/>
        <pt x="283" y="570" on="1"/>
        <pt x="324" y="570" on="1"/>
        <pt x="544" y="0" on="1"/>
        <pt x="499" y="0" on="1"/>
        <pt x="432" y="172" on="1"/>
        <pt x="160" y="172" on="1"/>
        <pt x="88" y="0" on="1"/>
      </contour>
      <contour>
        <pt x="178" y="213" on="1"/>
        <pt x="418" y="213" on="1"/>
        <pt x="303" y="515" on="1"/>
      </contour>
    </TTGlyph>
    <TTGlyph name="a.superior" xMin="38" yMin="374" xMax="320" yMax="740">
      <contour>
        <pt x="50" y="723" on="1"/>
        <pt x="120" y="739" on="0"/>
        <pt x="209" y="739" on="1"/>
        <pt x="256" y="739" on="0"/>
        <pt x="320" y="688" on="0"/>
        <pt x="320" y="636" on="1"/>
        <pt x="320" y="378" on="1"/>
        <pt x="299" y="378" on="1"/>
        <pt x="288" y="434" on="1"/>
        <pt x="278" y="428" on="1"/>
        <pt x="216" y="391" on="0"/>
        <pt x="156" y="374" on="0"/>
        <pt x="138" y="374" on="1"/>
        <pt x="97" y="374" on="0"/>
        <pt x="38" y="421" on="0"/>
        <pt x="38" y="463" on="1"/>
        <pt x="38" y="509" on="1"/>
        <pt x="38" y="550" on="0"/>
        <pt x="92" y="599" on="0"/>
        <pt x="138" y="599" on="1"/>
        <pt x="288" y="599" on="0"/>
        <pt x="288" y="600" on="1"/>
        <pt x="289" y="630" on="0"/>
        <pt x="288" y="631" on="1"/>
        <pt x="288" y="707" on="0"/>
        <pt x="118" y="707" on="0"/>
        <pt x="50" y="700" on="1"/>
      </contour>
      <contour>
        <pt x="71" y="467" on="1"/>
        <pt x="71" y="437" on="0"/>
        <pt x="111" y="407" on="0"/>
        <pt x="167" y="407" on="0"/>
        <pt x="241" y="432" on="0"/>
        <pt x="264" y="444" on="1"/>
        <pt x="288" y="456" on="1"/>
        <pt x="288" y="577" on="1"/>
        <pt x="140" y="568" on="1"/>
        <pt x="71" y="565" on="0"/>
        <pt x="71" y="507" on="1"/>
      </contour>
    </TTGlyph>
    <TTGlyph name="aacute" xMin="49" yMin="-6" xMax="458" yMax="734">
      <contour>
        <pt x="248" y="601" on="1"/>
        <pt x="364" y="734" on="1"/>
        <pt x="413" y="734" on="1"/>
        <pt x="280" y="601" on="1"/>
      </contour>
      <contour>
        <pt x="66" y="510" on="1"/>
        <pt x="185" y="541" on="0"/>
        <pt x="308" y="541" on="1"/>
        <pt x="373" y="541" on="0"/>
        <pt x="458" y="465" on="0"/>
        <pt x="458" y="387" on="1"/>
        <pt x="458" y="0" on="1"/>
        <pt x="430" y="0" on="1"/>
        <pt x="417" y="64" on="1"/>
        <pt x="402" y="57" on="1"/>
        <pt x="306" y="14" on="0"/>
        <pt x="209" y="-6" on="0"/>
        <pt x="182" y="-6" on="1"/>
        <pt x="125" y="-6" on="0"/>
        <pt x="49" y="64" on="0"/>
        <pt x="49" y="126" on="1"/>
        <pt x="49" y="187" on="1"/>
        <pt x="49" y="249" on="0"/>
        <pt x="120" y="320" on="0"/>
        <pt x="182" y="320" on="1"/>
        <pt x="300" y="320" on="0"/>
        <pt x="417" y="320" on="0"/>
        <pt x="417" y="320" on="1"/>
        <pt x="418" y="353" on="0"/>
        <pt x="418" y="386" on="0"/>
        <pt x="417" y="387" on="1"/>
        <pt x="417" y="501" on="0"/>
        <pt x="304" y="502" on="1"/>
        <pt x="300" y="502" on="0"/>
        <pt x="296" y="502" on="1"/>
        <pt x="215" y="502" on="0"/>
        <pt x="66" y="483" on="1"/>
      </contour>
      <contour>
        <pt x="90" y="131" on="1"/>
        <pt x="90" y="81" on="0"/>
        <pt x="144" y="36" on="0"/>
        <pt x="218" y="35" on="0"/>
        <pt x="335" y="63" on="0"/>
        <pt x="376" y="78" on="1"/>
        <pt x="417" y="92" on="1"/>
        <pt x="417" y="291" on="1"/>
        <pt x="182" y="279" on="1"/>
        <pt x="90" y="275" on="0"/>
        <pt x="90" y="185" on="1"/>
      </contour>
    </TTGlyph>
    <TTGlyph name="aacute.salt" xMin="62" yMin="0" xMax="477" yMax="730">
      <contour>
        <pt x="266" y="597" on="1"/>
        <pt x="382" y="730" on="1"/>
        <pt x="431" y="730" on="1"/>
        <pt x="298" y="597" on="1"/>
      </contour>
      <contour>
        <pt x="62" y="131" on="1"/>
        <pt x="62" y="195" on="1"/>
        <pt x="62" y="317" on="0"/>
        <pt x="198" y="317" on="1"/>
        <pt x="436" y="317" on="1"/>
        <pt x="436" y="452" on="0"/>
        <pt x="378" y="481" on="1"/>
        <pt x="348" y="496" on="0"/>
        <pt x="222" y="496" on="0"/>
        <pt x="72" y="485" on="1"/>
        <pt x="72" y="514" on="1"/>
        <pt x="205" y="537" on="0"/>
        <pt x="295" y="537" on="1"/>
        <pt x="404" y="537" on="0"/>
        <pt x="477" y="422" on="0"/>
        <pt x="477" y="269" on="1"/>
        <pt x="477" y="156" on="1"/>
        <pt x="477" y="0" on="0"/>
        <pt x="322" y="0" on="1"/>
        <pt x="198" y="0" on="1"/>
        <pt x="62" y="0" on="0"/>
      </contour>
      <contour>
        <pt x="103" y="131" on="1"/>
        <pt x="103" y="86" on="0"/>
        <pt x="148" y="41" on="0"/>
        <pt x="198" y="41" on="1"/>
        <pt x="322" y="41" on="1"/>
        <pt x="387" y="41" on="0"/>
        <pt x="436" y="101" on="0"/>
        <pt x="436" y="156" on="1"/>
        <pt x="436" y="288" on="1"/>
        <pt x="198" y="276" on="1"/>
        <pt x="150" y="274" on="0"/>
        <pt x="103" y="238" on="0"/>
        <pt x="103" y="195" on="1"/>
      </contour>
    </TTGlyph>
    <TTGlyph name="aacute.smcp" xMin="43" yMin="0" xMax="544" yMax="763">
      <contour>
        <pt x="287" y="630" on="1"/>
        <pt x="403" y="763" on="1"/>
        <pt x="452" y="763" on="1"/>
        <pt x="319" y="630" on="1"/>
      </contour>
      <contour>
        <pt x="43" y="0" on="1"/>
        <pt x="283" y="570" on="1"/>
        <pt x="324" y="570" on="1"/>
        <pt x="544" y="0" on="1"/>
        <pt x="499" y="0" on="1"/>
        <pt x="432" y="172" on="1"/>
        <pt x="160" y="172" on="1"/>
        <pt x="88" y="0" on="1"/>
      </contour>
      <contour>
        <pt x="178" y="213" on="1"/>
        <pt x="418" y="213" on="1"/>
        <pt x="303" y="515" on="1"/>
      </contour>
    </TTGlyph>
    <TTGlyph name="abreve" xMin="49" yMin="-6" xMax="458" yMax="715">
      <contour>
        <pt x="156" y="715" on="1"/>
        <pt x="181" y="715" on="1"/>
        <pt x="181" y="677" on="0"/>
        <pt x="233" y="626" on="0"/>
        <pt x="267" y="626" on="1"/>
        <pt x="309" y="626" on="0"/>
        <pt x="361" y="676" on="0"/>
        <pt x="361" y="715" on="1"/>
        <pt x="386" y="715" on="1"/>
        <pt x="386" y="662" on="0"/>
        <pt x="315" y="601" on="0"/>
        <pt x="226" y="601" on="0"/>
        <pt x="156" y="664" on="0"/>
      </contour>
      <contour>
        <pt x="66" y="510" on="1"/>
        <pt x="185" y="541" on="0"/>
        <pt x="308" y="541" on="1"/>
        <pt x="373" y="541" on="0"/>
        <pt x="458" y="465" on="0"/>
        <pt x="458" y="387" on="1"/>
        <pt x="458" y="0" on="1"/>
        <pt x="430" y="0" on="1"/>
        <pt x="417" y="64" on="1"/>
        <pt x="402" y="57" on="1"/>
        <pt x="306" y="14" on="0"/>
        <pt x="209" y="-6" on="0"/>
        <pt x="182" y="-6" on="1"/>
        <pt x="125" y="-6" on="0"/>
        <pt x="49" y="64" on="0"/>
        <pt x="49" y="126" on="1"/>
        <pt x="49" y="187" on="1"/>
        <pt x="49" y="249" on="0"/>
        <pt x="120" y="320" on="0"/>
        <pt x="182" y="320" on="1"/>
        <pt x="300" y="320" on="0"/>
        <pt x="417" y="320" on="0"/>
        <pt x="417" y="320" on="1"/>
        <pt x="418" y="353" on="0"/>
        <pt x="418" y="386" on="0"/>
        <pt x="417" y="387" on="1"/>
        <pt x="417" y="501" on="0"/>
        <pt x="304" y="502" on="1"/>
        <pt x="300" y="502" on="0"/>
        <pt x="296" y="502" on="1"/>
        <pt x="215" y="502" on="0"/>
        <pt x="66" y="483" on="1"/>
      </contour>
      <contour>
        <pt x="90" y="131" on="1"/>
        <pt x="90" y="81" on="0"/>
        <pt x="144" y="36" on="0"/>
        <pt x="218" y="35" on="0"/>
        <pt x="335" y="63" on="0"/>
        <pt x="376" y="78" on="1"/>
        <pt x="417" y="92" on="1"/>
        <pt x="417" y="291" on="1"/>
        <pt x="182" y="279" on="1"/>
        <pt x="90" y="275" on="0"/>
        <pt x="90" y="185" on="1"/>
      </contour>
    </TTGlyph>
    <TTGlyph name="abreve.salt" xMin="62" yMin="0" xMax="477" yMax="711">
      <contour>
        <pt x="162" y="711" on="1"/>
        <pt x="187" y="711" on="1"/>
        <pt x="187" y="673" on="0"/>
        <pt x="239" y="622" on="0"/>
        <pt x="273" y="622" on="1"/>
        <pt x="315" y="622" on="0"/>
        <pt x="367" y="672" on="0"/>
        <pt x="367" y="711" on="1"/>
        <pt x="392" y="711" on="1"/>
        <pt x="392" y="658" on="0"/>
        <pt x="321" y="597" on="0"/>
        <pt x="232" y="597" on="0"/>
        <pt x="162" y="660" on="0"/>
      </contour>
      <contour>
        <pt x="62" y="131" on="1"/>
        <pt x="62" y="195" on="1"/>
        <pt x="62" y="317" on="0"/>
        <pt x="198" y="317" on="1"/>
        <pt x="436" y="317" on="1"/>
        <pt x="436" y="452" on="0"/>
        <pt x="378" y="481" on="1"/>
        <pt x="348" y="496" on="0"/>
        <pt x="222" y="496" on="0"/>
        <pt x="72" y="485" on="1"/>
        <pt x="72" y="514" on="1"/>
        <pt x="205" y="537" on="0"/>
        <pt x="295" y="537" on="1"/>
        <pt x="404" y="537" on="0"/>
        <pt x="477" y="422" on="0"/>
        <pt x="477" y="269" on="1"/>
        <pt x="477" y="156" on="1"/>
        <pt x="477" y="0" on="0"/>
        <pt x="322" y="0" on="1"/>
        <pt x="198" y="0" on="1"/>
        <pt x="62" y="0" on="0"/>
      </contour>
      <contour>
        <pt x="103" y="131" on="1"/>
        <pt x="103" y="86" on="0"/>
        <pt x="148" y="41" on="0"/>
        <pt x="198" y="41" on="1"/>
        <pt x="322" y="41" on="1"/>
        <pt x="387" y="41" on="0"/>
        <pt x="436" y="101" on="0"/>
        <pt x="436" y="156" on="1"/>
        <pt x="436" y="288" on="1"/>
        <pt x="198" y="276" on="1"/>
        <pt x="150" y="274" on="0"/>
        <pt x="103" y="238" on="0"/>
        <pt x="103" y="195" on="1"/>
      </contour>
    </TTGlyph>
    <TTGlyph name="abreve.smcp" xMin="43" yMin="0" xMax="544" yMax="744">
      <contour>
        <pt x="188" y="744" on="1"/>
        <pt x="213" y="744" on="1"/>
        <pt x="213" y="706" on="0"/>
        <pt x="265" y="655" on="0"/>
        <pt x="299" y="655" on="1"/>
        <pt x="341" y="655" on="0"/>
        <pt x="393" y="705" on="0"/>
        <pt x="393" y="744" on="1"/>
        <pt x="418" y="744" on="1"/>
        <pt x="418" y="691" on="0"/>
        <pt x="347" y="630" on="0"/>
        <pt x="258" y="630" on="0"/>
        <pt x="188" y="693" on="0"/>
      </contour>
      <contour>
        <pt x="43" y="0" on="1"/>
        <pt x="283" y="570" on="1"/>
        <pt x="324" y="570" on="1"/>
        <pt x="544" y="0" on="1"/>
        <pt x="499" y="0" on="1"/>
        <pt x="432" y="172" on="1"/>
        <pt x="160" y="172" on="1"/>
        <pt x="88" y="0" on="1"/>
      </contour>
      <contour>
        <pt x="178" y="213" on="1"/>
        <pt x="418" y="213" on="1"/>
        <pt x="303" y="515" on="1"/>
      </contour>
    </TTGlyph>
    <TTGlyph name="acircumflex" xMin="49" yMin="-6" xMax="458" yMax="731">
      <contour>
        <pt x="128" y="601" on="1"/>
        <pt x="255" y="731" on="1"/>
        <pt x="292" y="731" on="1"/>
        <pt x="407" y="601" on="1"/>
        <pt x="371" y="601" on="1"/>
        <pt x="273" y="701" on="1"/>
        <pt x="164" y="601" on="1"/>
      </contour>
      <contour>
        <pt x="66" y="510" on="1"/>
        <pt x="185" y="541" on="0"/>
        <pt x="308" y="541" on="1"/>
        <pt x="373" y="541" on="0"/>
        <pt x="458" y="465" on="0"/>
        <pt x="458" y="387" on="1"/>
        <pt x="458" y="0" on="1"/>
        <pt x="430" y="0" on="1"/>
        <pt x="417" y="64" on="1"/>
        <pt x="402" y="57" on="1"/>
        <pt x="306" y="14" on="0"/>
        <pt x="209" y="-6" on="0"/>
        <pt x="182" y="-6" on="1"/>
        <pt x="125" y="-6" on="0"/>
        <pt x="49" y="64" on="0"/>
        <pt x="49" y="126" on="1"/>
        <pt x="49" y="187" on="1"/>
        <pt x="49" y="249" on="0"/>
        <pt x="120" y="320" on="0"/>
        <pt x="182" y="320" on="1"/>
        <pt x="300" y="320" on="0"/>
        <pt x="417" y="320" on="0"/>
        <pt x="417" y="320" on="1"/>
        <pt x="418" y="353" on="0"/>
        <pt x="418" y="386" on="0"/>
        <pt x="417" y="387" on="1"/>
        <pt x="417" y="501" on="0"/>
        <pt x="304" y="502" on="1"/>
        <pt x="300" y="502" on="0"/>
        <pt x="296" y="502" on="1"/>
        <pt x="215" y="502" on="0"/>
        <pt x="66" y="483" on="1"/>
      </contour>
      <contour>
        <pt x="90" y="131" on="1"/>
        <pt x="90" y="81" on="0"/>
        <pt x="144" y="36" on="0"/>
        <pt x="218" y="35" on="0"/>
        <pt x="335" y="63" on="0"/>
        <pt x="376" y="78" on="1"/>
        <pt x="417" y="92" on="1"/>
        <pt x="417" y="291" on="1"/>
        <pt x="182" y="279" on="1"/>
        <pt x="90" y="275" on="0"/>
        <pt x="90" y="185" on="1"/>
      </contour>
    </TTGlyph>
    <TTGlyph name="acircumflex.salt" xMin="62" yMin="0" xMax="477" yMax="727">
      <contour>
        <pt x="143" y="597" on="1"/>
        <pt x="270" y="727" on="1"/>
        <pt x="307" y="727" on="1"/>
        <pt x="422" y="597" on="1"/>
        <pt x="386" y="597" on="1"/>
        <pt x="288" y="697" on="1"/>
        <pt x="179" y="597" on="1"/>
      </contour>
      <contour>
        <pt x="62" y="131" on="1"/>
        <pt x="62" y="195" on="1"/>
        <pt x="62" y="317" on="0"/>
        <pt x="198" y="317" on="1"/>
        <pt x="436" y="317" on="1"/>
        <pt x="436" y="452" on="0"/>
        <pt x="378" y="481" on="1"/>
        <pt x="348" y="496" on="0"/>
        <pt x="222" y="496" on="0"/>
        <pt x="72" y="485" on="1"/>
        <pt x="72" y="514" on="1"/>
        <pt x="205" y="537" on="0"/>
        <pt x="295" y="537" on="1"/>
        <pt x="404" y="537" on="0"/>
        <pt x="477" y="422" on="0"/>
        <pt x="477" y="269" on="1"/>
        <pt x="477" y="156" on="1"/>
        <pt x="477" y="0" on="0"/>
        <pt x="322" y="0" on="1"/>
        <pt x="198" y="0" on="1"/>
        <pt x="62" y="0" on="0"/>
      </contour>
      <contour>
        <pt x="103" y="131" on="1"/>
        <pt x="103" y="86" on="0"/>
        <pt x="148" y="41" on="0"/>
        <pt x="198" y="41" on="1"/>
        <pt x="322" y="41" on="1"/>
        <pt x="387" y="41" on="0"/>
        <pt x="436" y="101" on="0"/>
        <pt x="436" y="156" on="1"/>
        <pt x="436" y="288" on="1"/>
        <pt x="198" y="276" on="1"/>
        <pt x="150" y="274" on="0"/>
        <pt x="103" y="238" on="0"/>
        <pt x="103" y="195" on="1"/>
      </contour>
    </TTGlyph>
    <TTGlyph name="acircumflex.smcp" xMin="43" yMin="0" xMax="544" yMax="760">
      <contour>
        <pt x="164" y="630" on="1"/>
        <pt x="291" y="760" on="1"/>
        <pt x="328" y="760" on="1"/>
        <pt x="443" y="630" on="1"/>
        <pt x="407" y="630" on="1"/>
        <pt x="309" y="730" on="1"/>
        <pt x="200" y="630" on="1"/>
      </contour>
      <contour>
        <pt x="43" y="0" on="1"/>
        <pt x="283" y="570" on="1"/>
        <pt x="324" y="570" on="1"/>
        <pt x="544" y="0" on="1"/>
        <pt x="499" y="0" on="1"/>
        <pt x="432" y="172" on="1"/>
        <pt x="160" y="172" on="1"/>
        <pt x="88" y="0" on="1"/>
      </contour>
      <contour>
        <pt x="178" y="213" on="1"/>
        <pt x="418" y="213" on="1"/>
        <pt x="303" y="515" on="1"/>
      </contour>
    </TTGlyph>
    <TTGlyph name="acute" xMin="25" yMin="531" xMax="190" yMax="664">
      <contour>
        <pt x="25" y="531" on="1"/>
        <pt x="141" y="664" on="1"/>
        <pt x="190" y="664" on="1"/>
        <pt x="57" y="531" on="1"/>
      </contour>
    </TTGlyph>
    <TTGlyph name="acute.smcp" xMin="25" yMin="531" xMax="190" yMax="664">
      <contour>
        <pt x="25" y="531" on="1"/>
        <pt x="141" y="664" on="1"/>
        <pt x="190" y="664" on="1"/>
        <pt x="57" y="531" on="1"/>
      </contour>
    </TTGlyph>
    <TTGlyph name="adieresis" xMin="49" yMin="-6" xMax="458" yMax="680">
      <contour>
        <pt x="110" y="640" on="0"/>
        <pt x="110" y="664" on="0"/>
        <pt x="126" y="680" on="0"/>
        <pt x="150" y="680" on="0"/>
        <pt x="167" y="664" on="0"/>
        <pt x="167" y="640" on="0"/>
        <pt x="150" y="623" on="0"/>
        <pt x="126" y="623" on="0"/>
      </contour>
      <contour>
        <pt x="364" y="640" on="0"/>
        <pt x="364" y="664" on="0"/>
        <pt x="381" y="680" on="0"/>
        <pt x="405" y="680" on="0"/>
        <pt x="422" y="664" on="0"/>
        <pt x="422" y="640" on="0"/>
        <pt x="405" y="623" on="0"/>
        <pt x="381" y="623" on="0"/>
      </contour>
      <contour>
        <pt x="66" y="510" on="1"/>
        <pt x="185" y="541" on="0"/>
        <pt x="308" y="541" on="1"/>
        <pt x="373" y="541" on="0"/>
        <pt x="458" y="465" on="0"/>
        <pt x="458" y="387" on="1"/>
        <pt x="458" y="0" on="1"/>
        <pt x="430" y="0" on="1"/>
        <pt x="417" y="64" on="1"/>
        <pt x="402" y="57" on="1"/>
        <pt x="306" y="14" on="0"/>
        <pt x="209" y="-6" on="0"/>
        <pt x="182" y="-6" on="1"/>
        <pt x="125" y="-6" on="0"/>
        <pt x="49" y="64" on="0"/>
        <pt x="49" y="126" on="1"/>
        <pt x="49" y="187" on="1"/>
        <pt x="49" y="249" on="0"/>
        <pt x="120" y="320" on="0"/>
        <pt x="182" y="320" on="1"/>
        <pt x="300" y="320" on="0"/>
        <pt x="417" y="320" on="0"/>
        <pt x="417" y="320" on="1"/>
        <pt x="418" y="353" on="0"/>
        <pt x="418" y="386" on="0"/>
        <pt x="417" y="387" on="1"/>
        <pt x="417" y="501" on="0"/>
        <pt x="304" y="502" on="1"/>
        <pt x="300" y="502" on="0"/>
        <pt x="296" y="502" on="1"/>
        <pt x="215" y="502" on="0"/>
        <pt x="66" y="483" on="1"/>
      </contour>
      <contour>
        <pt x="90" y="131" on="1"/>
        <pt x="90" y="81" on="0"/>
        <pt x="144" y="36" on="0"/>
        <pt x="218" y="35" on="0"/>
        <pt x="335" y="63" on="0"/>
        <pt x="376" y="78" on="1"/>
        <pt x="417" y="92" on="1"/>
        <pt x="417" y="291" on="1"/>
        <pt x="182" y="279" on="1"/>
        <pt x="90" y="275" on="0"/>
        <pt x="90" y="185" on="1"/>
      </contour>
    </TTGlyph>
    <TTGlyph name="adieresis.salt" xMin="62" yMin="0" xMax="477" yMax="654">
      <contour>
        <pt x="117" y="614" on="0"/>
        <pt x="117" y="638" on="0"/>
        <pt x="133" y="654" on="0"/>
        <pt x="157" y="654" on="0"/>
        <pt x="174" y="638" on="0"/>
        <pt x="174" y="614" on="0"/>
        <pt x="157" y="597" on="0"/>
        <pt x="133" y="597" on="0"/>
      </contour>
      <contour>
        <pt x="371" y="614" on="0"/>
        <pt x="371" y="638" on="0"/>
        <pt x="388" y="654" on="0"/>
        <pt x="412" y="654" on="0"/>
        <pt x="429" y="638" on="0"/>
        <pt x="429" y="614" on="0"/>
        <pt x="412" y="597" on="0"/>
        <pt x="388" y="597" on="0"/>
      </contour>
      <contour>
        <pt x="62" y="131" on="1"/>
        <pt x="62" y="195" on="1"/>
        <pt x="62" y="317" on="0"/>
        <pt x="198" y="317" on="1"/>
        <pt x="436" y="317" on="1"/>
        <pt x="436" y="452" on="0"/>
        <pt x="378" y="481" on="1"/>
        <pt x="348" y="496" on="0"/>
        <pt x="222" y="496" on="0"/>
        <pt x="72" y="485" on="1"/>
        <pt x="72" y="514" on="1"/>
        <pt x="205" y="537" on="0"/>
        <pt x="295" y="537" on="1"/>
        <pt x="404" y="537" on="0"/>
        <pt x="477" y="422" on="0"/>
        <pt x="477" y="269" on="1"/>
        <pt x="477" y="156" on="1"/>
        <pt x="477" y="0" on="0"/>
        <pt x="322" y="0" on="1"/>
        <pt x="198" y="0" on="1"/>
        <pt x="62" y="0" on="0"/>
      </contour>
      <contour>
        <pt x="103" y="131" on="1"/>
        <pt x="103" y="86" on="0"/>
        <pt x="148" y="41" on="0"/>
        <pt x="198" y="41" on="1"/>
        <pt x="322" y="41" on="1"/>
        <pt x="387" y="41" on="0"/>
        <pt x="436" y="101" on="0"/>
        <pt x="436" y="156" on="1"/>
        <pt x="436" y="288" on="1"/>
        <pt x="198" y="276" on="1"/>
        <pt x="150" y="274" on="0"/>
        <pt x="103" y="238" on="0"/>
        <pt x="103" y="195" on="1"/>
      </contour>
    </TTGlyph>
    <TTGlyph name="adieresis.smcp" xMin="43" yMin="0" xMax="544" yMax="687">
      <contour>
        <pt x="147" y="647" on="0"/>
        <pt x="147" y="671" on="0"/>
        <pt x="163" y="687" on="0"/>
        <pt x="187" y="687" on="0"/>
        <pt x="204" y="671" on="0"/>
        <pt x="204" y="647" on="0"/>
        <pt x="187" y="630" on="0"/>
        <pt x="163" y="630" on="0"/>
      </contour>
      <contour>
        <pt x="401" y="647" on="0"/>
        <pt x="401" y="671" on="0"/>
        <pt x="418" y="687" on="0"/>
        <pt x="442" y="687" on="0"/>
        <pt x="459" y="671" on="0"/>
        <pt x="459" y="647" on="0"/>
        <pt x="442" y="630" on="0"/>
        <pt x="418" y="630" on="0"/>
      </contour>
      <contour>
        <pt x="43" y="0" on="1"/>
        <pt x="283" y="570" on="1"/>
        <pt x="324" y="570" on="1"/>
        <pt x="544" y="0" on="1"/>
        <pt x="499" y="0" on="1"/>
        <pt x="432" y="172" on="1"/>
        <pt x="160" y="172" on="1"/>
        <pt x="88" y="0" on="1"/>
      </contour>
      <contour>
        <pt x="178" y="213" on="1"/>
        <pt x="418" y="213" on="1"/>
        <pt x="303" y="515" on="1"/>
      </contour>
    </TTGlyph>
    <TTGlyph name="ae" xMin="49" yMin="-4" xMax="834" yMax="544">
      <contour>
        <pt x="66" y="512" on="1"/>
        <pt x="175" y="543" on="0"/>
        <pt x="309" y="543" on="1"/>
        <pt x="357" y="543" on="0"/>
        <pt x="431" y="499" on="0"/>
        <pt x="446" y="453" on="1"/>
        <pt x="464" y="501" on="0"/>
        <pt x="553" y="536" on="0"/>
        <pt x="631" y="536" on="1"/>
        <pt x="734" y="536" on="0"/>
        <pt x="762" y="521" on="1"/>
        <pt x="803" y="500" on="0"/>
        <pt x="816" y="469" on="1"/>
        <pt x="834" y="422" on="0"/>
        <pt x="834" y="300" on="0"/>
        <pt x="766" y="251" on="0"/>
        <pt x="697" y="251" on="1"/>
        <pt x="459" y="251" on="1"/>
        <pt x="459" y="156" on="0"/>
        <pt x="469" y="93" on="0"/>
        <pt x="485" y="68" on="0"/>
        <pt x="500" y="56" on="1"/>
        <pt x="525" y="37" on="0"/>
        <pt x="593" y="37" on="1"/>
        <pt x="599" y="37" on="0"/>
        <pt x="604" y="37" on="1"/>
        <pt x="707" y="37" on="0"/>
        <pt x="824" y="54" on="1"/>
        <pt x="824" y="24" on="1"/>
        <pt x="725" y="-4" on="0"/>
        <pt x="593" y="-4" on="1"/>
        <pt x="503" y="-4" on="0"/>
        <pt x="466" y="30" on="1"/>
        <pt x="450" y="45" on="0"/>
        <pt x="435" y="66" on="1"/>
        <pt x="418" y="59" on="1"/>
        <pt x="310" y="16" on="0"/>
        <pt x="209" y="-4" on="0"/>
        <pt x="182" y="-4" on="1"/>
        <pt x="125" y="-4" on="0"/>
        <pt x="49" y="66" on="0"/>
        <pt x="49" y="128" on="1"/>
        <pt x="49" y="161" on="1"/>
        <pt x="49" y="223" on="0"/>
        <pt x="120" y="294" on="0"/>
        <pt x="182" y="294" on="1"/>
        <pt x="300" y="294" on="0"/>
        <pt x="417" y="294" on="0"/>
        <pt x="417" y="294" on="1"/>
        <pt x="418" y="341" on="0"/>
        <pt x="418" y="388" on="0"/>
        <pt x="417" y="389" on="1"/>
        <pt x="417" y="503" on="0"/>
        <pt x="304" y="504" on="1"/>
        <pt x="300" y="504" on="0"/>
        <pt x="296" y="504" on="1"/>
        <pt x="216" y="504" on="0"/>
        <pt x="66" y="485" on="1"/>
      </contour>
      <contour>
        <pt x="90" y="133" on="1"/>
        <pt x="90" y="83" on="0"/>
        <pt x="144" y="38" on="0"/>
        <pt x="218" y="37" on="0"/>
        <pt x="335" y="68" on="0"/>
        <pt x="376" y="84" on="1"/>
        <pt x="417" y="99" on="1"/>
        <pt x="417" y="264" on="1"/>
        <pt x="182" y="255" on="1"/>
        <pt x="90" y="251" on="0"/>
        <pt x="90" y="161" on="1"/>
      </contour>
      <contour>
        <pt x="697" y="291" on="1"/>
        <pt x="745" y="291" on="0"/>
        <pt x="793" y="317" on="0"/>
        <pt x="793" y="386" on="0"/>
        <pt x="787" y="428" on="0"/>
        <pt x="778" y="458" on="0"/>
        <pt x="755" y="478" on="0"/>
        <pt x="736" y="489" on="0"/>
        <pt x="716" y="492" on="1"/>
        <pt x="687" y="495" on="0"/>
        <pt x="560" y="495" on="0"/>
        <pt x="491" y="467" on="0"/>
        <pt x="460" y="381" on="0"/>
        <pt x="459" y="291" on="1"/>
      </contour>
    </TTGlyph>
    <TTGlyph name="ae.smcp" xMin="28" yMin="-6" xMax="760" yMax="567">
      <contour>
        <pt x="760" y="527" on="1"/>
        <pt x="498" y="527" on="1"/>
        <pt x="457" y="527" on="0"/>
        <pt x="434" y="506" on="0"/>
        <pt x="433" y="473" on="1"/>
        <pt x="433" y="302" on="1"/>
        <pt x="729" y="295" on="1"/>
        <pt x="729" y="265" on="1"/>
        <pt x="433" y="258" on="1"/>
        <pt x="433" y="88" on="1"/>
        <pt x="433" y="36" on="0"/>
        <pt x="485" y="36" on="1"/>
        <pt x="760" y="35" on="1"/>
        <pt x="760" y="6" on="1"/>
        <pt x="478" y="-5" on="1"/>
        <pt x="476" y="-5" on="0"/>
        <pt x="475" y="-5" on="1"/>
        <pt x="437" y="-5" on="0"/>
        <pt x="391" y="39" on="0"/>
        <pt x="391" y="79" on="1"/>
        <pt x="391" y="192" on="1"/>
        <pt x="196" y="192" on="1"/>
        <pt x="76" y="0" on="1"/>
        <pt x="28" y="0" on="1"/>
        <pt x="326" y="482" on="1"/>
        <pt x="359" y="534" on="0"/>
        <pt x="422" y="564" on="0"/>
        <pt x="496" y="567" on="1"/>
        <pt x="760" y="557" on="1"/>
      </contour>
      <contour>
        <pt x="391" y="233" on="1"/>
        <pt x="391" y="506" on="1"/>
        <pt x="219" y="233" on="1"/>
      </contour>
    </TTGlyph>
</ttFont>
